<svg width="1240" height="1240" viewBox="0 0 1240 1240" fill="none" xmlns="http://www.w3.org/2000/svg">
<g clip-path="url(#clip0_9_69)">
<path d="M289.4 281.8C286.333 283.4 283.267 286.467 281.667 289.667C279 294.867 279 297 279 588.6C279 912.6 278.467 891.534 287.533 910.334C296.867 929.934 310.733 943.8 330.333 953.134C349.133 962.2 328.067 961.667 652.067 961.667C943.8 961.667 945.8 961.667 951 959C957 955.934 961.667 948.334 961.667 941.667C961.667 935 957 927.4 951 924.334C946.6 922.067 943.133 921.667 929.667 921.667H913.667V784.6V647.4L924.067 642.334C965.267 621.934 974.067 567.134 941.4 534.467C928.333 521.4 913 515.134 894.333 515C863.667 514.867 837.667 534.867 829 564.867C827.267 570.867 826.867 575.667 827.4 585.534C827.8 592.6 828.467 599.8 828.867 601.667C829.533 604.734 825.4 608.067 771.533 647.267L713.533 689.4L707.267 686.2C683.4 674.067 653 677.667 633.133 695.134C628.867 698.867 626.333 700.334 624.467 699.667C623.133 699.267 609.8 693.267 594.867 686.2C579.933 679.267 564.867 672.334 561.4 670.734L555 668.067V658.467C555 639.8 549 625.134 535.667 611.534C519.133 594.6 495.4 587.667 472.6 593C450.333 598.334 433.667 613 424.6 635.534L420.867 644.6L370.333 663.667L319.667 682.734L319 487.934C318.2 269 319.133 287.267 308.333 281.667C301.8 278.334 295.8 278.334 289.4 281.8ZM909.533 559.534C916.067 564.067 921.667 574.6 921.667 582.2C921.533 589.534 917.8 597.4 911.933 602.6C894.067 618.2 867 605.934 867 582.067C867 565.4 878.867 554.467 895.8 555.4C902.2 555.667 905.267 556.6 909.533 559.534ZM499.933 634.334C509.4 639.134 514.067 646.2 514.733 656.867C515.8 673.8 504.467 685.667 487.267 685.667C473.4 685.667 462.467 675.934 460.733 661.934C459.8 653.8 461.933 647 467.4 640.734C476.067 630.867 488.2 628.6 499.933 634.334ZM867.533 644.334L873.667 646.867V784.334V921.667H785H696.333V866.6V811.667L705.933 807C724.733 798.067 739.267 779 743.133 758.334C744.867 749 743.933 733.934 741.133 725.934L739.133 720.334L743.4 717.134C745.8 715.4 771.533 696.467 800.733 675.134L853.933 636.334L857.667 639C859.667 640.467 864.067 642.867 867.533 644.334ZM430.2 693.534C436.6 704.067 447.933 714.067 459.133 719.4L468.333 723.667V822.734V921.8L411.933 921.4L355.667 921L346.867 916.734C336.333 911.534 328.2 903.134 323.267 892.6L319.667 885L319.267 805.4L318.867 725.934L325.933 723.267C375.933 704.467 422.333 686.734 422.867 686.334C424.333 684.867 425.533 686.067 430.2 693.534ZM573.933 720.6L609.533 737L609.667 747.134C609.667 772.467 624.467 795.667 647.533 807L656.333 811.4V866.467V921.667H582.333H508.333V822.6V723.667L518.067 718.734C523.267 715.934 529.8 711.667 532.333 709.134C534.867 706.6 537.267 704.6 537.667 704.467C538.067 704.334 554.333 711.667 573.933 720.6ZM687.8 721.534C697.667 725.934 704.2 736.067 704.333 746.467C704.333 754.2 698.733 764.6 692.067 769.134C687.267 772.467 685.4 773 676.867 773C668.333 773 666.6 772.6 661.4 769C643.533 756.467 646.733 728.6 667 720.467C672.333 718.334 681.933 718.867 687.8 721.534Z" fill="#35AFA0"/>
<path d="M795.267 369.267C793.533 369.667 789.8 372.2 787 375C780.2 381.8 779 388.6 783 396.867C787.133 405.667 790.867 407.533 805.667 408.333L818.333 409L746.733 460.467L675 511.933L640.067 494.067C620.733 484.2 587.267 467.133 565.667 456.067C544.067 445 519 432.067 510.067 427.533C492.2 418.2 486.6 417.133 478.6 421.133C462.2 429.667 359 487.8 356.6 490.2C343.133 502.467 351.267 524.333 369.4 524.333C374.867 524.333 381.4 521 430.867 493.4C461.4 476.467 486.733 462.333 487.4 462.067C487.933 461.667 529 482.333 578.733 507.667C678.333 558.733 676.733 558.2 687.267 551.933C690.467 550.067 726.333 524.467 767 495.267C807.667 465.933 841.133 442.067 841.267 442.2C841.4 442.333 840.333 446.333 838.867 451C835.933 460.333 836.333 465 840.467 471.8C847.267 483 865.667 483 873 471.933C876.333 466.733 900.333 393.533 900.333 388.333C900.333 381.133 896.333 374.733 889.667 371.267C883.933 368.333 882.867 368.333 841 368.467C817.533 368.6 797 369 795.267 369.267Z" fill="#35AFA0"/>
</g>
<circle cx="620" cy="620" r="610" stroke="#35AFA0" stroke-width="20"/>
<defs>
<clipPath id="clip0_9_69">
<rect width="682.667" height="682.667" fill="white" transform="translate(279 279)"/>
</clipPath>
</defs>
</svg>
