<svg width="535" height="650" viewBox="0 0 535 650" fill="none" xmlns="http://www.w3.org/2000/svg">
    <path d="M316 103.5L390.5 129.5L415 203.5L316 203.5L316 103.5Z" fill="#66B1F1"/>
    <path d="M251.467 3.1332C161.067 13.2665 94.5333 65.7999 67.4666 148.333C57.8666 177.933 54 201.533 53.0666 238.067L52.2666 265.8L28.9333 303.4C16.1333 324.067 4.79996 342.867 3.86663 345.267C-0.266705 354.867 3.46663 366.867 12.4 373.4C15.3333 375.4 25.3333 380.733 34.5333 385L51.4666 392.867L50.4 397C49.8666 399.133 49.3333 405.533 49.3333 411C49.4666 419.133 50.1333 422.2 53.0666 427.933C55.0666 431.667 57.2 435.267 58 435.667C59.0666 436.333 58.8 437.533 57.4666 439.533C54.5333 444.2 53.6 451.533 55.3333 456.867C56.6666 461.133 63.8666 469.667 66.1333 469.667C66.6666 469.667 68.6666 470.2 70.4 470.867L73.7333 472.2L68.9333 488.6C62.8 509.8 62.4 520.6 67.6 530.467C71.6 538.2 77.4666 543.667 85.3333 547.133C91.8666 550.067 113.867 554.333 132.667 556.333C164.8 559.8 167.867 560.333 176.4 564.333C187.733 569.667 193.733 574.6 203.6 586.733C220.667 608.067 241.733 627.8 261.6 641L271.333 647.4L280.267 646.467C302.933 644.2 344.267 633.933 367.867 624.867C388.667 616.733 411.6 604.867 430.133 592.467C449.467 579.667 472.267 560.467 475.067 554.6C476.667 551.267 475.867 548.733 463.467 519.267C448.533 483.8 445.867 474.333 445.867 458.2C446 436.333 450.533 426.467 469.2 407C490.933 384.467 503.867 367.133 514 346.867C525.467 324.2 529.2 309.8 531.333 281C533.467 251 533.2 240.867 530 237.667C526.533 234.2 520.133 234.2 516.667 237.667C514.4 239.933 514 242.067 514 252.867C514 270.333 511.6 298.333 509.333 307.267C504.533 326.6 492.533 350.2 478.133 369C474.8 373.4 464.933 384.333 456.4 393.267C433.867 416.867 427.333 431.533 427.333 458.333C427.333 476.733 430.4 488.067 443.867 520.333C450.133 535.267 455.333 547.933 455.333 548.467C455.333 550.733 434.267 567.533 418.8 577.933C382.933 601.533 338.8 618.333 290.267 626.333L276.533 628.6L267.6 622.6C253.2 613.133 236.4 597.533 223.733 582.067C197.867 550.467 184.933 543.267 148 539.533C122.667 536.867 94.8 531.8 90.5333 529C86.1333 526.2 82 519.267 82 514.733C82 512.733 84.6666 501.267 88 489.267C91.3333 477.267 94 466.2 94 464.733C94 460.733 88.8 456.867 80.4 454.467C76.1333 453.267 72.6666 451.667 72.6666 450.867C72.6666 450.067 74.5333 447.267 76.6666 444.733C82 438.733 82.1333 432.333 77.0666 428.333C67.2 420.6 64.4 407.133 70.6666 397C74.2666 391.133 74.9333 385.933 72.4 382.6C71.4666 381.4 64.6666 377.933 57.4666 375C40.2666 367.8 24.2666 359.8 22.1333 357.133C21.2 355.933 20.6666 353.933 20.9333 352.733C21.3333 351.4 32.4 332.867 45.6 311.667L69.6 273L70.5333 247.667C72.5333 195.667 79.4666 162.2 95.4666 128.467C108.4 101.267 126.8 78.3332 149.867 60.8665C162.533 51.2665 190.4 36.8665 206.133 31.7999C231.867 23.5332 256 20.3332 291.867 20.3332C326.4 20.3332 355.6 24.5999 381.2 33.5332C391.2 36.9999 392.133 36.9999 396 32.9999C403.067 26.0665 398.933 19.7999 384.667 15.2665C352.667 5.1332 336.533 2.7332 296 2.3332C277.733 2.06654 257.6 2.46654 251.467 3.1332Z" fill="black" stroke="black" stroke-width="4"/>
    <path d="M446 50.7333C442.133 51.9333 439.333 55.4 439.333 59C439.333 63.2666 440.4 64.6 454.267 77.5333C465.333 87.8 468.8 89 473.733 84.3333C479.467 79 477.867 74.6 465.867 63C455.333 52.7333 450 49.4 446 50.7333Z" fill="black" stroke="black" stroke-width="4"/>
    <path d="M249.2 87.5332C223.2 94.3332 202.267 105.8 183.333 123.933C169.333 137.133 160.533 148.467 152.933 162.733C131.867 202.733 129.733 250.467 147.2 292.467C160.4 324.2 188.533 353.8 219.867 369C258.267 387.533 301.467 389.266 341.867 373.666C352.667 369.533 374.667 356.6 377.733 352.733C382.133 346.733 381.333 345.8 326.667 291L274 238.2L273.733 163.8L273.333 89.3999L270.133 86.8665C266.267 83.6665 264.133 83.7999 249.2 87.5332ZM255.333 172.333C255.333 229.533 255.6 239.8 257.333 244.066C258.8 247.4 275.2 264.733 307.6 297.267C334.133 323.8 355.6 345.8 355.2 346.066C348.533 351.8 325.6 360.6 309.2 363.8C293.467 366.733 267.2 365.8 252 361.666C229.6 355.666 209.2 343.8 192.533 327.133C180.667 315.266 172.933 304.2 165.733 288.867C156.667 269.267 154.8 260.333 154.8 233.666C154.8 213.8 155.2 208.733 157.733 199.933C169.467 157.533 201.333 123.133 242 108.867C256.933 103.667 255.333 96.1998 255.333 172.333Z" fill="black" stroke="black" stroke-width="4"/>
    <path d="M301.6 86.9998L298 89.7998V151.8V213.8L301.333 217L304.533 220.333H365.333C434.8 220.333 433.867 220.467 434 209.933C434 196.2 423.467 168.867 410.933 149.933C391.467 120.866 361.467 98.7332 328.533 89.2665C310.8 84.0665 305.733 83.6665 301.6 86.9998ZM331.467 109.666C360 120.066 383.333 139.4 399.067 165.667C404.533 174.867 411.333 190.333 413.2 197.933L414 201.667H365.333H316.667V153.667C316.667 112.333 316.933 105.666 318.667 105.666C319.733 105.666 325.467 107.4 331.467 109.666Z" fill="black" stroke="black" stroke-width="4"/>
    <path d="M497.467 127.133C495.6 128.6 494 131 494 132.466C494 136.2 504.533 167.266 506.533 169.266C511.6 174.466 522 170.466 522 163.266C522 161.266 519.6 152.733 516.8 144.333C510 124.6 505.6 120.733 497.467 127.133Z" fill="black" stroke="black" stroke-width="4"/>
    <path d="M331.6 247C329.733 248.733 328.667 251.4 328.667 254.067C328.667 257.8 332.4 262.067 362.4 291.933C392.133 321.8 396.533 325.667 400.267 325.667C406 325.667 410.667 319.667 420 301C427.2 286.6 432.8 269.933 434.533 257.4C435.333 251.8 435.067 250.6 432.133 247.666L428.8 244.333H381.6C336 244.333 334.4 244.466 331.6 247ZM414 265C414 269.933 402.933 297.133 399.6 300.6C399.067 301.133 389.867 292.867 379.333 282.333L360 263H387.067C410.4 263 414 263.267 414 265Z" fill="black" stroke="black" stroke-width="4"/>
</svg>