<svg width="683" height="683" viewBox="0 0 683 683" fill="none" xmlns="http://www.w3.org/2000/svg">
<g clip-path="url(#clip0_13_86)">
<path d="M392.133 88.9333C388.533 92.4 382.933 110.933 318.533 334C280.266 466.667 248.8 577.333 248.8 579.733C248.8 586.4 252.666 589.2 268.133 593.467C275.6 595.6 282.933 597.333 284.266 597.333C285.6 597.333 288.4 595.733 290.533 593.6C294.133 590.267 299.733 571.733 364.133 348.667C402.4 215.867 433.866 105.333 433.866 102.933C433.866 96.2667 430 93.4667 414.533 89.2C407.066 87.0667 399.733 85.3333 398.4 85.3333C397.066 85.3333 394.266 86.9333 392.133 88.9333Z" fill="#66B1F1"/>
<path fill-rule="evenodd" clip-rule="evenodd" d="M475.116 172.428C482.411 164.797 491.821 156.137 494 155.733C495.467 155.467 498.134 155.733 500 156.267C501.867 156.933 543.6 197.6 592.667 246.667C681.334 335.333 682 336 682 341.333C682 346.666 681.334 347.333 593.384 435.417L593.334 435.467C544.534 484.267 503.467 524.8 502 525.6C495.734 529.067 492 527.333 479.2 514.533C477.647 512.98 476.143 511.427 474.741 509.934C491.309 493.696 519.275 465.947 550.384 434.838L550.434 434.788C638.384 346.704 639.051 346.037 639.051 340.705C639.051 335.371 638.384 334.705 549.717 246.038C519.564 215.884 492.179 188.903 475.116 172.428Z" fill="black"/>
<path fill-rule="evenodd" clip-rule="evenodd" d="M206.885 510.361C199.589 517.992 190.179 526.653 188 527.057C186.533 527.323 183.866 527.057 182 526.523C180.133 525.857 138.4 485.19 89.3331 436.123C0.666439 347.457 -0.000217348 346.79 -0.000217348 341.457C-0.000217348 336.124 0.666195 335.457 88.6165 247.373L88.6664 247.323C137.466 198.523 178.533 157.99 180 157.19C186.266 153.723 190 155.457 202.8 168.257C204.353 169.81 205.857 171.363 207.259 172.856C190.691 189.094 162.725 216.843 131.617 247.952L131.567 248.002C43.6163 336.086 42.9499 336.753 42.9499 342.085C42.9499 347.419 43.6165 348.085 132.283 436.752C162.437 466.905 189.821 493.887 206.885 510.361Z" fill="black"/>
</g>
<defs>
<clipPath id="clip0_13_86">
<rect width="682.667" height="682.667" fill="white"/>
</clipPath>
</defs>
</svg>
