<svg width="683" height="665" viewBox="0 0 683 665" fill="none" xmlns="http://www.w3.org/2000/svg">
    <g clip-path="url(#clip0_10_2)">
    <path d="M60 24.1333C31.2 30.2666 6.53333 55.4666 1.46667 83.8666C0.4 89.3333 0 164.933 0 323.867C0 517.867 0.4 557.467 1.86667 564.8C6.66667 586.933 22.5333 607.067 42.9333 616.533C49.0667 619.467 57.6 622.4 61.8667 623.2C73.0667 625.2 609.6 625.2 620.8 623.2C649.6 618 674.667 593.6 680.8 564.8C682.267 557.467 682.667 517.867 682.667 323.867C682.667 164.933 682.267 89.3333 681.2 83.8666C677.333 62.5333 660.8 40.3999 641.2 30.7999C622.133 21.4666 642 21.9999 340.667 22.1333C112.667 22.1333 67.2 22.5333 60 24.1333ZM616 45.9999C633.333 49.3333 647.467 60.2666 655.067 76.3999L659.333 85.3333L659.733 132.933L660.133 180.667H341.333H22.5333L22.9333 132.933L23.3333 85.3333L27.6 76.3999C34.9333 60.7999 49.3333 49.3333 65.6 46.1333C74 44.3999 607.333 44.3999 616 45.9999ZM660 379.067C660 573.067 660.4 563.2 651.6 577.067C645.733 586.133 638.8 592.133 628 597.2L619.333 601.333H341.333H63.3333L54.6667 597.2C43.8667 592.133 36.9333 586.133 31.0667 577.067C22.2667 563.2 22.6667 573.067 22.6667 379.067V203.333H341.333H660V379.067Z" fill="black" stroke="black" stroke-width="10"/>
    <path d="M354 271.6C350.8 274.533 349.067 281.733 327.2 385.6C306 486.267 304 496.933 305.6 500.267C309.333 508 319.2 508.933 324.133 501.867C325.733 499.867 334.4 460.8 349.2 390.533C361.733 331.067 372 281.467 372 280.267C372 276.4 369.067 271.6 365.733 270.133C360.933 268 357.867 268.4 354 271.6Z" fill="#66B1F1" stroke="#66B1F1" stroke-width="5"/>
    <path d="M262.667 316.267C255.333 321.467 187.867 379.733 186.667 382C184.133 386.667 185.2 391.067 189.733 395.6C196.933 402.8 261.333 457.2 264.933 459.067C268.933 461.2 276.667 459.067 278.667 455.333C281.067 450.8 280.133 444.933 276.4 440.8C274.267 438.667 259.733 426 244 412.667C228.267 399.2 215.2 387.867 214.933 387.333C214.8 386.8 228.133 374.8 244.667 360.8C261.2 346.667 276 333.867 277.333 332.267C281.067 328.267 280.8 321.333 276.667 317.333C272.8 313.467 267.333 313.067 262.667 316.267Z" fill="black" stroke="black" stroke-width="5"/>
    <path d="M406 317.333C401.867 321.333 401.6 328.267 405.333 332.267C406.667 333.867 421.467 346.667 438 360.8C454.533 374.8 467.867 386.8 467.733 387.333C467.467 387.867 454.4 399.2 438.667 412.667C422.933 426 408.4 438.667 406.4 440.8C402.533 444.933 401.6 450.8 404 455.333C406 459.067 413.733 461.2 417.733 459.067C421.333 457.2 485.733 402.8 492.933 395.6C497.467 391.067 498.533 386.667 496 382C494.8 379.733 427.333 321.467 420 316.267C415.333 313.067 409.867 313.467 406 317.333Z" fill="black" stroke="black" stroke-width="5"/>
    <circle cx="83" cy="113" r="33" fill="#FF0000"/>
    <circle cx="193" cy="113" r="33" fill="#FFBD44"/>
    <circle cx="303" cy="113" r="33" fill="#00CA4E"/>
    </g>
    <defs>
    <clipPath id="clip0_10_2">
    <rect width="682.667" height="682.667" fill="white" transform="translate(0 -18)"/>
    </clipPath>
    </defs>
</svg>   