<svg width="683" height="683" viewBox="0 0 683 683" fill="none" xmlns="http://www.w3.org/2000/svg">
<g clip-path="url(#clip0_13_86)">
<path d="M392.133 88.9333C388.533 92.4 382.933 110.933 318.533 334C280.266 466.667 248.8 577.333 248.8 579.733C248.8 586.4 252.666 589.2 268.133 593.467C275.6 595.6 282.933 597.333 284.266 597.333C285.6 597.333 288.4 595.733 290.533 593.6C294.133 590.267 299.733 571.733 364.133 348.667C402.4 215.867 433.866 105.333 433.866 102.933C433.866 96.2667 430 93.4667 414.533 89.2C407.066 87.0667 399.733 85.3333 398.4 85.3333C397.066 85.3333 394.266 86.9333 392.133 88.9333Z" fill="#66B1F1"/>
<path fill-rule="evenodd" clip-rule="evenodd" d="M472.736 174.963C480.191 166.861 491.575 156.182 494 155.733C495.467 155.467 498.133 155.733 500 156.267C501.867 156.933 543.6 197.6 592.667 246.667C681.333 335.333 682 336 682 341.333C682 346.666 681.334 347.333 593.383 435.417L593.333 435.467C544.533 484.267 503.467 524.8 502 525.6C495.733 529.067 492 527.333 479.2 514.533C476.727 512.06 474.377 509.586 472.368 507.357C489.175 490.852 515.864 464.357 545.384 434.838L545.434 434.788C633.384 346.704 634.05 346.037 634.05 340.705C634.05 335.371 633.384 334.705 544.717 246.038C516.063 217.384 489.909 191.594 472.736 174.963Z" fill="black"/>
<path fill-rule="evenodd" clip-rule="evenodd" d="M209.264 507.827C201.809 515.929 190.425 526.607 188 527.057C186.533 527.323 183.866 527.057 182 526.523C180.133 525.857 138.4 485.19 89.3331 436.123C0.66644 347.457 -0.000231713 346.79 -0.000231713 341.457C-0.000231713 336.124 0.666181 335.457 88.6165 247.373L88.6664 247.323C137.466 198.523 178.533 157.99 180 157.19C186.266 153.723 190 155.457 202.8 168.257C205.273 170.73 207.623 173.204 209.632 175.433C192.825 191.938 166.136 218.433 136.616 247.952L136.566 248.002C48.6162 336.086 47.9497 336.753 47.9497 342.085C47.9497 347.419 48.6164 348.085 137.283 436.752C165.937 465.406 192.091 491.196 209.264 507.827Z" fill="black"/>
</g>
<defs>
<clipPath id="clip0_13_86">
<rect width="682.667" height="682.667" fill="white"/>
</clipPath>
</defs>
</svg>
