<svg width="1240" height="1240" viewBox="0 0 1240 1240" fill="none" xmlns="http://www.w3.org/2000/svg">
<circle cx="620" cy="620" r="610" stroke="#3E7FD5" stroke-width="20"/>
<g clip-path="url(#clip0_9_67)">
<path d="M324.467 309.133C303.133 314.867 286.6 331.667 281 353C279.267 359.933 279 386.467 279 570.333C279 751.667 279.267 780.733 281 787.4C286.6 808.867 301.533 824.867 321.8 831.133C329.4 833.533 335.267 833.667 414.6 833.667H499.133L498.2 836.6C497.8 838.333 493.133 851.8 488.067 866.733L478.733 893.667H466.467C457.533 893.667 453.133 894.333 449.667 896.067C435.4 903.133 435.4 924.2 449.667 931.267C454.067 933.533 465 933.667 620.333 933.667C805.533 933.667 792.067 934.333 798.6 924.467C805 915 801.267 901.133 791 896.067C787.533 894.333 783.133 893.667 774.2 893.667H761.933L752.6 866.6C747.533 851.8 742.867 838.333 742.467 836.6L741.533 833.667H826.067C905.4 833.667 911.267 833.533 918.867 831.133C939.667 824.733 955.8 806.733 960.333 785.133C961.267 780.467 961.533 710.467 961.4 566.333L961 354.333L958.067 347C951.133 330.2 938.333 317.4 921.933 310.733L914.333 307.667L623 307.4C371.533 307.133 330.733 307.4 324.467 309.133ZM911.8 350.467C921 357.267 921 357.133 921.4 393.8L921.8 427H620.333H319V395.8C319 363.4 319.533 359.533 324.733 353.8C331.267 346.733 313.8 347.133 621.933 347.4L908.2 347.667L911.8 350.467ZM921.667 622.067V777.267L918.6 783C916.867 786.333 913.667 789.8 911 791.267C906.467 793.667 897 793.667 619 793.4C334.067 793 331.667 793 328.067 790.333C326.067 788.867 323.267 785.533 321.8 782.867C319 777.933 319 777.267 319 622.467V467H620.333H921.667V622.067ZM702.2 843.267C710.467 866.467 719 891.533 719 892.6C719 893.133 674.6 893.667 620.333 893.667C566.067 893.667 521.667 893.133 521.667 892.6C521.667 891.533 530.2 866.467 538.467 843.267L541.933 833.667H620.333H698.733L702.2 843.267Z" fill="#3E7FD5"/>
<path d="M353.533 369.933C347.8 373.133 343 381 343 387C343 393.133 347.8 400.867 353.667 404.2C358.2 406.733 360.867 407 377.8 407C393.4 407 397.933 406.6 401.667 404.6C415.933 397.533 415.933 376.467 401.667 369.4C397.8 367.4 393.4 367 377.667 367C360.467 367 357.8 367.4 353.533 369.933Z" fill="#3E7FD5"/>
<path d="M442.467 370.067C428.867 377.8 429.4 398.2 443.534 404.867C447 406.467 452.334 407 467.267 407C488.867 407 493.4 405.667 498.6 397.8C505 388.333 501.267 374.467 491 369.4C487.134 367.4 482.734 367 467 367C449.4 367 447.134 367.267 442.467 370.067Z" fill="#3E7FD5"/>
<path d="M532.601 369.267C525.667 372.6 522.334 378.467 522.334 387C522.334 395.667 525.801 401.533 532.867 404.867C539.667 408.067 573.801 407.933 580.201 404.6C587.534 401 590.334 396.067 590.334 387C590.334 378.067 587.667 373.4 580.334 369.533C573.934 366.067 539.401 365.933 532.601 369.267Z" fill="#3E7FD5"/>
<path d="M512.2 539.667C508.734 541.534 440.467 613.8 435.934 620.334C432.867 624.734 433 635.934 436.067 640.467C438.334 644.067 500.467 711 508.2 718.2C511.4 721.267 513.8 722.2 519.4 722.734C531.134 723.667 538.734 717.8 541 706.2C542.467 698.2 538.067 691.934 508.6 660.334L480.6 630.467L492.334 617.667C498.734 610.734 511.4 597.134 520.334 587.667C529.267 578.067 537.8 567.8 539.134 564.734C542.067 558.334 541.667 552.6 537.667 546.067C533.134 538.6 520.067 535.4 512.2 539.667Z" fill="#3E7FD5"/>
<path d="M635.667 538.867C628.867 541.8 625.801 547.267 619.134 567.533C615.534 578.6 604.467 612.6 594.467 643C575.267 701.533 574.067 707 578.867 714.2C586.734 726.067 605.667 726.067 612.467 714.067C613.667 712.067 625.534 676.733 639.001 635.8C666.467 551.267 666.334 552.333 657.267 543.267C653.267 539.267 651.534 538.467 645.401 538.067C641.534 537.933 637.134 538.2 635.667 538.867Z" fill="#3E7FD5"/>
<path d="M709.8 539.934C701.667 543.934 697.533 554.6 700.6 563.4C701.8 566.6 712.2 578.867 730.6 598.6C746.067 615.4 758.867 629.534 759 630.2C759.133 630.734 746.733 644.734 731.533 661.134C705.133 689.4 699.133 697.4 699 703.667C699 708.734 704.2 717.534 708.6 720.334C715.267 724.6 726.867 723.534 732.467 718.2C740.2 711 802.333 644.067 804.6 640.467C807.667 635.934 807.8 624.734 804.733 620.334C799.933 613.267 731.8 541.4 728.2 539.667C723.267 537 715.4 537.134 709.8 539.934Z" fill="#3E7FD5"/>
</g>
<defs>
<clipPath id="clip0_9_67">
<rect width="682.667" height="682.667" fill="white" transform="translate(279 279)"/>
</clipPath>
</defs>
</svg>
