<svg width="1240" height="1240" viewBox="0 0 1240 1240" fill="none" xmlns="http://www.w3.org/2000/svg">
<g clip-path="url(#clip0_9_68)">
<path d="M289.4 281.8C283.933 284.6 279 292.6 279 298.333C279 305 312.067 432.067 316.867 443.8C327.267 469.4 329.933 472.6 398.733 541.8C433.267 576.6 461.667 605.667 461.667 606.333C461.667 607.133 422.733 646.6 375.133 694.333C281.4 788.067 282.867 786.333 279.933 803.8C278.867 810.067 278.867 814.733 279.933 821.133C283 839.133 283.8 840.2 342.2 898.467C400.467 956.867 401.533 957.667 419.533 960.733C425.933 961.8 430.6 961.8 436.867 960.733C454.333 957.8 452.6 959.267 546.333 865.533C594.067 817.933 633.667 779 634.333 779C635.133 779 671.133 814.467 714.333 857.8C757.667 901.133 796.733 939.133 801.267 942.467C810.867 949.4 823 955.133 835.133 958.467C846.867 961.8 873.667 961.8 885.667 958.467C914.067 950.867 938.467 930.867 951 905C958.867 888.733 960.867 879.667 960.867 860.333C960.867 836.467 955.533 819.267 942.467 801.267C939.133 796.733 901.133 757.667 857.8 714.333C814.467 671.133 779 635.133 779 634.333C779 633.667 817.933 594.067 865.533 546.333C959.267 452.6 957.8 454.333 960.733 436.867C961.8 430.6 961.8 425.933 960.733 419.533C957.667 401.533 956.867 400.467 898.467 342.2C840.2 283.8 839.133 283 821.133 279.933C814.733 278.867 810.067 278.867 803.8 279.933C786.333 282.867 788.067 281.4 694.333 375.133C646.6 422.733 607.133 461.667 606.333 461.667C605.667 461.667 577.133 433.8 543 399.8C492.067 349 479 336.6 469.667 330.6C455.933 321.8 450.467 319 438.2 314.6C425.667 310.067 303 279 298.2 279C296.067 279.133 292.067 280.333 289.4 281.8ZM869.933 370.6C923.533 424.2 924.067 424.733 920.467 433.4C919.533 435.533 914.333 441.667 908.867 447.133L899 457L867.267 425.4C849.933 408.067 834.333 393.267 832.733 392.467C831.133 391.667 827 391 823.4 391C816.2 391 810.733 393.933 806.867 399.8C803.667 404.733 803.533 415.8 806.467 420.333C807.667 422.2 822.6 437.667 839.533 454.6L870.333 485.667L855 501L839.8 516.333L821.667 498.467C806.733 483.533 802.867 480.467 798.6 479.667C783.933 476.867 771.8 489.4 775 503.933C775.933 507.667 779.933 512.6 793.933 526.6L811.667 544.333L796.067 559.933L780.333 575.667L747.4 542.733C710.6 506.2 710.067 505.8 698.333 510.333C688.867 513.933 684.333 522.467 686.333 533.267C687.133 537.667 691.667 542.867 719.8 571L752.333 603.667L737 619L721.667 634.2L704.6 617.4C695.267 608.067 685.933 599.8 683.933 599.133C667.133 592.733 651.4 608.467 657.8 625.267C658.467 627.267 666.733 636.6 676.067 645.933L692.867 663L677.933 678.067L663 693L631.4 661.4C613.933 644.067 598.333 629.267 596.733 628.467C595.133 627.667 591 627 587.4 627C580.2 627 574.733 629.933 570.867 635.8C567.667 640.733 567.533 651.8 570.467 656.333C571.667 658.2 586.6 673.667 603.533 690.6L634.333 721.667L619 737L603.8 752.333L585.667 734.467C570.733 719.533 566.867 716.467 562.6 715.667C547.933 712.867 535.8 725.4 539 739.933C539.933 743.667 543.933 748.6 557.933 762.6L575.667 780.333L560.067 795.933L544.333 811.667L511.4 778.733C474.6 742.2 474.067 741.8 462.333 746.333C452.867 749.933 448.333 758.467 450.333 769.267C451.133 773.667 455.667 778.867 483.8 807L516.333 839.667L501 855L485.667 870.2L468.6 853.4C459.267 844.067 449.933 835.8 447.933 835.133C431.133 828.733 415.4 844.467 421.8 861.267C422.467 863.267 430.733 872.6 440.067 881.933L456.867 899L447 909C441.667 914.467 435.533 919.533 433.4 920.467C424.733 924.067 424.067 923.533 370.733 870.067C337.4 836.6 320.2 818.467 319.533 815.933C319.133 813.933 319.133 810.733 319.533 808.6C320.2 806.2 395.533 729.933 560.733 564.467C692.867 432.333 802.867 322.867 805 321.4C807.933 319.533 810.467 319 814.2 319.533C819 320.067 823.267 324.067 869.933 370.6ZM373.533 338.467C423.267 351.133 432.867 354.333 446.333 363.267C456.333 369.667 479 390.2 479 392.733C479 394.867 394.867 479 392.733 479C390.2 479 369.933 456.467 363.267 446.333C359.933 441.267 355.533 432.867 353.533 427.667C350.733 420.333 327 331.133 327 327.8C327 326.467 326.467 326.467 373.533 338.467ZM543.667 456.333L578.333 491L534.6 534.733L491 578.333L456.067 543.267L421 508.333L464.333 465C488.2 441.133 507.933 421.667 508.333 421.667C508.733 421.667 524.6 437.267 543.667 456.333ZM791.933 704.6C814.867 727.533 833.667 746.867 833.667 747.667C833.667 749.4 749.4 833.667 747.667 833.667C746.867 833.667 727.4 814.733 704.333 791.667L662.333 749.667L705.667 706.333C729.533 682.467 749.267 663 749.667 663C750.067 663 769.133 681.8 791.933 704.6ZM887.133 800.067C913.133 826.467 917.667 833.533 920.6 850.6C925.8 881.533 905.4 912.467 874.867 919.667C863.933 922.2 857.133 922.2 845.667 919.533C832.2 916.467 822.733 909.667 797.667 884.867L775.667 863.133L819 819.667C842.867 795.8 862.733 776.333 863.133 776.333C863.667 776.333 874.467 787 887.133 800.067Z" fill="#7337BF"/>
</g>
<circle cx="620" cy="620" r="610" stroke="#7337BF" stroke-width="20"/>
<defs>
<clipPath id="clip0_9_68">
<rect width="682.667" height="682.667" fill="white" transform="translate(279 279)"/>
</clipPath>
</defs>
</svg>
