<svg width="297" height="62" viewBox="0 0 297 62" fill="none" xmlns="http://www.w3.org/2000/svg">
<path d="M173.422 42.8396C173.422 35.4248 179.189 28.834 187.016 28.834C194.843 28.834 200.61 35.0129 200.61 42.4276C200.61 49.8423 194.843 56.0213 186.604 56.0213C179.189 56.4332 173.422 50.2543 173.422 42.8396ZM196.902 42.8396C196.902 37.0726 192.783 32.5413 187.016 32.5413C181.249 32.5413 177.542 37.0726 177.542 42.8396C177.542 48.6066 181.661 53.1378 187.428 53.1378C193.195 53.1378 196.902 48.1946 196.902 42.8396Z" fill="white"/>
<path d="M228.208 17.7129L239.33 11.1221L237.682 8.23857L225.737 15.2414L232.739 3.29543L229.856 1.64772L222.853 14.0056V0H219.97V14.8294L212.555 2.05964L210.495 3.29543L217.91 16.8891L218.734 17.301H217.91L204.728 9.47435L203.904 11.1221L217.086 18.9487L218.322 19.7726H201.433V21.4203H204.316H218.322H225.737H238.094H240.978V17.7129H228.208Z" fill="white"/>
<path d="M0 20.1846H16.4771C20.5964 20.1846 23.8919 21.4204 25.9515 23.48C27.5992 25.1277 28.4231 27.1874 28.4231 29.6589C28.4231 33.7782 26.3634 35.8378 23.8919 37.4856C28.0111 39.1333 30.4827 41.6049 30.4827 46.1361C30.4827 52.7269 25.1277 56.0223 16.8891 56.0223H0V20.1846ZM20.5964 30.4828C20.5964 28.0112 18.9487 26.7754 15.2414 26.7754H7.41471V34.1901H14.8294C18.5368 34.6021 20.5964 33.3663 20.5964 30.4828ZM16.8891 41.1929H7.82665V49.0196H17.301C20.5964 49.0196 23.068 47.7838 23.068 45.3122C22.6561 42.4287 21.0084 41.1929 16.8891 41.1929Z" fill="white"/>
<path d="M55.6105 46.1368V28.4238H63.4371V43.6652C63.4371 47.3725 65.0848 49.4322 67.9683 49.4322C70.8518 49.4322 72.9115 47.3725 72.9115 43.6652V28.4238H80.7381V46.1368C80.7381 52.3157 74.9711 56.435 67.9683 56.435C60.9655 56.435 55.6105 52.7276 55.6105 46.1368Z" fill="white"/>
<path d="M84.4453 42.4292C84.4453 34.6026 90.6242 28.0117 98.8628 28.0117C104.218 28.0117 107.101 29.6594 109.985 32.5429L105.042 37.4861C103.394 35.8384 101.746 34.6026 98.8628 34.6026C95.1555 34.6026 92.272 37.898 92.272 42.0173C92.272 46.1366 95.1555 49.432 99.2748 49.432C101.746 49.432 103.806 48.1962 105.454 46.5485L109.985 51.0797C107.513 53.9632 104.218 56.0229 98.8628 56.0229C90.6242 56.4348 84.4453 50.2559 84.4453 42.4292Z" fill="white"/>
<path d="M111.633 42.4292C111.633 34.6026 117.4 28.0117 125.227 28.0117C134.289 28.0117 138.409 35.0145 138.409 42.8412C138.409 43.2531 138.409 44.0769 138.409 44.9008H119.46C120.284 48.6082 122.755 50.2559 126.051 50.2559C128.522 50.2559 130.582 49.432 132.642 47.3724L137.173 51.4917C134.701 54.7871 130.994 56.4348 126.051 56.4348C117.812 56.4348 111.633 50.6678 111.633 42.4292ZM130.994 39.9577C130.582 36.6622 128.522 34.1906 125.227 34.1906C121.931 34.1906 119.872 36.6622 119.46 39.9577H130.994Z" fill="white"/>
<path d="M145.822 20.1846H159.416C167.654 20.1846 173.01 24.3039 173.01 31.7186C173.01 39.5452 166.419 43.2526 159.004 43.2526H150.354V56.0223H146.234V20.1846H145.822ZM158.592 39.5452C164.359 39.5452 168.478 36.2498 168.478 31.7186C168.478 26.7754 164.771 23.8919 159.004 23.8919H149.942V39.5452H158.592Z" fill="white"/>
<path d="M201.433 29.6582H205.552L212.555 51.0785L219.558 29.6582H222.853L229.856 51.0785L236.859 29.6582H240.978L231.504 56.4336H228.208L221.205 35.4252L214.203 56.4336H210.907L201.433 29.6582Z" fill="white"/>
<path d="M241.802 42.8396C241.802 35.0129 247.157 28.834 254.572 28.834C262.398 28.834 266.93 35.0129 266.93 42.8396C266.93 43.2515 266.93 43.6634 266.93 44.0753H245.921C246.333 49.8423 250.452 53.1378 255.396 53.1378C259.103 53.1378 261.574 51.4901 263.634 49.4304L266.106 51.4901C263.634 54.3736 260.339 56.4332 255.396 56.4332C247.981 56.4332 241.802 51.0781 241.802 42.8396ZM262.81 41.1918C262.398 36.2487 259.515 32.1294 254.16 32.1294C249.629 32.1294 245.921 35.8368 245.509 41.1918H262.81Z" fill="white"/>
<path d="M271.872 29.658H275.992V35.837C278.051 31.7177 281.759 29.2461 286.702 29.2461V32.9535H286.29C280.523 32.9535 275.58 37.4847 275.58 45.7232V56.0215H271.46V29.658H271.872Z" fill="white"/>
<path d="M290.409 29.6578H289.174V28.834H292.469V29.6578H291.233V32.9533H290.409V29.6578Z" fill="white"/>
<path d="M292.881 28.834H293.704L294.94 30.4817L296.176 28.834H297V32.9533H296.176V30.0698L294.94 31.7175L293.704 30.0698V32.9533H292.881V28.834Z" fill="white"/>
<path d="M34.6021 28.4237H42.4288V32.5429C44.0765 29.2475 46.96 28.0117 51.0793 28.0117V35.4264H50.6673C45.3123 35.4264 42.0168 39.1338 42.0168 45.7246V56.0229H34.1902V28.4237H34.6021Z" fill="white"/>
</svg>
