<svg width="297" height="152" viewBox="0 0 297 152" fill="none" xmlns="http://www.w3.org/2000/svg">
<path d="M140.749 34.4902C145.347 34.4902 149.946 34.4902 154.684 34.4902C155.374 35.4675 156.064 36.4447 156.774 37.4515C157.151 37.975 157.527 38.4979 157.907 39.0193C158.727 40.1515 159.538 41.2905 160.342 42.4344C160.975 43.3333 161.616 44.2258 162.261 45.116C162.994 46.1274 163.72 47.1428 164.439 48.1644C165.528 49.7131 166.637 51.2474 167.749 52.7806C168.947 54.4348 170.141 56.0922 171.316 57.7635C171.949 58.6624 172.591 59.5548 173.236 60.4451C174.056 61.5774 174.867 62.7163 175.671 63.8602C176.304 64.7591 176.945 65.6516 177.59 66.5418C178.41 67.6723 179.219 68.809 180.022 69.9513C180.792 71.0455 181.576 72.1299 182.363 73.2116C182.454 73.3366 182.545 73.4617 182.639 73.5906C182.719 73.7012 182.8 73.8119 182.883 73.926C183.078 74.2064 183.078 74.2064 183.252 74.5547C183.309 61.3335 183.367 48.1122 183.426 34.4902C187.852 34.4902 192.278 34.4902 196.839 34.4902C196.839 55.1844 196.839 75.8786 196.839 97.1999C192.528 97.1999 188.216 97.1999 183.774 97.1999C181.221 93.6641 181.221 93.6641 180.356 92.3769C179.606 91.271 178.837 90.1831 178.041 89.1095C177.361 88.1899 176.701 87.2565 176.043 86.3201C175.41 85.4188 174.765 84.5257 174.117 83.6346C173.333 82.5545 172.57 81.462 171.82 80.3576C171.07 79.2521 170.302 78.1642 169.506 77.0906C168.549 75.797 167.628 74.4781 166.703 73.1612C165.645 71.6558 164.583 70.1543 163.503 68.6648C162.595 67.4131 161.705 66.1494 160.821 64.8807C160.146 63.9137 159.461 62.9555 158.767 62.0019C157.875 60.7756 157.011 59.5319 156.163 58.2751C156.075 58.1464 155.988 58.0178 155.899 57.8852C155.824 57.7738 155.749 57.6624 155.671 57.5477C155.24 56.9357 154.785 56.3408 154.336 55.7418C154.278 69.423 154.221 83.1042 154.161 97.1999C149.735 97.1999 145.309 97.1999 140.749 97.1999C140.749 76.5057 140.749 55.8115 140.749 34.4902Z" fill="white"/>
<path d="M53.7498 64.7891C54.0971 64.79 54.4445 64.7908 54.7919 64.7915C55.6312 64.7934 56.4705 64.7964 57.3098 64.8C57.3423 65.0105 57.3423 65.0105 57.3753 65.2251C57.4049 65.4109 57.4345 65.5967 57.465 65.788C57.4938 65.9714 57.5226 66.1548 57.5522 66.3438C57.8315 67.7842 58.4506 68.9215 59.4002 70.0258C59.4835 70.1296 59.5668 70.2333 59.6526 70.3402C60.9385 71.7977 62.8503 72.545 64.743 72.7626C65.1486 72.8129 65.1486 72.8129 65.4969 72.9871C65.4969 93.4514 65.4969 113.916 65.4969 135C63.1401 135 60.7833 135 58.355 135C58.3198 131.837 58.4416 128.687 58.5685 125.527C58.631 123.969 58.6904 122.411 58.7497 120.852C58.7555 120.7 58.7613 120.548 58.7672 120.391C58.8595 117.963 58.9415 115.535 58.9973 113.106C59.0006 112.971 59.0038 112.836 59.0072 112.697C59.0562 110.609 59.0575 108.521 59.0518 106.432C55.5205 107.004 52.0065 107.65 48.4981 108.349C48.3027 108.388 48.1073 108.427 47.906 108.467C46.4896 108.749 45.0735 109.033 43.6574 109.317C34.4584 111.162 34.4584 111.162 31.4353 111.685C31.1353 111.737 31.1353 111.737 30.8293 111.789C30.1169 111.909 29.4665 112.006 28.7421 112.006C29.2196 110.266 29.8863 108.602 30.5385 106.922C30.6532 106.625 30.7678 106.328 30.8824 106.03C31.7631 103.75 31.7631 103.75 32.1874 102.703C32.2355 102.584 32.2836 102.466 32.3332 102.343C32.4621 102.026 32.5921 101.709 32.7221 101.392C33.0952 100.399 33.2746 99.583 32.8574 98.5827C32.0549 97.2015 30.5856 96.307 29.328 95.3785C28.5362 94.7869 27.7757 94.1568 27.011 93.5309C26.263 92.9194 25.5088 92.3174 24.7465 91.7238C23.6852 90.8961 22.6457 90.0435 21.6086 89.1857C20.8172 88.5312 20.0204 87.8844 19.2166 87.2451C18.4374 86.6224 17.6681 85.9876 16.8969 85.3549C16.5776 85.0935 16.2583 84.8322 15.9389 84.571C15.3002 84.0484 14.6615 83.5258 14.0227 83.0033C13.7866 82.8103 13.7866 82.8103 13.5458 82.6134C13.2191 82.3459 12.893 82.0777 12.5673 81.8091C11.0246 80.4136 11.0246 80.4136 9.23242 79.4323C15.4271 73.4723 23.3434 69.9118 31.5292 67.5871C31.7043 67.5371 31.8794 67.4871 32.0599 67.4356C39.0963 65.4626 46.4643 64.7567 53.7498 64.7891Z" fill="white"/>
<path d="M65.1484 0C65.2634 0 65.3783 0 65.4968 0C65.4968 18.6248 65.4968 37.2495 65.4968 56.4387C64.692 56.6112 63.8872 56.7836 63.0581 56.9613C62.4896 57.1754 62.0129 57.3703 61.4903 57.6581C61.3601 57.7292 61.2298 57.8004 61.0957 57.8738C59.219 59.0068 58.1017 60.8096 57.5611 62.9129C57.5356 63.0183 57.5101 63.1237 57.4839 63.2323C57.355 63.2315 57.2262 63.2307 57.0935 63.2299C55.8543 63.2228 54.6151 63.2176 53.3759 63.2142C52.7394 63.2124 52.103 63.21 51.4665 63.206C47.2214 63.1798 43.0047 63.319 38.7907 63.8855C38.5696 63.9148 38.3485 63.9442 38.1207 63.9744C29.8757 65.0983 21.8267 67.333 14.4581 71.2452C14.3449 71.305 14.2317 71.3648 14.115 71.4265C11.6527 72.7396 9.36438 74.2791 7.21636 76.0612C6.50022 76.6452 6.50022 76.6452 5.92258 76.6452C5.68695 76.3576 5.45538 76.0666 5.22581 75.7742C4.86018 75.4689 4.49527 75.1782 4.11532 74.8923C3.20657 74.1921 2.31281 73.4779 1.4371 72.7367C1.33327 72.6503 1.22945 72.564 1.12248 72.475C0.612542 72.0401 0.274201 71.6795 0 71.071C0.206583 70.9951 0.413165 70.9192 0.626008 70.841C1.21598 70.6241 1.80563 70.4065 2.39516 70.1884C2.95667 69.9809 3.51894 69.776 4.08266 69.5747C6.65008 68.7845 6.65008 68.7845 8.53548 67.0645C8.89927 65.7101 8.47274 64.5072 8.11089 63.1887C8.04185 62.9299 7.97305 62.671 7.90446 62.4121C7.74614 61.8163 7.58616 61.221 7.42526 60.626C7.1298 59.5318 6.8395 58.4362 6.54944 57.3406C6.04433 55.4332 5.53787 53.5261 5.02848 51.6198C4.97282 51.4112 4.91717 51.2026 4.85982 50.9876C4.57849 49.9381 4.29069 48.8909 3.99165 47.8462C3.93397 47.6442 3.87629 47.4421 3.81687 47.2339C3.70704 46.8511 3.5961 46.4685 3.48391 46.0863C3.43542 45.9174 3.38694 45.7485 3.33698 45.5745C3.29371 45.4264 3.25045 45.2784 3.20587 45.1258C3.13548 44.7677 3.13548 44.7677 3.30968 44.4194C4.72097 44.7183 6.13216 45.0179 7.54326 45.3178C8.03667 45.4226 8.5301 45.5274 9.02354 45.6321C13.8519 46.6568 13.8519 46.6568 15.7577 47.0996C15.883 47.1286 16.0083 47.1576 16.1373 47.1875C16.6722 47.3119 17.2064 47.4387 17.7399 47.5692C19.4595 47.9756 21.3061 48.3527 23.0167 47.7603C23.8419 47.2389 24.1523 46.4847 24.4306 45.5843C24.504 45.3531 24.5775 45.122 24.6511 44.8909C24.6914 44.7624 24.7317 44.6338 24.7732 44.5014C25.0427 43.6512 25.3251 42.8052 25.6065 41.9589C25.6662 41.7787 25.726 41.5986 25.7876 41.4129C26.2143 40.1354 26.6671 38.874 27.1742 37.6258C27.8691 37.7175 28.1328 38.0288 28.5786 38.5512C29.0956 39.1472 29.6155 39.737 30.1531 40.3143C30.8378 41.0502 31.4978 41.7955 32.1278 42.5794C32.7142 43.3084 33.3288 43.9983 33.9677 44.6806C34.7444 45.51 35.4724 46.3642 36.1839 47.2507C36.6187 47.7749 37.075 48.2759 37.5387 48.7742C38.2752 49.5666 38.9692 50.3846 39.6501 51.2251C41.69 53.8844 41.69 53.8844 44.4194 55.7419C44.971 55.7711 44.971 55.7711 45.4645 55.7419C46.2822 54.2747 45.6486 52.4705 45.3162 50.9278C45.2615 50.6685 45.2068 50.4093 45.1523 50.15C44.4323 46.7454 43.669 43.35 42.91 39.9541C42.6998 39.0131 42.4902 38.0719 42.2806 37.1308C42.1954 36.7479 42.1101 36.3649 42.0248 35.982C41.9825 35.792 41.9402 35.602 41.8966 35.4063C41.7685 34.8312 41.6404 34.2562 41.5122 33.6812C40.7507 30.2643 39.9919 26.8468 39.2361 23.4286C39.1065 22.8426 38.9767 22.2565 38.8467 21.6705C38.6961 20.9913 38.5458 20.312 38.3957 19.6326C38.3412 19.386 38.2866 19.1393 38.2318 18.8928C38.1579 18.5599 38.0844 18.2269 38.011 17.8939C37.9494 17.6157 37.9494 17.6157 37.8866 17.3318C37.8 16.8968 37.8 16.8968 37.8 16.5484C38.8428 16.8325 39.7229 17.3633 40.6524 17.8984C40.8278 17.9984 41.0031 18.0984 41.1838 18.2015C42.6222 19.024 44.0534 19.859 45.4836 20.6956C46.6831 21.3972 47.8847 22.0949 49.0899 22.7867C49.2439 22.8755 49.3978 22.9643 49.5564 23.0558C49.6982 23.137 49.84 23.2182 49.9861 23.3018C50.11 23.3729 50.2339 23.4441 50.3615 23.5174C51.1402 23.927 51.9222 24.0506 52.7806 23.8645C53.0352 23.6178 53.0352 23.6178 53.2114 23.2766C53.284 23.1495 53.3566 23.0225 53.4315 22.8915C53.8207 22.1478 54.1803 21.3924 54.5335 20.631C55.4296 18.7295 56.3889 16.8675 57.3692 15.0084C57.8493 14.0937 58.3227 13.1757 58.7965 12.2577C59.629 10.6449 60.4642 9.03346 61.3052 7.425C62.5964 4.95526 63.8718 2.47732 65.1484 0Z" fill="white"/>
<path d="M285.677 37.1033C285.788 37.1639 285.899 37.2245 286.013 37.287C287.585 38.1535 288.958 39.1497 290.291 40.3503C290.546 40.5797 290.806 40.8044 291.066 41.0288C292.188 42.0117 293.131 43.0638 294.039 44.2453C294.235 44.4959 294.235 44.4959 294.435 44.7515C295.366 45.9605 296.324 47.2262 297 48.6001C296.826 49.1227 296.826 49.1227 296.528 49.3205C296.334 49.4138 296.334 49.4138 296.136 49.5089C295.989 49.5806 295.842 49.6522 295.691 49.726C295.531 49.8022 295.37 49.8784 295.204 49.9569C295.038 50.0375 294.872 50.1181 294.7 50.2012C294.165 50.4603 293.628 50.717 293.091 50.9735C292.567 51.226 292.043 51.479 291.52 51.7321C291.175 51.8983 290.83 52.0642 290.486 52.2297C289.67 52.6219 288.857 53.0184 288.049 53.4284C287.905 53.5018 287.76 53.5753 287.611 53.6509C287.341 53.7884 287.072 53.9267 286.803 54.0661C285.908 54.5227 285.908 54.5227 285.329 54.5227C285.074 54.1642 284.853 53.8127 284.632 53.434C282.114 49.3303 278.211 47.0381 273.64 45.8464C269.056 44.9102 263.967 46.0813 260.076 48.5845C257.232 50.5936 255.186 53.004 253.626 56.0904C253.527 56.2856 253.428 56.4807 253.326 56.6817C250.885 61.931 250.838 68.3938 252.803 73.7915C254.67 78.6623 257.996 82.4438 262.772 84.6109C267.051 86.4651 272.108 86.7493 276.491 85.0801C280.314 83.5363 283.497 80.8985 285.329 77.1679C286.211 77.4351 287.01 77.8058 287.834 78.213C288.043 78.3155 288.043 78.3155 288.257 78.4201C288.707 78.6408 289.157 78.8623 289.608 79.084C290.221 79.3855 290.835 79.6866 291.449 79.9876C291.599 80.0611 291.749 80.1345 291.903 80.2102C292.74 80.6195 293.578 81.0218 294.423 81.4138C294.595 81.4935 294.766 81.5733 294.943 81.6554C295.246 81.7953 295.55 81.9337 295.854 82.0705C296.185 82.2231 296.506 82.3936 296.826 82.5679C296.883 82.7403 296.941 82.9128 297 83.0904C296.794 83.4836 296.583 83.8346 296.336 84.2009C296.265 84.3085 296.194 84.4162 296.12 84.527C294.927 86.3106 293.599 87.9769 292.122 89.5356C291.969 89.7002 291.816 89.8648 291.658 90.0344C287.5 94.4068 282.112 96.7344 276.271 97.8969C276.143 97.9225 276.016 97.9481 275.885 97.9745C271.976 98.7085 267.435 98.4899 263.555 97.7227C263.405 97.6937 263.256 97.6648 263.102 97.6349C256.87 96.3859 251.468 93.5105 246.832 89.1872C246.694 89.061 246.557 88.9348 246.415 88.8048C244.219 86.7113 242.508 84.1889 241.084 81.5227C241 81.3661 241 81.3661 240.914 81.2064C236.821 73.4188 236.444 63.8092 238.924 55.4774C241.387 47.5866 246.834 41.1016 254.137 37.234C257.545 35.4846 261.153 34.3182 264.948 33.7937C265.091 33.7738 265.234 33.7539 265.381 33.7334C272.277 32.8185 279.548 33.6889 285.677 37.1033Z" fill="white"/>
<path d="M123.805 41.2131C126.006 43.2689 128.627 46.0307 129.6 48.9485C128.407 49.5471 127.213 50.1453 126.02 50.743C125.466 51.0207 124.911 51.2985 124.357 51.5766C123.821 51.8457 123.284 52.1145 122.747 52.383C122.446 52.5338 122.146 52.6848 121.845 52.836C121.296 53.1105 120.745 53.3822 120.194 53.6517C120.013 53.7405 119.832 53.8292 119.646 53.9207C119.475 54.0022 119.304 54.0837 119.128 54.1677C118.976 54.2405 118.825 54.3133 118.669 54.3883C118.277 54.5227 118.277 54.5227 117.755 54.3485C117.504 53.9919 117.504 53.9919 117.232 53.5211C114.942 49.8268 111.449 47.1993 107.205 46.1274C102.378 45.0026 97.4353 45.6729 93.1583 48.2291C88.7302 51.012 85.7945 55.4343 84.5662 60.4738C84.2343 61.9578 84.0316 63.4553 83.9613 64.9743C83.9541 65.1061 83.9469 65.2379 83.9395 65.3737C83.8453 68.7931 84.5594 72.348 86.0516 75.4259C86.1007 75.5282 86.1499 75.6305 86.2005 75.7359C86.9666 77.3107 87.8469 78.6376 89.0129 79.9549C89.1088 80.0757 89.2047 80.1965 89.3034 80.321C91.443 82.973 94.6923 84.583 97.8968 85.5291C98.098 85.5886 98.2991 85.6481 98.5064 85.7094C102.952 86.7956 107.838 86.0595 111.778 83.7654C113.112 82.953 114.222 81.9337 115.316 80.8259C115.436 80.706 115.555 80.5861 115.679 80.4625C116.596 79.4814 117.253 78.3205 117.929 77.1678C118.998 77.4747 119.966 77.9813 120.958 78.4723C121.246 78.6134 121.246 78.6134 121.539 78.7574C122.15 79.058 122.761 79.3595 123.373 79.661C123.781 79.8619 124.19 80.0627 124.598 80.2635C126.268 81.0847 127.937 81.9079 129.6 82.742C129.124 83.7457 128.59 84.6477 127.945 85.5509C127.854 85.6787 127.763 85.8065 127.67 85.9381C126.758 87.2012 125.772 88.3852 124.723 89.5356C124.517 89.7626 124.517 89.7626 124.308 89.9942C122.282 92.1271 119.843 93.7808 117.232 95.1098C117.126 95.1649 117.02 95.2201 116.91 95.2769C109.352 99.1626 99.7916 99.1469 91.8 96.6775C87.4696 95.2125 83.5251 92.9897 80.1596 89.8819C79.8555 89.604 79.5485 89.3441 79.2254 89.0892C78.5845 88.5337 78.0558 87.9239 77.5161 87.2711C77.3032 87.0188 77.3032 87.0188 77.0861 86.7614C74.0432 83.0805 72.0904 78.8083 70.8968 74.2065C70.8392 74.0001 70.8392 74.0001 70.7804 73.7894C70.1792 71.5921 70.1792 71.5921 70.6171 70.8132C70.973 70.4723 70.973 70.4723 71.3724 70.1647C72.6398 69.1613 73.1991 67.3738 73.5097 65.8453C73.757 63.5936 73.2815 61.6189 71.9208 59.8036C71.5836 59.3715 71.5836 59.3715 71.1009 58.9217C70.6662 58.2706 70.6662 58.2706 70.779 57.6514C70.852 57.3833 70.9316 57.117 71.0165 56.8525C71.059 56.7084 71.1015 56.5642 71.1453 56.4157C73.6365 48.2546 78.8367 41.4645 86.3959 37.4238C87.0853 37.0657 87.7848 36.7316 88.4903 36.4066C88.6615 36.3268 88.6615 36.3268 88.8361 36.2454C100.153 31.0478 114.606 32.7439 123.805 41.2131Z" fill="white"/>
<path d="M53.7498 64.789C54.0972 64.7899 54.4445 64.7907 54.7919 64.7914C55.6312 64.7933 56.4706 64.7963 57.3099 64.7999C57.3315 64.9402 57.3531 65.0805 57.3754 65.225C57.405 65.4108 57.4345 65.5965 57.465 65.7879C57.4938 65.9713 57.5226 66.1547 57.5523 66.3437C57.8316 67.7841 58.4506 68.9213 59.4002 70.0257C59.4835 70.1295 59.5668 70.2332 59.6526 70.3401C60.9385 71.7976 62.8503 72.5448 64.743 72.7625C65.1486 72.8128 65.1486 72.8128 65.497 72.987C65.497 80.7473 65.497 88.5076 65.497 96.5031C57.7174 95.3918 49.5819 91.7867 42.5034 88.4902C42.232 88.364 42.232 88.364 41.9551 88.2353C37.6108 86.2052 33.3724 83.9976 29.2647 81.5225C29.0298 81.3814 29.0298 81.3814 28.7901 81.2376C25.7442 79.4022 22.8047 77.4158 19.9345 75.3168C19.7987 75.2179 19.6629 75.119 19.5231 75.0172C18.8225 74.4988 18.1904 73.971 17.5938 73.3354C25.9034 67.8255 37.0343 65.6457 46.8583 64.9741C47.0642 64.9588 47.2701 64.9436 47.4823 64.9279C49.5719 64.7822 51.656 64.7797 53.7498 64.789Z" fill="white"/>
<path d="M65.1482 0C65.2632 0 65.3781 0 65.4966 0C65.4966 18.6248 65.4966 37.2495 65.4966 56.4387C64.6918 56.6112 63.887 56.7836 63.0579 56.9613C62.0921 57.3355 61.283 57.7531 60.445 58.3548C60.33 58.2974 60.215 58.2399 60.0966 58.1806C60.1541 58.0657 60.2115 57.9507 60.2708 57.8323C60.1327 57.793 59.9946 57.7537 59.8523 57.7132C59.0423 57.4168 58.3138 57.0186 57.5599 56.602C57.3946 56.511 57.2293 56.42 57.059 56.3263C53.474 54.339 49.978 52.262 46.6031 49.9331C46.1456 49.6211 46.1456 49.6212 45.5476 49.353C45.0405 49.0621 44.9523 48.9715 44.6959 48.4108C44.6512 48.1961 44.6065 47.9814 44.5605 47.7602C44.5203 47.5784 44.5203 47.5784 44.4794 47.3929C44.3899 46.9823 44.3077 46.5706 44.2252 46.1586C44.1613 45.859 44.0968 45.5595 44.0318 45.2602C43.8878 44.5935 43.7467 43.9263 43.6072 43.2587C43.361 42.0857 43.1021 40.9156 42.8416 39.7457C42.747 39.3205 42.6524 38.8952 42.5579 38.47C42.51 38.255 42.4622 38.0401 42.413 37.8186C42.1662 36.7063 41.9217 35.5936 41.6773 34.4808C41.6034 34.1444 41.6034 34.1444 41.528 33.8012C41.453 33.4597 41.378 33.1182 41.303 32.7767C40.9757 31.2862 40.6478 29.7958 40.32 28.3055C40.0844 27.2345 39.8489 26.1635 39.6137 25.0925C39.5273 24.6993 39.4409 24.3062 39.3545 23.913C39.2923 23.6299 39.2923 23.6299 39.2289 23.3411C39.004 22.3179 38.7771 21.2952 38.548 20.273C38.4994 20.0559 38.4509 19.8388 38.4008 19.6151C38.3071 19.1965 38.213 18.778 38.1186 18.3595C38.0768 18.1728 38.035 17.9862 37.992 17.7938C37.9362 17.546 37.9362 17.546 37.8793 17.2932C37.7998 16.8968 37.7998 16.8968 37.7998 16.5484C38.8426 16.8325 39.7227 17.3633 40.6522 17.8984C40.8276 17.9984 41.0029 18.0984 41.1836 18.2015C42.622 19.024 44.0532 19.859 45.4834 20.6956C46.6829 21.3972 47.8845 22.0949 49.0897 22.7867C49.2437 22.8755 49.3976 22.9643 49.5563 23.0559C49.698 23.137 49.8398 23.2182 49.9859 23.3018C50.1717 23.4085 50.1717 23.4085 50.3613 23.5174C51.14 23.927 51.922 24.0506 52.7804 23.8645C53.035 23.6178 53.035 23.6178 53.2112 23.2766C53.2838 23.1495 53.3565 23.0225 53.4313 22.8915C53.8205 22.1478 54.1801 21.3924 54.5333 20.631C55.4294 18.7295 56.3887 16.8675 57.369 15.0084C57.8491 14.0937 58.3225 13.1757 58.7963 12.2577C59.6288 10.6449 60.464 9.03347 61.305 7.425C62.5963 4.95526 63.8716 2.47732 65.1482 0Z" fill="white"/>
<path d="M211.819 34.4902C216.246 34.4902 220.672 34.4902 225.232 34.4902C225.232 55.1844 225.232 75.8786 225.232 97.1999C220.806 97.1999 216.38 97.1999 211.819 97.1999C211.819 76.5057 211.819 55.8115 211.819 34.4902Z" fill="white"/>
<path d="M41.458 32.9226C43.6214 33.027 45.751 33.3283 47.8923 33.6412C48.0769 33.668 48.2615 33.6948 48.4517 33.7224C51.3635 34.1487 54.216 34.6786 57.0718 35.3906C57.657 35.5353 58.2436 35.6726 58.8311 35.8077C59.2058 35.8947 59.5805 35.9818 59.9552 36.069C60.1131 36.1054 60.2711 36.1418 60.4338 36.1793C62.1492 36.5886 63.7977 37.1161 65.4967 37.6258C65.4967 43.8341 65.4967 50.0423 65.4967 56.4387C64.6919 56.6112 63.8872 56.7836 63.058 56.9613C62.0922 57.3356 61.2832 57.7532 60.4451 58.3549C60.3301 58.2974 60.2152 58.2399 60.0967 58.1807C60.1542 58.0657 60.2117 57.9507 60.2709 57.8323C60.1328 57.793 59.9947 57.7537 59.8524 57.7132C59.0424 57.4168 58.3139 57.0186 57.56 56.602C57.3947 56.511 57.2294 56.42 57.0591 56.3263C53.4741 54.339 49.9781 52.262 46.6033 49.9331C46.1928 49.6515 46.1928 49.6515 45.8507 49.4985C45.2187 49.191 44.9865 49.0485 44.6899 48.3839C44.6372 48.1572 44.5899 47.9292 44.5472 47.7005C44.5193 47.5742 44.4914 47.4479 44.4627 47.3178C44.3708 46.8969 44.2862 46.4749 44.2016 46.0524C44.1382 45.7555 44.0744 45.4587 44.0101 45.1619C43.8706 44.5153 43.734 43.8682 43.5991 43.2206C43.3588 42.0733 43.1041 40.9294 42.8482 39.7856C42.153 36.6702 42.153 36.6702 41.822 35.1626C41.7851 34.9964 41.7482 34.8301 41.7101 34.6588C41.6601 34.4298 41.6601 34.4298 41.609 34.1962C41.5651 33.9966 41.5651 33.9966 41.5202 33.793C41.458 33.4452 41.458 33.4452 41.458 32.9226Z" fill="white"/>
<path d="M78.5615 124.2C81.1744 124.2 81.1744 124.2 81.8072 124.738C82.0326 125.094 82.0326 125.094 82.2414 125.485C82.4074 125.755 82.5739 126.024 82.7408 126.294C82.8245 126.435 82.9082 126.576 82.9944 126.722C83.4629 127.483 83.9984 128.195 84.5277 128.914C84.8582 129.37 85.1887 129.827 85.5293 130.297C85.5867 128.285 85.6442 126.273 85.7035 124.2C86.5082 124.2 87.313 124.2 88.1422 124.2C88.1422 127.764 88.1422 131.328 88.1422 135C85.8777 135 85.8777 135 85.2789 134.507C85.1222 134.281 84.9737 134.049 84.8325 133.813C84.7089 133.629 84.7089 133.629 84.5829 133.441C84.406 133.177 84.2323 132.91 84.0617 132.641C83.7725 132.19 83.4711 131.749 83.1654 131.309C82.4918 130.34 81.8293 129.363 81.1744 128.381C81.1169 130.565 81.0595 132.749 81.0002 135C80.1955 135 79.3907 135 78.5615 135C78.5615 131.436 78.5615 127.872 78.5615 124.2Z" fill="white"/>
<path d="M8.88387 66.0193C9.73615 66.736 10.5575 67.4817 11.3734 68.2391C12.1292 68.9349 12.9179 69.5751 13.73 70.2047C14.0989 70.5386 14.2758 70.7875 14.4581 71.2451C14.2892 71.336 14.1203 71.427 13.9464 71.5207C11.5501 72.829 9.31864 74.317 7.21636 76.0612C6.50022 76.6451 6.50022 76.6451 5.92258 76.6451C5.68695 76.3575 5.45538 76.0666 5.22581 75.7741C4.86018 75.4688 4.49527 75.1782 4.11532 74.8923C3.20657 74.1921 2.31281 73.4779 1.4371 72.7366C1.33327 72.6503 1.22945 72.5639 1.12248 72.475C0.612542 72.04 0.274201 71.6794 0 71.0709C0.206583 70.995 0.413165 70.9191 0.626008 70.8409C1.21598 70.6241 1.80563 70.4064 2.39516 70.1884C2.95667 69.9809 3.51894 69.776 4.08266 69.5746C6.62182 68.7675 6.62182 68.7675 8.53548 67.0644C8.66152 66.7195 8.77982 66.3715 8.88387 66.0193Z" fill="white"/>
<path d="M203.155 124.785C203.827 125.267 204.398 125.767 204.852 126.464C204.916 126.561 204.981 126.658 205.048 126.757C205.786 128.075 205.763 129.705 205.548 131.168C205.147 132.481 204.469 133.58 203.284 134.303C202.512 134.713 201.722 135.086 200.845 135.174C200.739 135.185 200.633 135.196 200.524 135.207C198.947 135.296 197.366 134.854 196.142 133.846C194.971 132.695 194.389 131.287 194.356 129.654C194.375 128.112 194.835 126.736 195.931 125.626C197.883 123.817 200.813 123.377 203.155 124.785ZM197.616 127.264C196.837 128.29 196.85 129.405 197.013 130.645C197.234 131.501 197.628 132.042 198.341 132.561C199.161 133.014 199.93 133.048 200.845 132.91C201.749 132.603 202.208 132.11 202.761 131.342C203.274 130.264 203.287 129.109 202.925 127.978C202.422 127.28 201.794 126.678 201.019 126.29C199.624 126.149 198.609 126.236 197.616 127.264Z" fill="white"/>
<path d="M181.762 124.806C182.999 125.7 183.717 126.737 184.123 128.206C184.296 130.134 184.134 131.652 183.056 133.302C181.762 134.539 180.329 135.154 178.548 135.218C176.976 135.165 175.691 134.733 174.551 133.625C173.275 132.226 172.915 130.967 172.938 129.1C173.034 127.668 173.505 126.43 174.542 125.419C176.659 123.847 179.425 123.395 181.762 124.806ZM176.066 127.39C175.429 128.368 175.346 129.266 175.493 130.396C175.723 131.433 176.269 132.145 177.155 132.735C177.998 133.017 178.929 133.08 179.78 132.784C180.645 132.32 181.159 131.738 181.553 130.852C181.831 129.671 181.789 128.566 181.161 127.51C180.59 126.9 179.995 126.327 179.139 126.249C177.747 126.216 177.058 126.37 176.066 127.39Z" fill="white"/>
<path d="M143.536 124.2C144.958 124.184 144.958 124.184 146.41 124.167C146.706 124.163 147.003 124.158 147.308 124.153C147.548 124.151 147.787 124.15 148.027 124.149C148.208 124.145 148.208 124.145 148.392 124.141C149.421 124.14 150.38 124.346 151.204 125.004C151.995 125.998 152.334 126.872 152.3 128.153C152.17 129.107 151.73 129.839 151.004 130.46C150.503 130.819 150.503 130.819 150.155 130.994C150.218 131.096 150.282 131.199 150.347 131.305C150.633 131.77 150.916 132.237 151.2 132.703C151.3 132.865 151.4 133.026 151.502 133.193C151.597 133.349 151.691 133.504 151.788 133.664C151.876 133.808 151.963 133.951 152.053 134.098C152.245 134.477 152.245 134.477 152.245 135C151.326 135 150.406 135 149.458 135C149.138 134.427 148.819 133.854 148.5 133.28C148.409 133.117 148.317 132.953 148.223 132.785C148.094 132.551 148.094 132.551 147.961 132.312C147.881 132.168 147.801 132.024 147.718 131.875C147.542 131.516 147.542 131.516 147.542 131.168C147.025 131.168 146.507 131.168 145.974 131.168C145.974 132.432 145.974 133.697 145.974 135C145.17 135 144.365 135 143.536 135C143.536 131.436 143.536 127.872 143.536 124.2ZM145.974 126.29C145.974 127.21 145.974 128.13 145.974 129.077C146.416 129.092 146.858 129.106 147.313 129.121C147.451 129.127 147.589 129.134 147.73 129.14C148.393 129.151 148.699 129.117 149.277 128.753C149.693 128.317 149.807 128.111 149.807 127.51C149.599 127.04 149.424 126.736 149 126.441C148.415 126.228 147.85 126.254 147.237 126.269C146.612 126.279 146.612 126.279 145.974 126.29Z" fill="white"/>
<path d="M135.174 124.2C136.209 124.2 137.244 124.2 138.31 124.2C138.807 125.479 139.304 126.759 139.8 128.039C140.03 128.633 140.261 129.227 140.492 129.821C140.715 130.395 140.937 130.968 141.159 131.542C141.285 131.867 141.412 132.192 141.538 132.516C141.615 132.715 141.692 132.914 141.771 133.119C141.838 133.293 141.906 133.468 141.976 133.647C142.142 134.129 142.142 134.129 142.316 135C141.454 135 140.592 135 139.703 135C139.474 134.425 139.244 133.85 139.007 133.258C136.765 133.172 136.765 133.172 134.478 133.084C134.305 133.659 134.133 134.233 133.955 134.826C133.781 135 133.781 135 133.192 135.017C132.949 135.016 132.706 135.014 132.464 135.011C132.278 135.01 132.278 135.01 132.088 135.008C131.781 135.006 131.475 135.003 131.168 135C131.282 134.337 131.471 133.745 131.714 133.119C131.79 132.92 131.867 132.721 131.946 132.516C132.029 132.304 132.112 132.091 132.197 131.872C132.283 131.651 132.369 131.429 132.454 131.208C132.679 130.627 132.905 130.047 133.131 129.466C133.361 128.873 133.591 128.28 133.821 127.687C134.271 126.524 134.723 125.362 135.174 124.2ZM136.568 126.813C136.335 127.444 136.103 128.076 135.871 128.707C135.805 128.887 135.738 129.067 135.67 129.252C135.607 129.424 135.544 129.596 135.479 129.773C135.421 129.932 135.362 130.09 135.302 130.254C135.156 130.632 135.156 130.632 135.174 130.993C136.209 130.993 137.244 130.993 138.31 130.993C137.902 129.577 137.421 128.197 136.916 126.813C136.801 126.813 136.686 126.813 136.568 126.813Z" fill="white"/>
<path d="M122.632 124.2C125.162 124.2 127.691 124.2 130.297 124.2C130.297 124.89 130.297 125.58 130.297 126.29C128.572 126.29 126.848 126.29 125.071 126.29C125.071 126.98 125.071 127.67 125.071 128.381C126.738 128.381 128.405 128.381 130.123 128.381C130.123 129.07 130.123 129.76 130.123 130.471C128.456 130.471 126.789 130.471 125.071 130.471C125.071 131.218 125.071 131.965 125.071 132.735C126.796 132.735 128.52 132.735 130.297 132.735C130.297 133.483 130.297 134.23 130.297 135C127.768 135 125.238 135 122.632 135C122.632 131.436 122.632 127.872 122.632 124.2Z" fill="white"/>
<path d="M170.819 125.017C171.016 125.149 171.213 125.282 171.407 125.419C171.148 126.219 170.736 126.715 170.187 127.335C170.097 127.289 170.008 127.242 169.915 127.194C168.254 126.368 168.254 126.368 166.453 126.454C166.306 126.515 166.158 126.576 166.007 126.639C165.949 126.926 165.892 127.214 165.832 127.51C166.6 127.927 167.324 128.167 168.173 128.37C169.422 128.687 170.599 129.036 171.427 130.105C171.797 130.986 171.7 131.981 171.581 132.91C171.152 133.83 170.5 134.414 169.588 134.858C167.861 135.406 166.132 135.263 164.439 134.652C163.882 134.343 163.373 133.998 162.871 133.606C162.963 132.934 163.119 132.57 163.579 132.071C163.674 131.966 163.77 131.861 163.868 131.752C163.978 131.635 163.978 131.635 164.09 131.516C164.21 131.59 164.33 131.663 164.453 131.739C164.61 131.834 164.767 131.929 164.929 132.028C165.162 132.17 165.162 132.17 165.4 132.316C166.089 132.707 166.619 132.763 167.4 132.768C167.583 132.771 167.767 132.773 167.955 132.776C168.481 132.772 168.481 132.772 168.968 132.387C169.084 131.959 169.084 131.959 168.968 131.516C168.24 130.959 167.434 130.802 166.562 130.591C165.293 130.261 164.11 129.923 163.365 128.761C163.063 127.972 163.13 127.118 163.219 126.29C163.716 125.26 164.447 124.649 165.506 124.244C167.354 123.686 169.193 124.011 170.819 125.017Z" fill="white"/>
<path d="M90.5804 124.2C91.3852 124.2 92.19 124.2 93.0191 124.2C93.0217 124.406 93.0242 124.611 93.0268 124.823C93.037 125.589 93.0504 126.354 93.0648 127.119C93.0706 127.45 93.0755 127.781 93.0795 128.112C93.0853 128.588 93.0945 129.065 93.1042 129.541C93.1053 129.688 93.1064 129.835 93.1076 129.987C93.129 130.855 93.2399 131.459 93.7159 132.213C94.3553 132.777 94.9592 132.817 95.7804 132.784C96.3177 132.714 96.619 132.572 97.0256 132.213C97.5909 131.318 97.6295 130.567 97.6373 129.541C97.6404 129.388 97.6436 129.235 97.6468 129.077C97.6562 128.591 97.6621 128.105 97.6679 127.618C97.6737 127.288 97.6797 126.957 97.686 126.626C97.7007 125.817 97.7124 125.009 97.7224 124.2C98.5271 124.2 99.3319 124.2 100.161 124.2C100.174 125.238 100.184 126.276 100.19 127.314C100.192 127.667 100.196 128.019 100.2 128.372C100.207 128.881 100.21 129.39 100.212 129.899C100.215 130.054 100.217 130.21 100.22 130.371C100.221 131.608 99.9801 132.657 99.3663 133.737C98.1246 134.883 96.6436 135.228 94.9979 135.2C93.7096 135.119 92.6323 134.783 91.6256 133.955C90.6402 132.736 90.5297 131.593 90.5464 130.086C90.5469 129.917 90.5474 129.749 90.5479 129.575C90.5498 129.039 90.5542 128.503 90.5586 127.967C90.5604 127.602 90.562 127.238 90.5634 126.873C90.5672 125.982 90.5733 125.091 90.5804 124.2Z" fill="white"/>
<path d="M217.916 124.2C220.388 124.2 222.86 124.2 225.406 124.2C225.406 124.89 225.406 125.58 225.406 126.29C223.682 126.29 221.957 126.29 220.181 126.29C220.181 126.98 220.181 127.67 220.181 128.381C221.905 128.381 223.63 128.381 225.406 128.381C225.406 129.07 225.406 129.76 225.406 130.471C223.682 130.471 221.957 130.471 220.181 130.471C220.181 131.218 220.181 131.965 220.181 132.735C221.905 132.735 223.63 132.735 225.406 132.735C225.406 133.483 225.406 134.23 225.406 135C222.935 135 220.463 135 217.916 135C217.916 131.436 217.916 127.872 217.916 124.2Z" fill="white"/>
<path d="M207.464 124.2C208.887 124.184 208.887 124.184 210.339 124.167C210.635 124.163 210.932 124.158 211.237 124.153C211.476 124.151 211.716 124.15 211.955 124.149C212.136 124.145 212.136 124.145 212.321 124.141C213.35 124.14 214.309 124.346 215.133 125.004C215.924 125.998 216.263 126.872 216.228 128.153C216.102 129.082 215.669 129.826 214.976 130.449C213.869 131.202 212.873 131.213 211.58 131.19C211.026 131.182 210.473 131.175 209.903 131.168C209.903 132.432 209.903 133.697 209.903 135C209.098 135 208.294 135 207.464 135C207.464 131.436 207.464 127.872 207.464 124.2ZM209.903 126.29C209.903 127.21 209.903 128.13 209.903 129.077C210.345 129.092 210.787 129.106 211.242 129.121C211.38 129.127 211.517 129.134 211.659 129.14C212.322 129.151 212.628 129.117 213.205 128.753C213.622 128.317 213.735 128.111 213.735 127.51C213.528 127.04 213.353 126.736 212.929 126.441C212.344 126.228 211.779 126.254 211.166 126.269C210.541 126.279 210.541 126.279 209.903 126.29Z" fill="white"/>
<path d="M111.125 125.049C111.554 125.492 111.882 125.925 112.181 126.464C112.006 126.987 112.006 126.987 111.709 127.197C111.588 127.257 111.467 127.317 111.342 127.379C111.223 127.441 111.103 127.503 110.98 127.567C110.538 127.708 110.344 127.679 109.916 127.51C109.632 127.308 109.632 127.308 109.372 127.074C108.631 126.43 108.192 126.404 107.234 126.416C106.506 126.494 106.147 126.716 105.561 127.161C104.844 128.067 104.62 128.758 104.643 129.91C104.749 130.781 105.055 131.535 105.682 132.157C106.458 132.713 107.17 132.86 108.117 132.81C109.071 132.635 109.6 132.006 110.264 131.342C110.897 131.629 111.529 131.917 112.181 132.213C111.968 133.276 111.606 133.64 110.787 134.303C109.364 135.215 107.815 135.354 106.171 135.054C104.615 134.665 103.522 133.674 102.6 132.387C101.846 131.038 101.863 129.307 102.204 127.835C102.789 126.089 103.773 125.196 105.387 124.374C107.315 123.589 109.403 123.95 111.125 125.049Z" fill="white"/>
<path d="M114.097 140.4C115.664 140.4 115.664 140.4 116.03 140.654C116.11 140.773 116.189 140.891 116.271 141.014C116.365 141.147 116.458 141.28 116.554 141.418C116.649 141.563 116.743 141.709 116.84 141.859C117.05 142.162 117.259 142.466 117.468 142.769C117.573 142.925 117.678 143.081 117.786 143.242C118.284 143.977 118.81 144.691 119.333 145.408C119.513 145.657 119.693 145.907 119.873 146.157C119.948 146.26 120.023 146.364 120.1 146.471C120.48 147.002 120.859 147.533 121.239 148.065C121.296 145.535 121.354 143.006 121.413 140.4C121.93 140.4 122.448 140.4 122.981 140.4C122.981 143.907 122.981 147.413 122.981 151.026C121.413 151.026 121.413 151.026 120.864 150.502C120.697 150.266 120.535 150.027 120.379 149.785C120.291 149.658 120.203 149.532 120.112 149.401C119.931 149.141 119.753 148.879 119.576 148.616C119.21 148.071 118.825 147.541 118.441 147.008C118.157 146.61 117.873 146.211 117.581 145.8C116.632 144.507 116.632 144.507 115.664 143.187C115.607 145.774 115.549 148.361 115.49 151.026C115.03 151.026 114.57 151.026 114.097 151.026C114.097 147.519 114.097 144.013 114.097 140.4Z" fill="white"/>
<path d="M149.98 108.174C151.548 108.174 151.548 108.174 152.079 108.674C152.241 108.903 152.398 109.136 152.55 109.372C152.636 109.496 152.722 109.62 152.811 109.748C152.995 110.013 153.177 110.279 153.357 110.547C153.736 111.105 154.134 111.649 154.532 112.194C155.412 113.397 156.267 114.617 157.122 115.839C157.18 113.309 157.237 110.78 157.297 108.174C157.814 108.174 158.331 108.174 158.864 108.174C158.864 111.681 158.864 115.187 158.864 118.8C157.297 118.8 157.297 118.8 156.949 118.565C156.878 118.454 156.807 118.344 156.734 118.23C156.649 118.106 156.565 117.981 156.477 117.853C156.392 117.716 156.307 117.58 156.219 117.439C156.026 117.151 155.833 116.864 155.639 116.576C155.54 116.426 155.442 116.277 155.34 116.122C154.831 115.366 154.283 114.641 153.737 113.912C153.54 113.649 153.345 113.385 153.149 113.122C153.067 113.011 152.985 112.901 152.9 112.787C152.434 112.131 151.995 111.457 151.548 110.787C151.491 113.431 151.433 116.076 151.374 118.8C150.914 118.8 150.454 118.8 149.98 118.8C149.98 115.293 149.98 111.787 149.98 108.174Z" fill="white"/>
<path d="M100.684 108.174C102.426 108.174 102.426 108.174 103.006 108.744C103.181 109.004 103.351 109.268 103.515 109.535C103.706 109.822 103.897 110.11 104.089 110.397C104.187 110.546 104.284 110.696 104.385 110.851C104.894 111.616 105.447 112.348 105.997 113.084C106.195 113.352 106.393 113.619 106.59 113.887C106.674 113.999 106.757 114.111 106.842 114.227C107.233 114.761 107.616 115.3 108 115.839C108.058 113.309 108.115 110.78 108.174 108.174C108.634 108.174 109.094 108.174 109.568 108.174C109.568 111.681 109.568 115.187 109.568 118.8C108.174 118.8 108.174 118.8 107.731 118.409C107.604 118.225 107.477 118.042 107.347 117.853C107.275 117.752 107.204 117.652 107.13 117.548C106.975 117.329 106.822 117.108 106.672 116.887C106.427 116.527 106.176 116.172 105.924 115.818C105.589 115.346 105.256 114.873 104.925 114.398C104.107 113.242 103.264 112.103 102.426 110.961C102.369 113.548 102.311 116.135 102.252 118.8C101.734 118.8 101.217 118.8 100.684 118.8C100.684 115.293 100.684 111.787 100.684 108.174Z" fill="white"/>
<path d="M97.5171 140.681C98.8932 141.556 99.7126 142.73 100.089 144.31C100.36 145.971 100.131 147.482 99.3448 148.968C98.485 150.014 97.5261 150.956 96.1549 151.2C94.3165 151.365 92.7321 151.235 91.223 150.111C89.999 148.859 89.489 147.518 89.4702 145.756C89.495 144.19 89.8179 142.702 90.9413 141.545C92.8007 140.031 95.3122 139.623 97.5171 140.681ZM92.3444 142.371C91.1484 143.883 90.9911 144.941 91.1033 146.845C91.299 147.973 91.9201 148.797 92.8452 149.458C93.8911 149.985 94.8069 150.061 95.9358 149.771C96.9907 149.399 97.7076 148.748 98.2296 147.767C98.7895 146.49 98.7806 145.151 98.3323 143.84C97.8447 142.773 97.1577 142.038 96.0481 141.623C94.6726 141.301 93.4565 141.476 92.3444 142.371Z" fill="white"/>
<path d="M123.329 108.174C129.508 108.174 129.508 108.174 131.215 109.753C132.352 111.029 132.493 112.552 132.458 114.192C132.377 115.55 131.757 116.723 130.787 117.668C128.288 119.306 126.499 118.8 123.329 118.8C123.329 115.293 123.329 111.787 123.329 108.174ZM124.723 109.394C124.723 112.038 124.723 114.682 124.723 117.406C127.572 117.626 127.572 117.626 129.778 116.399C129.856 116.301 129.934 116.202 130.014 116.1C130.094 116.001 130.175 115.902 130.257 115.801C130.936 114.815 131.103 113.775 130.924 112.594C130.595 111.326 130.014 110.45 128.892 109.764C127.458 109.214 126.38 109.394 124.723 109.394Z" fill="white"/>
<path d="M93.4557 108.157C93.7194 108.16 93.7194 108.16 93.9885 108.163C94.1647 108.165 94.341 108.166 94.5226 108.168C94.6589 108.17 94.7952 108.172 94.9356 108.174C94.9752 108.272 95.0147 108.37 95.0554 108.471C95.4708 109.5 95.8863 110.529 96.3018 111.557C96.4565 111.94 96.611 112.323 96.7656 112.706C96.989 113.259 97.2126 113.813 97.4363 114.366C97.5381 114.619 97.5381 114.619 97.642 114.876C98.0689 115.932 98.5063 116.983 98.9542 118.031C99.1163 118.452 99.1163 118.452 99.1163 118.8C98.5414 118.8 97.9666 118.8 97.3744 118.8C96.9432 117.765 96.9432 117.765 96.5034 116.71C93.9166 116.623 93.9166 116.623 91.2776 116.536C91.1051 117.11 90.9327 117.685 90.755 118.277C90.64 118.45 90.5251 118.622 90.4066 118.8C90.0296 118.851 90.0296 118.851 89.601 118.833C89.4586 118.828 89.3162 118.823 89.1696 118.818C89.0604 118.812 88.9513 118.806 88.8389 118.8C88.9507 118.146 89.1355 117.569 89.3819 116.953C89.458 116.762 89.5342 116.571 89.6126 116.374C89.695 116.17 89.7774 115.965 89.8623 115.754C89.9467 115.543 90.0311 115.332 90.118 115.115C90.2962 114.67 90.4749 114.225 90.654 113.78C90.8838 113.208 91.1126 112.637 91.341 112.065C91.5589 111.52 91.7775 110.975 91.9961 110.431C92.0785 110.225 92.1609 110.019 92.2458 109.807C92.3219 109.618 92.3981 109.429 92.4765 109.234C92.5437 109.067 92.6109 108.899 92.6801 108.727C92.9196 108.178 92.9196 108.178 93.4557 108.157ZM93.8905 109.742C93.6202 110.399 93.3505 111.056 93.0814 111.713C92.9898 111.937 92.8981 112.16 92.8062 112.383C92.6738 112.705 92.5422 113.027 92.4105 113.348C92.2915 113.638 92.2915 113.638 92.17 113.934C91.9536 114.469 91.9536 114.469 91.8002 115.142C93.1798 115.142 94.5594 115.142 95.9808 115.142C95.575 113.769 95.575 113.769 95.1023 112.43C95.0412 112.27 94.98 112.111 94.9169 111.947C94.8548 111.787 94.7928 111.627 94.7288 111.462C94.6647 111.296 94.6006 111.129 94.5345 110.957C94.3785 110.552 94.2219 110.147 94.0647 109.742C94.0072 109.742 93.9497 109.742 93.8905 109.742Z" fill="white"/>
<path d="M142.142 108.174C142.774 108.174 143.407 108.174 144.058 108.174C145.207 110.881 146.344 113.592 147.422 116.329C147.505 116.537 147.587 116.745 147.672 116.96C147.747 117.152 147.822 117.343 147.899 117.54C147.965 117.709 148.031 117.877 148.099 118.05C148.239 118.452 148.239 118.452 148.239 118.8C147.721 118.8 147.204 118.8 146.671 118.8C146.249 117.996 145.981 117.438 145.8 116.535C144.018 116.535 142.236 116.535 140.4 116.535C140.314 116.967 140.314 116.967 140.226 117.406C140.067 117.878 139.884 118.336 139.703 118.8C139.129 118.8 138.554 118.8 137.961 118.8C138.358 117.371 138.888 116.028 139.464 114.663C139.557 114.441 139.649 114.219 139.742 113.998C139.882 113.661 140.023 113.325 140.164 112.989C140.612 111.92 141.051 110.848 141.489 109.775C141.555 109.612 141.622 109.448 141.691 109.28C141.841 108.912 141.992 108.543 142.142 108.174ZM143.013 109.742C142.715 110.483 142.417 111.224 142.12 111.965C142.019 112.217 141.917 112.47 141.816 112.722C141.67 113.084 141.525 113.446 141.38 113.808C141.334 113.921 141.289 114.034 141.241 114.151C141.018 114.632 141.018 114.632 140.923 115.142C142.36 115.142 143.797 115.142 145.278 115.142C145.012 114.429 144.746 113.715 144.478 113.003C144.387 112.76 144.297 112.518 144.206 112.275C144.077 111.926 143.946 111.578 143.815 111.229C143.736 111.02 143.658 110.81 143.577 110.594C143.394 110.079 143.394 110.079 143.013 109.742Z" fill="white"/>
<path d="M115.49 108.174C116.123 108.174 116.755 108.174 117.406 108.174C118.555 110.881 119.692 113.592 120.77 116.329C120.853 116.537 120.935 116.745 121.02 116.96C121.095 117.152 121.17 117.343 121.247 117.54C121.313 117.709 121.379 117.877 121.447 118.05C121.587 118.452 121.587 118.452 121.587 118.8C121.07 118.8 120.552 118.8 120.019 118.8C119.597 117.996 119.329 117.438 119.148 116.535C117.366 116.535 115.584 116.535 113.748 116.535C113.662 116.967 113.662 116.967 113.574 117.406C113.415 117.878 113.232 118.336 113.052 118.8C112.477 118.8 111.902 118.8 111.31 118.8C111.704 117.574 112.158 116.381 112.639 115.186C112.715 114.996 112.792 114.806 112.87 114.61C113.03 114.21 113.19 113.811 113.35 113.412C113.597 112.799 113.842 112.186 114.088 111.573C114.244 111.184 114.399 110.795 114.555 110.407C114.629 110.223 114.703 110.039 114.779 109.85C114.847 109.68 114.915 109.511 114.985 109.337C115.045 109.188 115.105 109.038 115.166 108.885C115.316 108.523 115.316 108.523 115.49 108.174ZM116.361 109.742C116.063 110.483 115.765 111.224 115.468 111.965C115.367 112.217 115.265 112.47 115.164 112.722C115.018 113.084 114.873 113.446 114.728 113.808C114.682 113.921 114.637 114.034 114.59 114.151C114.366 114.632 114.366 114.632 114.271 115.142C115.708 115.142 117.145 115.142 118.626 115.142C118.36 114.429 118.094 113.715 117.826 113.003C117.735 112.76 117.645 112.518 117.555 112.275C117.425 111.926 117.294 111.578 117.163 111.229C117.084 111.02 117.006 110.81 116.925 110.594C116.742 110.079 116.742 110.079 116.361 109.742Z" fill="white"/>
<path d="M184.994 124.2C187.81 124.2 190.627 124.2 193.529 124.2C193.529 124.89 193.529 125.58 193.529 126.29C192.552 126.29 191.575 126.29 190.568 126.29C190.568 129.164 190.568 132.039 190.568 135C189.763 135 188.958 135 188.129 135C188.129 132.126 188.129 129.252 188.129 126.29C187.094 126.29 186.06 126.29 184.994 126.29C184.994 125.6 184.994 124.911 184.994 124.2Z" fill="white"/>
<path d="M102.426 140.4C102.943 140.4 103.461 140.4 103.994 140.4C103.995 140.614 103.997 140.829 103.998 141.05C104.005 141.849 104.017 142.649 104.03 143.449C104.035 143.795 104.038 144.14 104.041 144.485C104.045 144.983 104.053 145.481 104.062 145.98C104.062 146.133 104.062 146.285 104.062 146.443C104.086 147.465 104.284 148.256 104.865 149.11C105.508 149.649 106.124 149.764 106.955 149.806C107.735 149.725 108.233 149.551 108.849 149.055C109.612 148.09 109.625 147.217 109.64 146.031C109.643 145.87 109.647 145.708 109.65 145.542C109.66 145.029 109.669 144.517 109.677 144.004C109.683 143.655 109.69 143.307 109.697 142.958C109.714 142.105 109.728 141.253 109.742 140.4C110.259 140.4 110.777 140.4 111.31 140.4C111.318 141.392 111.325 142.383 111.329 143.375C111.331 143.712 111.333 144.049 111.336 144.385C111.34 144.872 111.342 145.358 111.344 145.844C111.345 145.993 111.347 146.142 111.349 146.295C111.349 147.659 111.166 149.071 110.265 150.155C108.811 151.312 107.357 151.299 105.561 151.2C104.512 151.037 103.917 150.514 103.217 149.74C102.496 148.515 102.349 147.205 102.375 145.81C102.376 145.653 102.376 145.497 102.377 145.337C102.38 144.845 102.386 144.354 102.393 143.862C102.396 143.526 102.398 143.19 102.4 142.854C102.406 142.036 102.415 141.218 102.426 140.4Z" fill="white"/>
<path d="M113.922 124.2C114.727 124.2 115.532 124.2 116.361 124.2C116.361 127.017 116.361 129.833 116.361 132.735C117.798 132.735 119.235 132.735 120.716 132.735C120.716 133.483 120.716 134.23 120.716 135C118.474 135 116.232 135 113.922 135C113.922 131.436 113.922 127.872 113.922 124.2Z" fill="white"/>
<path d="M86.0627 108.272C86.8123 108.674 87.4508 109.241 87.968 109.916C87.968 110.031 87.968 110.146 87.968 110.265C87.2712 110.787 87.2712 110.787 86.7595 110.787C86.4002 110.613 86.4002 110.613 85.9103 110.188C85.148 109.531 84.3582 109.348 83.3627 109.404C82.2853 109.561 81.5094 110.095 80.7607 110.863C80.0205 112.031 79.978 113.277 80.1293 114.619C80.5066 115.866 81.1003 116.59 82.2196 117.232C83.1814 117.553 84.3209 117.621 85.2673 117.224C85.7588 116.917 86.1648 116.597 86.5744 116.187C87.1739 116.249 87.4574 116.369 87.968 116.71C87.5347 117.684 86.7457 118.34 85.7797 118.778C84.3093 119.255 82.6113 119.162 81.2173 118.507C79.8748 117.718 78.9555 116.66 78.4547 115.173C78.1997 113.736 78.1597 111.905 78.9099 110.613C80.5639 108.354 83.3289 107.164 86.0627 108.272Z" fill="white"/>
<path d="M134.118 141.26C134.509 141.651 134.665 141.966 134.826 142.49C134.054 143.026 134.054 143.026 133.552 142.958C133.455 142.919 133.358 142.879 133.258 142.839C133.258 142.724 133.258 142.609 133.258 142.49C131.962 141.829 130.988 141.482 129.527 141.819C128.581 142.132 127.959 142.605 127.444 143.459C126.857 144.701 126.751 146.117 127.194 147.433C127.582 148.329 128.284 148.918 129.077 149.458C130.165 149.866 131.09 149.848 132.18 149.471C132.699 149.216 133.033 148.824 133.432 148.413C134.054 148.428 134.302 148.586 134.826 148.935C134.598 149.654 134.363 149.962 133.726 150.362C133.594 150.447 133.462 150.532 133.325 150.62C131.96 151.382 130.432 151.425 128.917 151.086C127.499 150.573 126.47 149.721 125.779 148.38C125.071 146.858 124.992 145.186 125.506 143.579C126.082 142.19 127.027 141.129 128.405 140.514C130.413 139.806 132.379 140.113 134.118 141.26Z" fill="white"/>
<path d="M86.1602 140.596C86.8766 141.021 87.4308 141.506 87.9675 142.142C87.9675 142.257 87.9675 142.372 87.9675 142.49C87.2707 143.013 87.2707 143.013 86.759 143.013C86.3998 142.839 86.3998 142.839 85.9098 142.414C85.1476 141.757 84.3578 141.574 83.3623 141.63C82.3475 141.782 81.5384 142.201 80.8997 143.014C80.0978 144.261 79.983 145.373 80.1288 146.845C80.4377 147.874 80.9365 148.734 81.8687 149.3C82.8435 149.739 83.7483 149.928 84.7885 149.621C85.31 149.419 85.6824 149.181 86.0949 148.805C86.574 148.413 86.574 148.413 87.0421 148.424C87.4449 148.587 87.4449 148.587 87.9675 148.936C87.5336 149.916 86.7684 150.447 85.8772 151.004C84.5618 151.504 82.671 151.415 81.3699 150.892C79.9496 150.067 78.9614 148.969 78.4617 147.405C78.1515 145.806 78.2348 144.076 79.0836 142.665C80.6925 140.425 83.5642 139.369 86.1602 140.596Z" fill="white"/>
<path d="M158.69 124.2C159.495 124.2 160.3 124.2 161.129 124.2C161.129 127.764 161.129 131.328 161.129 135C160.324 135 159.52 135 158.69 135C158.69 131.436 158.69 127.872 158.69 124.2Z" fill="white"/>
<path d="M141.097 140.4C141.557 140.4 142.016 140.4 142.49 140.4C142.49 143.447 142.49 146.493 142.49 149.632C144.157 149.632 145.824 149.632 147.542 149.632C147.542 150.092 147.542 150.552 147.542 151.026C145.415 151.026 143.288 151.026 141.097 151.026C141.097 147.519 141.097 144.013 141.097 140.4Z" fill="white"/>
<path d="M136.916 140.4C137.376 140.4 137.836 140.4 138.31 140.4C138.31 143.907 138.31 147.413 138.31 151.026C137.85 151.026 137.39 151.026 136.916 151.026C136.916 147.519 136.916 144.013 136.916 140.4Z" fill="white"/>
<path d="M134.826 108.174C135.286 108.174 135.745 108.174 136.219 108.174C136.219 111.681 136.219 115.187 136.219 118.8C135.759 118.8 135.299 118.8 134.826 118.8C134.826 115.293 134.826 111.787 134.826 108.174Z" fill="white"/>
</svg>
