<svg width="234" height="96" viewBox="0 0 234 96" fill="none" xmlns="http://www.w3.org/2000/svg">
<path fill-rule="evenodd" clip-rule="evenodd" d="M220.159 63.7763C222.882 63.7763 225.163 64.686 226.996 66.5267C228.812 68.3442 229.72 70.6476 229.72 73.3961L229.509 75.4285H214.229C214.441 76.8028 215.117 78.0028 216.276 79.0093C217.416 80.0159 218.787 80.521 220.352 80.521C221.491 80.521 222.554 80.2675 223.56 79.7449C224.543 79.2223 225.241 78.719 225.646 78.2351L226.262 77.4802L228.908 80.132C228.831 80.2288 228.715 80.3836 228.543 80.5772C228.389 80.7707 228.02 81.0998 227.479 81.545C226.94 82.0114 226.361 82.4179 225.741 82.7644C225.142 83.1128 224.352 83.4418 223.365 83.7515C222.399 84.0419 221.395 84.1967 220.352 84.1967C217.592 84.1967 215.195 83.1709 213.186 81.1385C211.177 79.0868 210.173 76.6499 210.173 73.7852C210.173 71.0347 211.16 68.6733 213.109 66.7183C215.059 64.7634 217.416 63.7763 220.159 63.7763ZM160.436 63.7763C162.831 63.7763 164.782 64.4924 166.308 65.9054C167.834 67.3184 168.589 69.0604 168.589 71.1315V83.7902H164.511V81.7579L164.474 81.7954L164.378 81.8917C164.34 81.9298 164.296 81.9747 164.243 82.0289C164.125 82.145 163.874 82.3386 163.488 82.6095C163.123 82.8805 162.696 83.1322 162.271 83.3451C161.828 83.558 161.286 83.7709 160.612 83.947C159.953 84.0999 159.277 84.1967 158.603 84.1967C156.611 84.1967 154.97 83.616 153.656 82.4566C152.343 81.3127 151.688 79.9771 151.688 78.4867C151.688 76.8802 152.188 75.5446 153.214 74.4413C154.216 73.3574 155.607 72.6606 157.365 72.3703L164.511 71.1315C164.511 70.1056 164.125 69.2346 163.372 68.5184C162.599 67.8216 161.633 67.4732 160.436 67.4732C159.393 67.4732 158.466 67.6861 157.616 68.112C156.785 68.5572 156.206 68.983 155.877 69.4301L155.337 70.125L152.69 67.4732C152.768 67.3571 152.885 67.2216 153.019 67.0668C153.173 66.8926 153.482 66.6022 153.965 66.1764C154.448 65.7699 154.95 65.3828 155.51 65.0537C156.051 64.7247 156.766 64.4344 157.654 64.1634C158.562 63.9117 159.491 63.7763 160.436 63.7763ZM140.927 63.7763C143.651 63.7763 145.94 64.6957 147.765 66.5267C151.027 69.794 150.556 75.4285 150.556 75.4285H134.998C135.21 76.8028 135.886 78.0028 137.045 79.0093C138.185 80.0159 139.556 80.521 141.12 80.521C142.279 80.521 143.342 80.2675 144.327 79.7449C145.312 79.2223 146.007 78.719 146.413 78.2351L147.031 77.4802L149.679 80.132C149.6 80.2288 149.484 80.3836 149.31 80.5772C149.156 80.7707 148.791 81.0998 148.248 81.545C147.707 82.0114 147.128 82.4179 146.531 82.7644C145.911 83.1128 145.119 83.4418 144.134 83.7515C143.168 84.0419 142.163 84.1967 141.12 84.1967C138.358 84.1967 135.963 83.1709 133.954 81.1385C131.946 79.0868 130.941 76.6499 130.941 73.7852C130.941 71.0347 131.926 68.6733 133.877 66.7183C135.83 64.7634 138.185 63.7763 140.927 63.7763ZM178.281 60.4374L178.293 64.957L181.943 64.9512V68.6191H178.281V78.0357C178.281 78.7655 178.513 79.3636 178.977 79.83C179.442 80.2946 179.732 80.4397 180.311 80.5268C180.893 80.6159 181.876 80.2888 182.061 80.2075L182.359 80.1281V83.7961C181.551 84.0632 180.595 84.1948 179.494 84.1948C175.687 84.1948 173.792 82.1547 173.806 78.0745V68.6191H170.097V64.9512L174.219 64.957L174.213 60.4374H178.281ZM109.125 63.7821C110.651 63.7821 112.07 64.1092 113.384 64.7673C114.697 65.4254 115.638 66.0815 116.208 66.7319L117.065 67.6687L114.419 70.3205C114.286 70.1076 114.083 69.8443 113.811 69.5327C113.54 69.2211 112.949 68.7972 112.039 68.2668C111.132 67.7345 110.162 67.4694 109.125 67.4694C107.467 67.4694 106.032 68.1004 104.819 69.3624C103.606 70.6263 103 72.1709 103 73.9981C103 75.8253 103.606 77.3718 104.819 78.6338C106.032 79.8958 107.467 80.5268 109.125 80.5268C110.162 80.5268 111.132 80.2675 112.039 79.7507C112.949 79.2319 113.602 78.7267 114 78.2351L114.616 77.4764L117.262 80.1281C117.183 80.2346 117.065 80.3836 116.905 80.5772C116.746 80.7688 116.401 81.0959 115.871 81.5546C115.34 82.0134 114.782 82.4179 114.199 82.7702C113.615 83.1225 112.86 83.4476 111.931 83.7477C111.002 84.0457 110.069 84.1948 109.125 84.1948C106.382 84.1948 103.996 83.1825 101.974 81.1559C99.9518 79.1293 98.9397 76.7428 98.9397 73.9981C98.9397 71.2534 99.9518 68.8649 101.974 66.8306C103.996 64.7982 106.382 63.7821 109.125 63.7821ZM231.396 82.3347L231.908 83.016L232.416 82.3347H232.66V83.7961H232.395V82.8205L231.908 83.4554L231.419 82.8205V83.7961H231.151V82.3347H231.396ZM230.863 82.3347V82.5786H230.423V83.7961H230.158V82.5786H229.72V82.3347H230.863ZM189.057 64.1982V83.7961H184.98V64.1982H189.057ZM195.358 64.2001L201.067 78.4945L206.777 64.2001H211.055L203.097 83.7961H199.037L191.079 64.2001H195.358ZM130.54 63.7821V67.6687C129.997 67.5371 129.386 67.4694 128.71 67.4694C127.157 67.4694 125.923 67.9707 125 68.9753C124.079 69.9779 123.617 71.3831 123.617 73.191V83.7961H119.539V64.2001H123.617V66.2325L123.876 65.9731C123.996 65.8551 124.249 65.6576 124.633 65.3867C125.017 65.1137 125.425 64.8679 125.856 64.6473C126.286 64.4286 126.837 64.2292 127.507 64.0511C128.177 63.8711 128.849 63.7821 129.525 63.7821H130.54ZM164.511 74.4026L158.197 75.4285C157.461 75.564 156.862 75.8543 156.418 76.3189C155.974 76.7834 155.742 77.3641 155.742 78.0803C155.742 78.719 156.051 79.2997 156.689 79.7836C157.309 80.2868 158.157 80.521 159.219 80.521C160.88 80.521 162.174 80.0371 163.123 79.0481C164.048 78.0628 164.511 76.6499 164.511 74.8091V74.4026ZM220.139 67.2603C218.671 67.2603 217.437 67.7055 216.431 68.5765C215.428 69.4475 214.75 70.5702 214.403 71.9444H225.723C225.492 70.5702 224.872 69.4475 223.887 68.5765C222.882 67.7055 221.646 67.2603 220.139 67.2603ZM140.908 67.2603C139.442 67.2603 138.204 67.7055 137.201 68.5765C136.195 69.4475 135.519 70.5702 135.193 71.9444H146.509C146.258 70.5702 145.642 69.4475 144.655 68.5765C143.651 67.7055 142.415 67.2603 140.908 67.2603ZM170.107 37.2974C172.481 37.2974 174.453 38.0155 175.958 39.4285C177.483 40.8415 178.256 42.5816 178.256 44.6526V57.3114H174.181V55.279C174.123 55.3371 174.026 55.4145 173.91 55.5306C173.775 55.6661 173.524 55.8597 173.157 56.1307C172.772 56.4036 172.367 56.6533 171.921 56.8662C171.496 57.0791 170.936 57.2727 170.281 57.4469C169.624 57.6211 168.946 57.7179 168.272 57.7179C166.281 57.7179 164.619 57.1372 163.306 55.9758C161.994 54.8145 161.338 53.5002 161.338 52.0098C161.338 50.4013 161.857 49.0464 162.864 47.9625C163.885 46.8786 165.278 46.1817 167.034 45.8914L174.181 44.6526C174.181 43.6268 173.794 42.7383 173.041 42.0396C172.268 41.3428 171.283 40.9944 170.107 40.9944C169.064 40.9944 168.135 41.2073 167.287 41.6331C166.435 42.0589 165.858 42.5041 165.547 42.93L165.006 43.6461L162.36 40.9944C162.437 40.8802 162.555 40.7427 162.688 40.5685C162.823 40.4137 163.132 40.1234 163.615 39.6975C164.117 39.2717 164.619 38.9059 165.16 38.5749C165.701 38.2458 166.435 37.9381 167.324 37.6845C168.212 37.4329 169.141 37.2974 170.107 37.2974ZM124.444 37.2974C127.186 37.2974 129.468 38.2071 131.301 40.0459C133.116 41.8654 134.024 44.1494 134.024 46.8979L133.947 48.9496H118.535C118.746 50.3239 119.422 51.5259 120.581 52.5324C121.72 53.5389 123.092 54.0402 124.656 54.0402C125.796 54.0402 126.858 53.7886 127.864 53.266C128.848 52.7434 129.545 52.2401 129.95 51.7562L130.567 51.0033L133.213 53.6531C133.136 53.7499 133.022 53.9067 132.848 54.0983C132.672 54.2919 132.324 54.6209 131.783 55.0661C131.245 55.5306 130.663 55.9371 130.045 56.2875C129.446 56.6339 128.656 56.963 127.669 57.2553C126.704 57.563 125.699 57.7179 124.656 57.7179C121.896 57.7179 119.501 56.692 117.49 54.6596C115.481 52.6079 114.477 50.1691 114.477 47.3044C114.477 44.5559 115.464 42.1944 117.413 40.2395C119.364 38.2845 121.72 37.2974 124.444 37.2974ZM196.457 37.7174V41.3854L185.673 53.6454H196.874V57.3133H180.582V53.6454L191.365 41.3854H180.98V37.7174H196.457ZM160.735 37.2974V41.186C160.192 41.0524 159.58 40.9866 158.906 40.9866C157.353 40.9866 156.119 41.4879 155.196 42.4925C154.272 43.4951 153.813 44.9004 153.813 46.7082V57.3133H149.735V37.7174H153.813V39.7498L154.071 39.4904C154.189 39.3723 154.442 39.1749 154.829 38.9039C155.213 38.631 155.62 38.3833 156.049 38.1645C156.482 37.9458 157.032 37.7464 157.703 37.5684C158.373 37.3884 159.045 37.2974 159.721 37.2974H160.735ZM147.462 37.2974V41.186C146.919 41.0524 146.307 40.9866 145.633 40.9866C144.08 40.9866 142.843 41.4879 141.922 42.4925C140.999 43.4951 140.539 44.9004 140.539 46.7082V57.3133H136.462V37.7174H140.539V39.7498L140.798 39.4904C140.916 39.3723 141.169 39.1749 141.553 38.9039C141.939 38.631 142.347 38.3833 142.776 38.1645C143.208 37.9458 143.759 37.7464 144.429 37.5684C145.097 37.3884 145.772 37.2974 146.448 37.2974H147.462ZM110.716 28.3279C111.207 28.3279 111.692 28.3608 112.169 28.4266C112.646 28.4924 112.99 28.5659 113.202 28.6453L113.581 28.7266V32.4139C112.903 32.1487 112.221 32.0094 111.531 31.9958C110.828 31.9958 110.245 32.2281 109.779 32.6926C109.316 33.1572 109.084 33.7553 109.084 34.4869V37.7174H113.581V41.3854H109.084V57.3133H105.026V41.3854H102.161V37.7174H105.026V34.4463C105.026 30.366 106.923 28.3279 110.716 28.3279ZM174.181 47.9238L167.845 48.9496C167.111 49.0677 166.532 49.3755 166.089 49.84C165.624 50.3046 165.411 50.8852 165.411 51.582C165.411 52.2401 165.72 52.8208 166.358 53.3047C166.978 53.7886 167.826 54.0402 168.888 54.0402C170.549 54.0402 171.843 53.5563 172.772 52.5498C173.717 51.5646 174.181 50.1516 174.181 48.3303V47.9238ZM124.444 40.7815C122.976 40.7815 121.741 41.2266 120.735 42.0977C119.733 42.9687 119.055 44.0913 118.707 45.4656H130.028C129.796 44.0913 129.176 42.9687 128.193 42.0977C127.186 41.2266 125.95 40.7815 124.444 40.7815Z" fill="white"/>
<mask id="mask0_2_8" style="mask-type:alpha" maskUnits="userSpaceOnUse" x="0" y="0" width="74" height="96">
<path d="M0.0397339 0H73.9409V95.7597H0.0397339V0Z" fill="white"/>
</mask>
<g mask="url(#mask0_2_8)">
<path fill-rule="evenodd" clip-rule="evenodd" d="M65.2335 86.8111H64.8092V85.2545L64.0326 86.266L63.2559 85.2545V86.8111H62.8282V84.4728H63.2183L64.0326 85.5665L64.8503 84.4728H65.2335V86.8111ZM62.3663 84.8671H61.665V86.8111H61.2407V84.8671H60.5393V84.4728H62.3663V84.8671ZM59.2016 82.3197C58.2436 83.1425 57.2856 83.8625 56.225 84.4797C55.1986 85.0968 53.8642 85.6797 52.222 86.2282C50.5797 86.7425 48.9374 87.0168 47.261 87.0168C42.4026 87.0168 38.1601 85.234 34.5676 81.634C31.0094 78.034 29.1961 73.8168 29.1961 68.9482C29.1961 64.0797 31.0094 59.8625 34.5676 56.2625C38.1601 52.6625 42.4026 50.8454 47.261 50.8454C49.9638 50.8454 52.4649 51.4282 54.788 52.594C57.1145 53.7597 58.791 54.9254 59.7832 56.0911L61.3228 57.7368L56.6355 62.434C56.396 62.0568 56.0231 61.5768 55.5407 61.0282C55.0617 60.4797 54.0387 59.7254 52.4272 58.7997C50.8192 57.8397 49.0743 57.394 47.261 57.394C44.3186 57.394 41.7867 58.4911 39.6347 60.754C37.4758 62.9825 36.4152 65.7254 36.4152 68.9482C36.4152 72.1711 37.4758 74.914 39.6347 77.1425C41.7867 79.4054 44.3186 80.5025 47.261 80.5025C49.0743 80.5025 50.8192 80.0568 52.4272 79.1311C54.0387 78.2054 55.1678 77.314 55.8863 76.4568L56.9777 75.1197L61.665 79.8168C61.5281 79.9882 61.3228 80.2625 61.0183 80.6054C60.7446 80.9482 60.1253 81.5311 59.2016 82.3197ZM28.5939 42.7197C27.3656 42.2397 26.1647 41.9997 24.933 41.9654C23.7013 41.9654 22.6783 42.3768 21.8538 43.1997C21.0327 44.0225 20.6221 45.0854 20.6221 46.3882V52.114H28.5939V58.594H20.6221V86.8111H13.4372V58.594H8.33933V52.114H13.4372V46.3197C13.4372 39.0854 16.7901 35.4854 23.496 35.4854C24.389 35.4854 25.2444 35.5197 26.0621 35.6568C26.9174 35.7597 27.5333 35.8968 27.9096 36.034L28.5939 36.1711V42.7197ZM0.0390625 95.7597H73.9409V-0.000331879H0.0390625V95.7597Z" fill="white"/>
</g>
</svg>
