<svg width="88" height="95" viewBox="0 0 88 95" fill="none" xmlns="http://www.w3.org/2000/svg">
<g clip-path="url(#clip0_24_333)">
<path d="M36.8199 91.1898C33.3281 89.1648 29.1726 86.7601 27.5854 85.8459C25.9982 84.9317 23.375 83.4177 21.7561 82.4814C16.9434 79.6979 12.6181 77.2047 7.93783 74.5161L3.52722 71.9825L3.52258 52.2149L3.51794 32.4473H4.96084H6.40373V51.3641V70.2809L7.81776 71.0912C9.52488 72.0694 13.9011 74.5947 18.0623 77.0028C19.7447 77.9765 22.264 79.4321 23.6607 80.2376C29.0779 83.3617 32.3202 85.2331 35.2616 86.9335C43.6248 91.768 43.2607 91.5695 43.5358 91.4442C43.6773 91.3797 47.0029 89.4719 50.9261 87.2047C54.8493 84.9374 59.5397 82.2289 61.349 81.1859C67.8267 77.4519 69.6748 76.3856 74.8545 73.3936L80.1066 70.3597L80.1358 51.4035L80.165 32.4473H81.6656H83.1662L83.137 52.2099L83.1079 71.9726L79.1255 74.2701C72.3065 78.2041 68.4136 80.4522 66.1972 81.736C65.0227 82.4163 60.971 84.7553 57.1935 86.9337C53.416 89.1121 48.769 91.7947 46.8669 92.895C44.9647 93.9953 43.3544 94.8902 43.2885 94.8836C43.2226 94.8769 40.3117 93.2147 36.8199 91.1898Z" fill="white"/>
<path d="M41.3157 46.4345C40.2397 45.8102 37.6192 44.295 35.4924 43.0673C33.3656 41.8396 30.5346 40.2043 29.2014 39.4333C27.8682 38.6622 24.4009 36.6603 21.4964 34.9846C17.2458 32.5323 16.2548 31.9163 16.4174 31.8273C16.5285 31.7665 20.1256 29.6928 24.411 27.2192C28.6964 24.7456 33.735 21.8377 35.6078 20.7573C37.4807 19.6769 39.9808 18.2307 41.1637 17.5434L43.3143 16.2939L46.185 17.9472C47.7638 18.8565 51.7307 21.146 55.0003 23.0351C58.2699 24.9242 63.065 27.6922 65.656 29.1863C68.2471 30.6804 70.3248 31.945 70.2732 31.9967C70.1421 32.1278 43.4087 47.5697 43.3129 47.5697C43.2905 47.5697 42.3918 47.0589 41.3157 46.4345Z" fill="white"/>
<path d="M39.9942 81.1133C39.2006 80.6485 36.993 79.3707 35.0884 78.2737C31.6781 76.3096 29.633 75.1289 21.7561 70.5769C19.5658 69.3112 17.0084 67.8371 16.0731 67.3012L14.3726 66.3267L14.3705 50.7146C14.3694 42.128 14.3966 35.1025 14.431 35.1025C14.4654 35.1025 16.5302 36.2791 19.0194 37.7171C21.5086 39.1551 24.8698 41.0953 26.4888 42.0286C28.1077 42.962 30.8088 44.5215 32.4912 45.4941C34.1736 46.4667 36.8487 48.0098 38.4359 48.9231C40.0231 49.8364 41.3608 50.6224 41.4087 50.6697C41.4565 50.7171 41.4825 57.7765 41.4664 66.3572L41.4371 81.9585L39.9942 81.1133Z" fill="white"/>
<path d="M45.217 66.2963L45.2463 50.6383L46.9778 49.6424C47.9301 49.0947 50.0728 47.8587 51.7393 46.8958C53.4058 45.9329 56.1069 44.3735 57.7417 43.4306C59.3765 42.4876 63.2594 40.248 66.3702 38.4536C69.4811 36.6592 72.0655 35.168 72.1134 35.1397C72.1612 35.1115 72.1872 42.1334 72.1711 50.744L72.1418 66.3996L69.4869 67.9306C68.0267 68.7727 65.4554 70.2576 63.773 71.2305C62.0906 72.2033 59.5713 73.6584 58.1746 74.4639C56.7779 75.2694 54.2586 76.7245 52.5762 77.6976C50.8938 78.6706 48.5431 80.0264 47.3525 80.7105L45.1877 81.9543L45.217 66.2963Z" fill="white"/>
<path d="M11.484 23.0687L11.4854 21.4238L13.1289 20.4832C14.0329 19.9659 15.8893 18.897 17.2542 18.1078C25.7193 13.2133 28.9454 11.3507 33.9918 8.44411C35.2298 7.73104 36.4129 7.04322 36.621 6.91561L36.9993 6.68359L36.9673 8.38153L36.9353 10.0795L35.8387 10.7149C33.5235 12.0564 28.6167 14.8916 25.7962 16.5177C24.1772 17.451 20.3213 19.6769 17.2274 21.4641C14.1335 23.2513 11.5752 24.7136 11.5424 24.7136C11.5096 24.7136 11.4833 23.9734 11.484 23.0687Z" fill="white"/>
<path d="M74.5082 24.406C73.2403 23.6628 69.4361 21.463 62.9651 17.7313C60.4573 16.2852 57.2628 14.4409 55.8661 13.6329C54.4693 12.825 52.5214 11.6996 51.5374 11.1322L49.7482 10.1004L49.7163 8.4047L49.6843 6.70898L51.0864 7.52506C51.8576 7.97389 53.8199 9.10831 55.4471 10.046C57.0742 10.9837 59.7821 12.5466 61.4645 13.5193C65.1353 15.6414 69.1818 17.9753 72.9776 20.1597L75.7757 21.7699L75.7768 23.4148C75.7774 24.3195 75.739 25.0572 75.6914 25.0542C75.6438 25.0513 75.1114 24.7596 74.5082 24.406Z" fill="white"/>
<path d="M0.0549316 24.8873V19.4043L1.29582 19.4102L2.53671 19.4162L5.00691 22.7C6.36551 24.5061 7.52127 25.9839 7.57525 25.9839C7.62923 25.9839 7.6734 24.5035 7.6734 22.6941V19.4043H8.94315H10.2129V24.8873V30.3703H8.97068H7.72848L5.24908 27.0909C3.88541 25.2872 2.73024 23.8358 2.68205 23.8656C2.63385 23.8954 2.59442 25.3711 2.59442 27.145V30.3703H1.32468H0.0549316V24.8873Z" fill="white"/>
<path d="M39.5325 5.55242V0.0117188L42.0431 0.0140053C43.424 0.0152629 44.9157 0.0686065 45.3582 0.132547C46.8544 0.348782 47.87 1.01957 48.4332 2.16356C48.6717 2.64801 48.709 2.88935 48.7075 3.93638C48.7055 5.33643 48.4847 5.98524 47.7513 6.74557C46.8704 7.65871 45.82 7.97648 43.6823 7.97648H42.3028V9.5348V11.0931H40.9176H39.5325V5.55242ZM45.3436 5.51729C46.4067 4.82054 46.3697 3.04635 45.2803 2.48025C44.9933 2.33111 44.5887 2.2802 43.6303 2.27264L42.3605 2.26263L42.3286 4.03521L42.2967 5.80778L43.6612 5.76668C44.7325 5.73441 45.0941 5.68081 45.3436 5.51729Z" fill="white"/>
<path d="M76.1718 18.9283L79.9234 24.3824L75.9698 30.0097L79.3751 30.0385L81.7126 26.6045L84.05 30.0385L87.5707 30.0674L83.5595 24.2958L87.2244 18.9283L83.7326 18.8994L81.7414 22.1026L79.6059 18.9283H76.1718Z" fill="white"/>
</g>
<defs>
<clipPath id="clip0_24_333">
<rect width="87.4222" height="95" fill="white"/>
</clipPath>
</defs>
</svg>
