<svg width="297" height="86" viewBox="0 0 297 86" fill="none" xmlns="http://www.w3.org/2000/svg">
<path d="M6.80383 39.3951C6.80383 43.5799 8.47775 45.8446 10.8902 45.8446C13.4011 45.8446 15.075 43.6291 15.075 39.3951V13.6954C15.075 8.87054 13.6472 6.65506 10.8902 6.65506C8.18236 6.65506 6.80383 8.87054 6.80383 13.6954V39.3951V39.3951ZM0.846619 14.2862C0.846619 7.44279 2.81594 1.43634 10.9394 1.43634C18.6198 1.43634 21.0814 5.96579 21.0814 13.5477V38.2627C21.0814 45.1061 19.1121 51.1126 10.9394 51.1126C3.30827 51.1126 0.846619 46.5831 0.846619 39.0012V14.2862Z" fill="white"/>
<path d="M25.3155 1.83022H33.4882L40.5285 42.4968H40.7255V1.83022H46.338V50.7679H37.7715L30.7311 9.01825H30.5342V50.7679H25.3155V1.83022Z" fill="white"/>
<path d="M48.8489 1.83022H69.133V7.54125H61.9942V50.7679H55.9877V7.54125H48.8489V1.83022Z" fill="white"/>
<path d="M74.204 32.5517H81.7859L78.0934 8.96902H77.995L74.204 32.5517ZM74.844 1.83022H81.7859L90.5494 50.7679H84.543L82.5736 38.312H73.2686L71.2993 50.7679H65.342L74.844 1.83022Z" fill="white"/>
<path d="M99.3129 23.7389H100.839C105.516 23.7389 106.206 22.7051 106.206 15.4186C106.206 8.18128 105.861 7.49203 102.168 7.49203H99.3129V23.7389ZM93.3557 1.83022H102.611C111.326 1.83022 112.212 4.4888 112.212 15.1724C112.212 21.7696 111.424 24.5759 106.55 26.2991V26.4468C110.587 26.9391 111.966 29.3023 111.966 33.881V50.7679H106.009V35.3087C106.009 30.6808 105.27 29.4992 101.381 29.4992H99.3621V50.7679H93.4049V1.83022H93.3557Z" fill="white"/>
<path d="M116.397 1.83022H122.354V50.7679H116.397V1.83022V1.83022Z" fill="white"/>
<path d="M132.348 39.3951C132.348 43.5799 134.022 45.8446 136.435 45.8446C138.946 45.8446 140.619 43.6291 140.619 39.3951V13.6954C140.619 8.87054 139.192 6.65506 136.435 6.65506C133.727 6.65506 132.348 8.87054 132.348 13.6954V39.3951ZM126.391 14.2862C126.391 7.44279 128.36 1.43634 136.484 1.43634C144.164 1.43634 146.626 5.96579 146.626 13.5477V38.2627C146.626 45.1061 144.657 51.1126 136.484 51.1126C128.853 51.1126 126.391 46.5831 126.391 39.0012V14.2862Z" fill="white"/>
<path d="M231.947 14.04C231.455 7.09816 231.159 3.0118 231.011 1.78098H219.54C218.999 6.16272 218.555 10.2983 218.162 14.1385L231.947 14.04Z" fill="white"/>
<path d="M245.978 13.9416L247.209 1.78098H236.526C236.033 5.81809 235.541 9.90445 235.147 14.04L245.978 13.9416Z" fill="white"/>
<path d="M215.06 14.1385L214.223 1.73175H203.539L204.77 14.1877L215.06 14.1385Z" fill="white"/>
<path d="M234.802 17.0925C234.212 23.4928 233.769 29.9423 233.424 36.4903L232.242 17.8802C232.242 17.5848 232.193 17.3387 232.193 17.0433L217.965 16.9448C217.275 24.0344 216.832 30.1393 216.586 35.3087L215.454 18.8156L215.355 16.9448L205.164 16.8463L208.561 50.6695H222.248C223.873 37.6719 224.857 29.1054 225.3 25.019C226.236 34.6195 227.368 43.1368 228.599 50.6695H242.335L245.683 17.1417L234.802 17.0925Z" fill="white"/>
<path d="M260.404 13.7939V11.5291H267.739V1.73175H249.375V13.8923L260.404 13.7939Z" fill="white"/>
<path d="M260.404 30.1393H267.296V20.8342H260.404V17.2894L249.375 17.1909V50.6695H268.478V40.8721H260.404V30.1393Z" fill="white"/>
<path d="M294.522 27.6776C293.784 26.6437 292.307 25.8067 290.14 25.1667C292.553 24.9206 294.178 24.1328 294.965 22.8035C295.753 21.4742 296.196 18.9633 296.196 15.1231C296.196 10.9383 295.605 7.93512 294.473 6.01503C293.341 4.09494 291.814 2.91334 289.993 2.47024C288.171 2.02715 284.626 1.78098 279.457 1.78098H271.629V13.7446L282.559 13.6462V10.1014L290.387 15.5663L282.559 21.0311V17.4371L271.629 17.3386V50.6695H282.657V28.613C284.183 28.613 285.119 28.9084 285.463 29.5485C285.808 30.1885 286.005 31.8132 286.005 34.4225V50.6695H296.245V37.7704C296.245 33.8317 296.147 31.4193 295.95 30.5331C295.704 29.4992 295.212 28.5146 294.522 27.6776Z" fill="white"/>
<path d="M161.691 14.5324V10.1506C163.119 10.1506 164.054 10.3968 164.498 10.8891C164.941 11.3814 165.187 12.4646 165.187 14.1385V14.4831L174.393 14.4339C174.344 11.8738 174.246 9.95368 173.95 8.67362C173.704 7.29509 173.163 6.01503 172.326 4.9319C171.538 3.89801 170.307 3.11028 168.682 2.56871C167.058 2.02715 164.744 1.78098 161.74 1.73175H150.663V14.5816L161.691 14.5324Z" fill="white"/>
<path d="M165.187 16.6001V18.1756C165.187 19.9972 164.99 21.1788 164.596 21.7696C164.202 22.3604 163.513 22.6558 162.479 22.6558C162.233 22.6558 161.987 22.6558 161.691 22.6066V16.6001L150.663 16.5017V50.7187H161.691V30.1885H164.645C167.058 30.1885 168.978 29.7946 170.504 29.0561C171.932 28.3669 173.015 27.1853 173.606 25.7575C174.147 24.3297 174.443 22.902 174.443 19.7511V16.6986L165.187 16.6001Z" fill="white"/>
<path d="M187.982 14.3354C187.982 11.8245 188.129 10.2983 188.425 9.80598C188.671 9.31365 189.213 9.01825 189.754 9.01825C190.394 8.96902 190.936 9.36289 191.083 9.95369C191.28 10.5937 191.428 12.0215 191.428 14.3354L202.309 14.237C202.259 13.1046 202.21 12.1692 202.112 11.4799C201.915 9.51058 201.225 7.5905 200.142 5.91657C199.108 4.24264 197.582 2.86411 195.81 2.02715C193.89 1.14095 191.822 0.697859 189.705 0.747092C187.539 0.697859 185.372 1.14095 183.403 2.12561C181.631 3.01181 180.154 4.34111 179.12 6.01503C178.086 7.68896 177.397 9.60906 177.249 11.6276C177.2 12.3661 177.101 13.3015 177.052 14.4339L187.982 14.3354Z" fill="white"/>
<path d="M191.428 16.7971V36.835C191.428 39.7397 191.33 41.5614 191.133 42.2998C190.936 43.0876 190.443 43.4322 189.705 43.4322C189.065 43.4814 188.474 43.0876 188.326 42.4475C188.129 41.8075 188.031 40.0351 188.031 37.1796V16.7479L177.052 16.6494C177.003 18.1756 177.003 19.9972 177.003 22.0158V30.3854C177.003 35.4072 177.101 38.952 177.298 40.9705C177.495 42.9399 178.184 44.86 179.267 46.5339C180.301 48.2078 181.828 49.5371 183.649 50.3741C185.569 51.2603 187.637 51.7034 189.754 51.7034C191.92 51.7526 194.087 51.3095 196.056 50.3248C197.828 49.4386 199.305 48.1094 200.339 46.4354C201.373 44.7615 202.062 42.8414 202.21 40.8229C202.407 38.7551 202.506 35.3087 202.506 30.3854V22.0158C202.506 20.0465 202.506 18.3233 202.456 16.8463L191.428 16.7971Z" fill="white"/>
<path d="M162.627 56.7744C161.593 55.7405 159.87 55.2482 157.408 55.2482C154.946 55.2482 153.322 55.7405 152.337 56.7744C151.205 57.9068 150.712 59.7776 150.712 62.8301V78.0924C150.712 80.7017 151.254 82.4741 152.386 83.6065C153.469 84.6896 155.094 85.1819 157.359 85.1819C159.574 85.1819 161.741 84.9358 163.907 84.4927V69.9689H157.703V72.7259H160.46V82.2772L160.165 82.3264C159.279 82.5233 158.343 82.6218 157.408 82.6218C156.62 82.6218 155.882 82.3264 155.34 81.7848C154.552 80.9971 154.159 79.7663 154.159 78.2893V63.0762C154.159 58.6453 155.931 57.7098 157.408 57.7098C158.146 57.7098 158.885 58.0052 159.427 58.4976C160.116 59.1868 160.46 60.2207 160.46 61.5008V62.6824H163.907V60.3192C163.858 58.793 163.464 57.6114 162.627 56.7744Z" fill="white"/>
<path d="M167.698 55.4943V84.9357H178.332V82.1787H171.144V71.1997H177.938V68.4426H171.144V58.2021H178.332V55.4451H167.698V55.4943Z" fill="white"/>
<path d="M192.511 55.4943V80.6032H192.167L187.243 55.4943H181.729V84.9357H184.683V59.1376H185.028L189.951 84.9357H195.711V55.4943H192.511Z" fill="white"/>
<path d="M293.094 55.4943V80.6032H292.75L287.777 55.4943H282.263V84.9357H285.217V59.1376H285.562L290.485 84.9357H296.245V55.4943H293.094Z" fill="white"/>
<path d="M199.552 55.4943V84.9357H210.186V82.1787H202.998V71.1997H209.792V68.4426H202.998V58.2021H210.186V55.4451H199.552V55.4943Z" fill="white"/>
<path d="M238.15 74.4983H232.489L235.246 59.1868H235.393L238.15 74.4983ZM233.424 55.4943L226.925 84.9357H230.618L231.996 77.2554H238.593L239.972 84.9357H243.664L237.658 55.4943H233.424Z" fill="white"/>
<path d="M241.892 55.4943V58.2514H246.914V84.9357H250.36V58.2514H255.382V55.4943H241.892Z" fill="white"/>
<path d="M257.794 84.985H261.241V55.5436H257.794V84.985Z" fill="white"/>
<path d="M274.829 78.3385C274.829 79.8647 274.435 81.0956 273.697 81.8341C273.106 82.3756 272.367 82.7203 271.53 82.671C270.743 82.671 270.004 82.3756 269.413 81.8341C268.675 81.0956 268.232 79.8647 268.232 78.2893V62.4362C268.232 59.2853 269.315 57.7098 271.481 57.7098C272.269 57.6606 273.057 57.956 273.647 58.5468C274.435 59.3345 274.78 60.6146 274.78 62.4854V78.3385H274.829ZM271.53 55.2482C269.413 55.2482 267.739 55.7897 266.656 56.8729C265.425 58.1037 264.835 60.0238 264.835 62.7808V78.0431C264.835 80.6032 265.376 82.4249 266.509 83.5572C267.592 84.6403 269.216 85.1327 271.53 85.1327C276.109 85.1327 278.275 82.7203 278.275 77.5508V62.2885C278.275 59.7284 277.734 57.9068 276.601 56.7744C275.469 55.642 273.844 55.2482 271.53 55.2482Z" fill="white"/>
<path d="M224.808 74.9414C224.808 72.1351 223.873 70.7074 221.362 70.4612L221.017 70.412V70.2643L221.263 70.1658C224.414 69.1811 224.956 67.4087 224.956 63.3716C224.956 59.7776 224.759 57.7591 223.676 56.6759C222.839 55.839 221.362 55.4943 218.556 55.4943H212.451V84.9357H215.897V71.7905H217.719C219.196 71.7905 220.033 71.9874 220.574 72.5782C221.214 73.2183 221.362 74.3014 221.362 75.8276V84.985H224.808V74.9414ZM217.374 69.0827H215.897V58.3006H218.309C219.491 58.3006 220.229 58.3991 220.771 58.8914C221.46 59.5807 221.559 60.91 221.559 63.5686C221.559 66.0795 221.411 67.5072 220.623 68.2949C219.934 68.935 218.949 69.0334 217.374 69.0827Z" fill="white"/>
</svg>
