<svg width="245" height="92" viewBox="0 0 245 92" fill="none" xmlns="http://www.w3.org/2000/svg">
<path fill-rule="evenodd" clip-rule="evenodd" d="M121.669 12.542H111.101V41.7586H116.067V31.3468H121.092C127.374 31.3468 131.645 28.3444 131.645 22.0065C131.645 16.5647 128.653 12.542 121.669 12.542ZM126.48 21.9224C126.48 24.8042 124.632 26.8632 120.566 26.8632L116.067 26.8596V16.9854H120.937C124.51 16.9854 126.48 18.8359 126.48 21.9224Z" fill="white"/>
<path fill-rule="evenodd" clip-rule="evenodd" d="M153.298 41.7589V21.6777H148.701V24.106H148.619C147.142 22.3361 144.965 21.3887 142.422 21.3887C136.919 21.3887 132.773 25.7517 132.773 31.8005C132.773 38.014 136.919 42.0881 142.463 42.0881C145.212 42.0881 147.388 41.0166 148.825 39.0819H148.905V41.7589H153.298ZM143.201 25.5432C146.484 25.5432 148.905 28.2605 148.905 31.8408C148.905 35.476 146.318 37.8896 143.201 37.8896C139.794 37.8896 137.452 35.3809 137.452 31.8408C137.452 27.9716 140 25.5432 143.201 25.5432Z" fill="white"/>
<path d="M168.813 21.3887V26.5307C168.28 26.4904 167.747 26.4503 167.416 26.4503C163.929 26.4503 161.959 28.959 161.959 32.2504V41.7589H157.36V21.6777H161.959V24.7204H161.999C163.561 22.5811 165.817 21.3887 168.247 21.3887H168.813Z" fill="white"/>
<path fill-rule="evenodd" clip-rule="evenodd" d="M190.445 41.7589V21.6777H185.851V24.106H185.767C184.288 22.3361 182.112 21.3887 179.569 21.3887C174.066 21.3887 169.921 25.7517 169.921 31.8005C169.921 38.014 174.066 42.0881 179.609 42.0881C182.358 42.0881 184.534 41.0166 185.972 39.0819H186.053V41.7589H190.445ZM180.348 25.5432C183.63 25.5432 186.053 28.2605 186.053 31.8408C186.053 35.476 183.469 37.8896 180.348 37.8896C176.941 37.8896 174.599 35.3809 174.599 31.8408C174.599 27.9716 177.146 25.5432 180.348 25.5432Z" fill="white"/>
<path fill-rule="evenodd" clip-rule="evenodd" d="M205.02 42.1059C210.599 42.1059 214.745 38.0355 214.745 31.8184C214.745 25.7513 210.599 21.3883 205.06 21.3883C202.432 21.3883 200.216 22.3355 198.697 24.1055H198.657V11.4702H194.058V41.7768H198.451V39.0997H198.532C200.009 41.0343 202.186 42.1059 205.02 42.1059ZM204.28 25.5611C207.49 25.5611 210.062 27.9854 210.066 31.8492C210.062 35.3846 207.677 37.8892 204.332 37.9075C201.024 37.9075 198.451 35.439 198.451 31.8586C198.451 28.2783 200.833 25.5611 204.28 25.5611ZM210.066 31.8492C210.066 31.8523 210.066 31.8555 210.066 31.8586V31.8404C210.066 31.8433 210.066 31.8463 210.066 31.8492Z" fill="white"/>
<path d="M217.605 11.4702H222.204V41.7584H217.605V11.4702Z" fill="white"/>
<path fill-rule="evenodd" clip-rule="evenodd" d="M230.26 33.3219H244.875C244.95 32.7077 244.991 32.0901 245 31.4714C245 25.6273 241.18 21.3887 235.27 21.3887C229.687 21.3887 225.501 25.5432 225.501 31.7164C225.501 37.9737 229.893 42.0881 235.723 42.0881C239.663 42.0881 242.493 40.4972 244.176 38.303L240.975 35.5455C240.378 36.2937 239.616 36.8946 238.748 37.3012C237.879 37.7078 236.928 37.9093 235.97 37.8896C233.014 37.8896 230.878 36.1599 230.26 33.3219ZM240.361 29.6246H230.345C230.999 26.9841 232.969 25.5432 235.517 25.5505C238.156 25.5505 239.785 27.1999 240.361 29.6246Z" fill="white"/>
<path d="M107.179 63.4746C107.179 54.9425 112.693 48.612 121.599 48.612C123.71 48.5914 125.802 49.0057 127.745 49.829C129.687 50.6522 131.436 51.8666 132.884 53.3956L129.421 56.42C128.39 55.397 127.163 54.5912 125.812 54.0508C124.461 53.5104 123.015 53.2465 121.559 53.2749C116.343 53.2749 112.311 57.1954 112.311 63.4819C112.311 69.282 115.986 73.6925 121.761 73.6925C124.052 73.7168 126.297 73.0471 128.197 71.7725V66.872H121.11V62.4542H133.086V74.5227C130.439 76.717 126.201 78.1579 121.761 78.1579C113.45 78.1761 107.179 72.6648 107.179 63.4746Z" fill="white"/>
<path fill-rule="evenodd" clip-rule="evenodd" d="M137.042 49.8627C136.469 50.4293 136.145 51.1986 136.14 52.0025C136.137 52.6049 136.313 53.1951 136.647 53.6978C136.98 54.2006 137.457 54.5934 138.015 54.8265C138.574 55.0596 139.189 55.1225 139.784 55.0072C140.378 54.8918 140.925 54.6034 141.354 54.1786C141.784 53.7538 142.077 53.2118 142.196 52.621C142.316 52.0303 142.256 51.4176 142.025 50.8606C141.795 50.3035 141.403 49.8271 140.899 49.492C140.396 49.1569 139.804 48.978 139.198 48.978C138.391 48.978 137.615 49.296 137.042 49.8627ZM141.477 58.0037H136.916V77.9313H141.477V58.0037Z" fill="white"/>
<path d="M147.222 61.8841H145.017V58.0039H147.222V54.3688C147.222 49.918 149.34 47.5482 153.251 47.5482C155.007 47.5239 156.734 48.0066 158.22 48.9378L157.202 52.7778C155.897 52.1635 154.758 51.7576 153.894 51.7576C152.509 51.7576 151.777 52.6937 151.777 54.8587V58.0039H156.665V61.8841H151.777V77.9314H147.222V61.8841Z" fill="white"/>
<path d="M160.999 71.6443V61.8835H158.555V58.0033H160.999V51.3877L165.561 50.8975V58.0033H171.386V61.8835H165.554V71.1946C165.554 73.2352 166.164 73.9703 167.468 73.9703C168.502 73.9162 169.509 73.6232 170.409 73.1146L171.588 77.0752C170.409 77.7261 169.144 78.2601 166.538 78.2601C163.109 78.2637 160.999 76.0951 160.999 71.6443Z" fill="white"/>
<path d="M172.64 75.3602L174.922 71.9299C175.662 72.6957 176.556 73.2974 177.546 73.6957C178.534 74.094 179.597 74.2798 180.665 74.2411C182.417 74.2411 183.436 73.4659 183.436 72.2809C183.436 71.2606 182.13 70.7705 179.524 69.8709C176.265 68.7299 173.457 67.2597 173.457 63.3394C173.457 60.0735 176.397 57.7037 180.461 57.7037C183.024 57.6627 185.514 58.5535 187.464 60.2088L185.182 63.8037C183.861 62.4863 182.082 61.7254 180.212 61.679C179.319 61.679 178.054 62.169 178.054 63.3942C178.054 64.3742 179.275 65.0691 181.189 65.8042C185.427 67.4791 188.075 68.2545 188.075 72.2151C188.075 75.565 185.715 78.2604 180.66 78.2604C177.718 78.3206 174.858 77.2866 172.64 75.3602Z" fill="white"/>
<path fill-rule="evenodd" clip-rule="evenodd" d="M189.446 58.5159H189.934L189.937 59.9787H190.404V58.5159H190.893V58.099H189.446V58.5159ZM191.618 58.099H191.144L191.139 59.9934H191.606V58.9621L191.975 59.635H192.273L192.639 58.9621V59.9934H193.102V58.099H192.625L192.121 59.09L191.618 58.099Z" fill="white"/>
<path d="M92.1646 45.8513C92.1616 53.5905 90.1901 61.2031 86.4338 67.9802C82.6776 74.7573 77.2589 80.4785 70.6821 84.6111C64.1053 88.7435 56.5843 91.1529 48.8196 91.615C41.0548 92.077 33.2989 90.5767 26.2739 87.2535C27.3767 84.8946 28.4426 82.6015 28.722 82.0969C29.3395 80.9705 42.7337 81.2777 46.2146 80.828C49.6956 80.3781 61.0534 74.4682 62.8251 73.3821C64.3322 72.4568 68.0924 66.4335 69.2981 64.8025C69.3435 64.7421 69.3759 64.6732 69.3929 64.5997C69.41 64.5264 69.4115 64.4501 69.3974 64.3762C69.3832 64.3021 69.3537 64.2319 69.3105 64.1699C69.2675 64.108 69.212 64.0556 69.1473 64.0162C68.8516 63.7934 68.4909 63.6729 68.1201 63.6729C67.7491 63.6729 67.3884 63.7934 67.0927 64.0162C64.6189 65.7607 61.0498 70.31 60.6124 70.8732L62.7296 67.8196C62.7296 67.8196 66.3721 58.2234 66.0377 57.8722C65.4827 57.2762 64.1998 56.4972 62.3804 58.728C61.4983 59.8251 60.774 64.104 59.3185 66.1592C58.6102 67.2133 57.816 68.2078 56.9441 69.1324L58.2746 66.2068C58.2746 66.2068 59.8919 58.9255 59.9912 58.1612C60.1455 56.9763 57.8887 56.3948 56.7198 58.0404C56.0692 58.9583 55.6833 63.0982 54.1468 66.408C52.967 68.9496 51.9855 71.1146 51.9414 71.2499L54.9592 60.5858C54.9592 60.5858 54.6687 59.0243 52.6251 60.2421C50.9011 61.2623 50.2322 64.8684 49.5926 66.5689C49.0523 68.006 46.9791 71.4548 46.347 72.4971C46.8248 71.6778 48.0451 69.5018 47.3651 69.4287C45.4317 69.2276 39.8997 69.3446 38.3045 68.8875C36.0182 68.2291 39.4072 67.2051 43.5425 64.4769C47.6776 61.7487 47.3395 58.8669 45.0531 58.2087C44.1048 57.9381 40.1497 59.1595 38.525 60.8821C36.2938 63.2518 34.0591 64.0381 32.6806 64.6599C30.332 65.724 28.6375 65.0877 24.4801 67.8122C22.08 69.3921 17.8198 74.9363 14.633 79.3614C9.04482 74.1702 4.84262 67.6772 2.40502 60.4674C-0.032578 53.2578 -0.628978 45.558 0.669564 38.0618C1.96811 30.5657 5.12079 23.5088 9.84352 17.527C14.5662 11.5451 20.7106 6.82633 27.7231 3.79582C34.7355 0.765306 42.3956 -0.48172 50.013 0.167105C57.6305 0.815928 64.9661 3.34022 71.3586 7.51251C77.7513 11.6848 83.0001 17.3739 86.6322 24.0675C90.2643 30.7609 92.1656 38.2482 92.1646 45.855V45.8513Z" fill="white"/>
<path d="M29.9308 16.1812C28.5299 16.7053 27.2487 17.5038 26.1633 18.529L53.6686 46.0452C54.6904 45.0285 55.7098 44.0094 56.7267 42.9879L29.9308 16.1812Z" fill="#3F3F3F"/>
<path d="M45.4791 22.3762L45.457 22.3981L41.8364 18.7776C40.5876 17.5211 39.0564 16.5779 37.3692 16.026C35.6821 15.474 33.8871 15.3292 32.1325 15.6031L58.1308 41.5978C59.2237 40.5008 60.3179 39.4036 61.4132 38.3066L45.4791 22.3762Z" fill="#3F3F3F"/>
<path d="M49.6511 50.0789L52.2901 47.4348L24.8473 20.0064C24.0515 21.0608 23.4491 22.2469 23.0683 23.5099L49.6511 50.0789Z" fill="#3F3F3F"/>
<path d="M22.6308 25.8395C22.4984 27.4658 22.7223 29.1013 23.2871 30.633C23.852 32.1649 24.7442 33.5563 25.9023 34.7117L45.435 54.2918C46.3758 53.3532 47.3181 52.4121 48.2616 51.4685L22.6308 25.8395Z" fill="#3F3F3F"/>
<path d="M64.9934 18.7994C63.9508 17.751 62.7098 16.9189 61.342 16.351C59.974 15.783 58.5066 15.4906 57.0245 15.4906C55.5423 15.4906 54.0748 15.783 52.7069 16.351C51.3391 16.9189 50.0981 17.751 49.0555 18.7994L46.8684 20.9936L62.8064 36.9386L64.9934 34.7444C67.115 32.6279 68.3063 29.7609 68.3063 26.7718C68.3063 23.7827 67.115 20.9156 64.9934 18.7994Z" fill="#3F3F3F"/>
</svg>
