<svg width="288" height="105" viewBox="0 0 288 105" fill="none" xmlns="http://www.w3.org/2000/svg">
<path d="M0 46.8647C0 79.4243 0.144 94.2592 0.528 95.2706C1.392 97.7752 4.992 99.461 14.4 101.869C32.688 106.493 54.192 105.819 71.52 99.9908C75.264 98.7385 76.896 97.9197 77.904 96.8119L79.2 95.367V47.6835V0.0481644L39.6 0H0V46.8647ZM22.56 6.02065V8.18807H34.32H46.08V11.4151C46.032 16.039 45.408 18.8326 44.16 19.844C43.344 20.5183 42.24 20.711 39.024 20.711C35.136 20.711 33.12 21.1927 33.12 22.156C33.12 22.3968 33.744 22.3486 34.56 22.0596C35.616 21.7225 36.672 21.7225 38.448 22.156C39.792 22.4931 41.712 22.6376 42.72 22.445C44.304 22.2041 44.544 22.2523 44.352 22.8784C44.16 23.2638 44.304 23.6009 44.592 23.6009C44.928 23.6009 45.12 25.094 45.12 27.9358C45.12 30.2959 45.264 32.2706 45.408 32.2706C45.6 32.2706 46.8 31.6445 48.096 30.8257C50.4 29.3807 50.448 29.3807 57.84 29.3807H65.28L68.544 31.0183C74.592 34.1009 75.168 35.2087 72.576 39.4472L71.088 41.8555L72.72 44.5527C76.416 50.7661 75.744 58.3761 70.896 63.9151C69.792 65.1674 69.552 65.7454 70.032 65.8899C70.368 65.9862 71.328 66.6605 72.096 67.383L73.536 68.6835L72.864 71.0436C72.048 73.789 71.28 74.3188 70.896 72.2959C70.704 71.3807 70.032 70.5619 68.928 69.8876C67.44 68.9243 66.432 68.828 60.144 68.6835C50.976 68.539 51.168 68.4427 51.504 71.2362C51.648 72.4404 51.6 73.8853 51.36 74.4151C51.024 75.2821 50.976 75.2339 50.64 73.9335C49.344 68.1055 46.704 63.9151 42 60.0619C37.584 56.4977 37.44 56.4495 37.44 58.7615C37.44 61.0734 36.768 61.2179 35.712 59.1468C34.176 56.1605 25.2 47.6835 23.568 47.6835C23.28 47.6835 23.04 48.5505 23.04 49.6101C23.04 50.6697 22.896 51.5367 22.704 51.5367C22.464 51.4885 21.792 50.3807 21.12 48.9839C20.304 47.2018 18.096 44.6491 13.584 40.1216C8.64 35.2569 6.912 33.1858 5.952 31.0665C3.84 26.4908 4.272 20.9037 6.864 17.9174C8.688 15.8945 9.264 16.9541 7.824 19.7959C6.624 22.1078 6.72 25.7683 8.016 28.4656C9.264 30.9702 13.728 35.5459 18.24 38.9174C19.968 40.1697 26.112 44.4564 31.872 48.406C46.08 58.1353 47.664 59.6284 51.168 67.3349C51.216 67.4312 54.624 66.9495 58.8 66.3234C65.952 65.1674 66.384 65.0711 67.968 63.5298C68.88 62.6628 69.6 61.7959 69.6 61.6032C69.6 61.4105 68.256 61.1697 66.624 61.0252C64.08 60.8326 63.456 60.9289 62.784 61.6995C61.776 62.8555 61.488 62.8555 61.776 61.6514C61.968 60.9289 61.776 60.6881 61.152 60.6399C60.384 60.6399 60.384 60.5436 61.344 60.1101C61.92 59.8211 62.4 59.2431 62.4 58.8096C62.448 58.3761 62.544 57.2202 62.688 56.2087L62.976 54.4266H61.104C60.096 54.4266 58.128 54.2821 56.784 54.1376C54.288 53.8005 54.24 53.8486 54.24 55.1009C54.24 55.7752 54.048 56.3532 53.76 56.3532C53.52 56.3532 53.28 55.8234 53.28 55.1491C53.28 54.2821 53.04 53.945 52.32 53.945C51.792 53.945 51.36 53.7041 51.36 53.4633C51.36 53.1743 51.696 52.9816 52.08 52.9816C52.656 52.9816 52.8 52.3073 52.8 49.8509V46.7202H50.448H48.144L48.768 49.2248C49.488 52.0183 49.584 54.1858 48.96 55.6307C48.528 56.7385 48.24 56.2569 47.808 53.4633C47.472 51.4885 45.936 48.406 44.448 46.7683C43.344 45.5161 38.016 41.422 37.488 41.422C37.296 41.422 37.248 42.289 37.344 43.3486C37.584 45.8532 36.864 45.805 35.712 43.2523C34.416 40.3624 30.96 37.1835 26.16 34.4862C23.856 33.1858 21.312 31.5963 20.544 30.8739C18.72 29.3807 17.328 26.3463 17.28 23.9381C17.28 21.0963 18.576 21.7706 19.632 25.1422C20.4 27.4541 22.8 29.7661 25.104 30.3922C26.544 30.7775 28.176 30.7294 31.776 30.1514C34.368 29.7179 37.584 29.3807 38.88 29.3807C41.136 29.3807 41.28 29.3326 41.28 28.1284C41.28 26.9725 41.136 26.8761 39.984 27.2133C39.216 27.406 37.584 27.6468 36.24 27.7913C33.072 28.0803 30.672 26.5872 30.048 23.9381C28.992 19.7959 31.44 17.8211 37.488 17.8211C41.856 17.8211 42.336 17.4358 42.144 14.1124L42 11.8005H36H30L29.856 14.1124C29.712 16.6651 29.568 16.7133 26.16 15.4128C24.672 14.8349 24.816 13.7752 26.352 13.5826C27.024 13.4862 27.36 13.1491 27.264 12.6193C27.072 11.7041 27.12 11.7041 22.56 11.6078L19.2 11.5596V9.63303V7.70642H17.184C13.68 7.70642 11.856 10.6927 13.728 13.3899C14.112 13.9679 14.88 14.4495 15.408 14.4495C16.128 14.4495 16.368 14.7385 16.224 15.5092C16.032 16.906 14.88 17.0986 12.72 16.0872C10.608 15.0757 9.6 13.2454 9.6 10.4037C9.6 8.66972 9.888 7.89909 11.088 6.5023C12.864 4.47935 14.496 3.94954 19.104 3.90137L22.56 3.85321V6.02065ZM6.48 39.7844C5.664 44.2638 8.256 47.539 17.184 53.4151C31.872 63.0963 34.56 65.6009 36.72 71.8142C37.584 74.2706 36.96 74.2225 35.28 71.6216C34.56 70.5138 33.264 68.9725 32.448 68.25C30.768 66.7087 24 62.133 23.424 62.133C23.232 62.133 23.04 63.1445 22.992 64.3968C22.992 66.3716 22.896 66.5642 22.416 65.7936C19.2 60.6881 17.712 58.8578 14.736 56.4495C8.832 51.6812 7.152 49.9472 5.856 47.4427C4.464 44.7454 4.176 40.555 5.184 38.6284C6.048 37.0872 6.864 37.8096 6.48 39.7844ZM69.888 76.1009C70.992 76.5344 71.088 76.7752 70.8 78.172C70.272 80.4358 70.176 80.4839 68.88 79.1835C68.256 78.5573 67.344 78.0275 66.864 77.9794C66.384 77.9794 65.52 77.883 64.896 77.7385C63.12 77.4014 60.624 78.75 59.712 80.5321C58.56 82.6995 58.56 87.8532 59.664 89.9725C60.144 90.8394 61.2 91.9954 62.064 92.4771C63.936 93.633 67.824 93.7294 69.792 92.7179C71.568 91.8027 71.52 91.8027 71.52 93.2477C71.52 94.9335 69.12 95.8486 64.656 95.8486C57.984 95.8486 54.384 92.8624 53.856 86.8899C53.376 80.7729 56.256 76.8234 62.064 75.6193C64.272 75.1376 68.016 75.3784 69.888 76.1009ZM23.232 76.2936C25.296 77.1605 26.4 78.75 26.4 80.9174C26.4 83.0367 25.392 84.5298 23.28 85.6376L21.648 86.4564L24.96 90.7913C26.784 93.1995 28.32 95.2706 28.32 95.4633C28.32 95.7041 27.072 95.8486 25.584 95.8486L22.8 95.8005L19.488 91.2248C17.664 88.7202 15.936 86.7454 15.648 86.8417C15.312 86.9381 15.072 88.672 14.976 91.4174L14.832 95.8486H12.48H10.08V86.9862C10.08 78.7982 10.032 78.0757 9.072 76.8716L8.112 75.6193H14.88C19.584 75.6193 22.128 75.8119 23.232 76.2936ZM46.704 76.7271C49.008 78.2202 49.008 81.4472 46.704 83.6147C45.792 84.4816 45.648 84.7706 46.224 84.7706C46.656 84.7706 47.568 85.2523 48.24 85.8784C49.92 87.3234 50.352 90.3578 49.2 92.3807C47.76 94.8372 45.648 95.5115 38.784 95.7523L32.688 95.9449L32.544 86.5527C32.4 77.7867 32.352 77.0642 31.44 76.3417C30.576 75.6674 31.056 75.6193 37.92 75.7156C44.112 75.8601 45.648 76.0046 46.704 76.7271Z" fill="white"/>
<path d="M35.232 24.3234C34.368 24.9977 34.368 24.9977 35.616 25.0459C37.152 25.0459 38.4 24.6124 38.4 24.0344C38.4 23.3601 36.288 23.5527 35.232 24.3234Z" fill="white"/>
<path d="M34.8 33.3784L32.448 33.9564L34.944 35.5459L37.392 37.1835L40.08 35.6422C41.52 34.8234 42.72 33.9564 42.72 33.7156C42.72 32.7041 38.592 32.5115 34.8 33.3784Z" fill="white"/>
<path d="M46.224 36.0275C41.664 38.7729 40.944 39.3509 41.616 39.8326C42 40.1697 43.104 41.0849 44.016 41.9518L45.696 43.445L47.664 41.5183C48.768 40.4105 50.88 39.0138 52.32 38.2913C54.624 37.2317 55.536 37.0872 59.52 37.1353C64.176 37.2317 65.04 36.8463 63.84 35.4014C63.024 34.4381 63.936 34.4381 65.808 35.4014C66.96 36.0275 67.152 36.3647 66.912 37.3761C66.624 38.4839 67.2 39.4472 68.16 39.4954C68.496 39.4954 70.272 36.172 70.032 35.9312C69.936 35.883 68.592 35.1124 67.056 34.2454C64.32 32.8005 64.128 32.7523 57.936 32.7523L51.6 32.8005L46.224 36.0275Z" fill="white"/>
<path d="M56.928 41.5183C55.344 45.4197 55.296 45.2752 58.56 45.2752C61.392 45.2752 61.488 45.2271 61.152 44.1674C60.24 41.133 59.52 39.9771 58.56 39.9771C57.888 39.9771 57.36 40.4587 56.928 41.5183Z" fill="white"/>
<path d="M50.88 42.9151C48 45.1789 47.904 45.7569 50.592 45.7569C52.704 45.7569 52.752 45.7087 53.088 44.1193C53.568 41.422 53.184 41.1812 50.88 42.9151Z" fill="white"/>
<path d="M64.128 42.7225C64.608 44.7454 64.704 44.7936 66.816 44.7936H68.784L67.872 43.7821C67.056 42.867 64.752 41.422 64.08 41.422C63.936 41.422 63.984 42 64.128 42.7225Z" fill="white"/>
<path d="M55.056 48.0206C54.912 48.5023 54.624 49.8509 54.48 50.9587L54.144 53.078L58.368 52.7408C60.72 52.5482 62.688 52.3555 62.736 52.3073C62.784 52.2592 62.688 51.1514 62.496 49.8509L62.16 47.4427L58.704 47.2982C55.728 47.2018 55.248 47.2982 55.056 48.0206Z" fill="white"/>
<path d="M65.28 50.0436V52.5963L68.544 52.2592C70.32 52.0665 71.856 51.8257 71.952 51.7294C72.048 51.633 71.904 50.6697 71.568 49.6583L71.04 47.7798L68.16 47.5872L65.28 47.4427V50.0436Z" fill="white"/>
<path d="M64.416 57.1238C64.08 58.3761 63.888 59.4358 63.984 59.5803C64.08 59.6766 65.808 59.4839 67.824 59.195C70.848 58.7615 71.472 58.4725 71.712 57.6055C72.384 55.0527 72.24 54.9082 68.496 54.9082H64.992L64.416 57.1238Z" fill="white"/>
<path d="M15.264 77.8349C15.024 78.0275 14.88 79.6651 14.88 81.4954V84.7706H17.04C18.72 84.7706 19.536 84.4816 20.4 83.5665C21.696 82.3142 21.984 80.1468 21.024 78.8463C20.352 77.9794 15.888 77.1606 15.264 77.8349Z" fill="white"/>
<path d="M37.728 77.883C37.584 78.0757 37.44 79.4725 37.44 81.0619V83.9518L39.696 83.6628C43.008 83.3257 44.64 80.9656 43.056 78.7982C42.48 77.9794 38.352 77.305 37.728 77.883Z" fill="white"/>
<path d="M37.44 89.5872V93.4404H40.08C43.296 93.4404 45.12 92.0436 45.12 89.5872C45.12 87.1307 43.296 85.7339 40.08 85.7339H37.44V89.5872Z" fill="white"/>
<path d="M92.16 19.1697C92.16 19.2661 92.64 19.7477 93.264 20.2294C94.272 21.0963 94.32 21.3372 94.464 32.2706L94.608 43.3968L97.296 43.2523L99.936 43.1078V37.906C99.888 32.8005 99.888 32.7523 101.04 32.7523C101.904 32.7523 103.008 33.9083 106.032 38.0505L109.92 43.3486H113.28C115.104 43.3486 116.64 43.156 116.64 42.9151C116.64 42.6743 116.448 42.3853 116.256 42.289C115.68 42.0482 108.288 32.2706 108.528 32.078C108.624 31.9817 109.632 31.4518 110.736 30.8739C115.056 28.7064 115.584 22.7821 111.696 20.422C110.352 19.6514 108.912 19.4587 101.136 19.2661C96.192 19.1216 92.16 19.1216 92.16 19.1697ZM107.28 22.3486C108.96 23.4564 108.96 26.828 107.328 28.7064C106.368 29.8624 105.744 30.055 103.104 30.2477L100.032 30.4404L99.936 26.2982C99.84 24.0344 99.936 21.9151 100.128 21.6261C100.608 20.8555 105.84 21.3853 107.28 22.3486Z" fill="white"/>
<path d="M119.04 19.1697C119.04 19.2661 119.52 19.7477 120.144 20.2294C121.152 21.0963 121.2 21.3372 121.344 32.2706L121.488 43.445L129.024 43.2523C135.264 43.1078 136.896 42.9633 138.432 42.1927C140.784 40.9885 142.08 38.8693 142.08 36.2202C142.08 33.3784 141.024 31.5963 138.72 30.4885L136.752 29.5734L137.952 28.9472C138.624 28.5619 139.536 27.5023 139.968 26.5872C140.64 25.1904 140.64 24.6124 140.208 23.0711C139.248 19.9404 137.952 19.555 127.776 19.2661C122.976 19.1216 119.04 19.1216 119.04 19.1697ZM132.72 21.867C134.64 22.6858 135.264 24.3716 134.4 26.4908C133.776 28.0321 131.904 28.8991 129.072 28.8991H127.296L127.104 25.2385C127.008 23.2156 127.056 21.4817 127.152 21.3853C127.632 20.9518 131.184 21.2408 132.72 21.867ZM135.456 32.6078C136.272 33.4266 136.512 34.1972 136.464 35.7385C136.272 39.7362 134.784 40.9404 129.936 40.9404H126.96V36.0757V31.211L130.656 31.4037C133.728 31.5482 134.544 31.7408 135.456 32.6078Z" fill="white"/>
<path d="M155.376 19.3142C151.488 20.2294 148.896 22.156 147.216 25.2867C145.68 28.0803 145.728 35.0161 147.216 37.8578C149.52 42.2408 153.888 44.1193 160.512 43.6858C165.456 43.3968 167.04 42.6743 167.04 40.8922V39.5436L165.36 40.2661C162.816 41.3257 158.16 41.133 156 39.9289C153.072 38.2913 151.92 35.6904 151.92 30.8257C151.92 26.1055 152.736 24.1307 155.184 22.6376C157.488 21.1927 161.616 21.3372 163.92 22.8784C164.88 23.6009 165.744 24.0826 165.84 23.9862C165.888 23.8899 166.176 23.1193 166.512 22.2041C167.136 20.2294 166.944 20.0367 163.536 19.2661C160.848 18.6881 157.92 18.6881 155.376 19.3142Z" fill="white"/>
<path d="M177.6 51.344C177.6 51.4404 177.984 51.9702 178.464 52.5C179.184 53.367 179.328 55.0046 179.52 66.1307L179.76 78.75L182.304 78.8945L184.8 79.039V65.3119V51.5367L182.544 51.4885C181.248 51.4885 179.664 51.3922 178.944 51.2959C178.176 51.1995 177.6 51.1995 177.6 51.344Z" fill="white"/>
<path d="M264 51.4885C264 51.7775 264.24 52.0184 264.528 52.0184C264.768 52.0184 265.344 52.789 265.728 53.7041C266.256 55.0046 266.4 57.9427 266.4 67.1904V78.9908H268.8H271.2L271.248 75.9564C271.296 74.3188 271.248 72.4885 271.2 71.8624C271.152 71.2844 271.344 70.8028 271.536 70.8028C271.776 70.8028 273.408 72.633 275.184 74.8968L278.4 78.9908H281.52C283.248 78.9908 284.64 78.8945 284.64 78.75C284.64 78.6055 282.864 76.3417 280.704 73.6445L276.72 68.7317L280.464 65.2156L284.256 61.6514H281.088C278.112 61.6514 277.92 61.6995 277.92 62.7592C277.92 63.4335 276.864 64.9266 274.896 66.8532C273.264 68.4908 271.728 69.8395 271.536 69.8395C271.344 69.8395 271.2 65.6973 271.296 60.6881L271.44 51.5367H268.464C266.832 51.5367 265.2 51.3922 264.768 51.2477C264.336 51.1032 264 51.1995 264 51.4885Z" fill="white"/>
<path d="M93.12 55.6307C94.32 56.9312 94.32 56.9312 94.464 67.961L94.608 79.039L97.296 78.8945L99.984 78.75L100.032 73.4518C100.08 68.4908 100.128 68.1537 101.04 68.1537C101.712 68.1537 103.248 69.8394 106.08 73.5482L110.16 78.9908H113.424C115.2 78.9908 116.64 78.8945 116.64 78.75C116.64 78.6055 114.816 76.1491 112.56 73.211C110.304 70.2729 108.48 67.8165 108.48 67.672C108.48 67.5275 109.2 67.1422 110.064 66.7569C112.032 65.8417 112.992 65.0711 113.664 63.7225C114.48 62.2294 114.384 59.4358 113.472 57.75C112.224 55.2454 110.256 54.7638 100.56 54.5229L91.92 54.3303L93.12 55.6307ZM107.232 57.8463C108.24 58.617 108.48 59.2431 108.48 60.8807C108.48 64.3968 106.224 66.1789 102.192 65.8899L100.08 65.7454L99.936 62.3739C99.696 57.0757 99.84 56.8349 103.152 56.8349C105.264 56.8349 106.272 57.0757 107.232 57.8463Z" fill="white"/>
<path d="M195.888 55.0046C197.616 56.4014 197.76 57.6055 197.76 68.3945V79.0872L205.104 78.8945C211.392 78.75 212.736 78.6055 214.704 77.6904C219.84 75.3303 220.08 68.2018 215.088 66.0826L213.312 65.3119L215.184 63.4817C216.96 61.844 217.056 61.5069 216.816 59.7248C216.24 55.4381 214.608 54.7638 203.76 54.5711C196.608 54.4266 195.264 54.4748 195.888 55.0046ZM209.184 57.3647C212.16 58.3762 211.488 63.1927 208.272 64.1078C207.648 64.3005 206.304 64.445 205.344 64.4931L203.52 64.5413V60.6881V56.8349H205.632C206.736 56.8349 208.368 57.0757 209.184 57.3647ZM210.864 67.4794C213.36 68.6353 213.648 73.0665 211.392 75.1858C210.432 76.1009 209.52 76.3418 206.88 76.4862L203.52 76.6789V71.5252V66.3234L206.544 66.6124C208.224 66.7569 210.144 67.1422 210.864 67.4794Z" fill="white"/>
<path d="M122.16 62.4702C118.656 64.3005 117.12 66.7087 117.12 70.3211C117.12 75.7156 120.96 78.9908 127.344 78.9908C133.344 78.9908 137.376 75.5229 137.376 70.3693C137.376 66.7087 135.456 63.9151 131.904 62.3739C129.552 61.4106 124.08 61.4587 122.16 62.4702ZM128.832 63.6743C131.664 64.9266 132.816 69.9358 131.28 73.9817C129.648 78.3165 124.848 78.4128 123.168 74.1262C121.584 70.1766 122.688 65.2156 125.424 63.867C127.296 62.9518 127.344 62.9518 128.832 63.6743Z" fill="white"/>
<path d="M137.76 61.9404C137.76 62.133 138.576 63.8188 139.632 65.6972C140.64 67.5757 142.416 70.8509 143.52 72.9702C144.672 75.0895 145.776 77.0642 146.016 77.4014C146.688 78.2683 144.96 80.8211 141.648 83.9518L138.816 86.5528L140.304 87.4197L141.792 88.2867L143.856 86.0229C145.248 84.4335 147.744 80.0986 151.44 72.6812L156.96 61.6514H154.464C152.544 61.6514 152.112 61.7959 152.544 62.2294C152.88 62.5665 153.12 63.0482 153.12 63.3853C153.12 64.1078 149.376 72.2477 149.04 72.2477C148.896 72.2477 147.6 69.8395 146.16 66.9495L143.52 61.6514H140.64C139.056 61.6514 137.76 61.7959 137.76 61.9404Z" fill="white"/>
<path d="M161.424 62.1812C159.696 62.6628 157.824 64.7339 158.208 65.6972C158.352 66.0826 159.264 66.4679 160.224 66.6606C162.816 67.094 163.2 67.0459 162.912 66.2271C162.528 65.2156 164.832 63.0963 166.32 63.0963C168.528 63.0963 169.44 63.9151 169.44 65.9381V67.7683L165.744 68.5872C163.68 69.0206 161.232 69.7913 160.32 70.2248C156.624 72.055 156.192 76.8716 159.648 78.3165C161.76 79.1835 166.272 79.1835 168 78.2684C169.2 77.6422 169.392 77.6422 169.632 78.2684C169.824 78.7982 170.64 78.9908 172.32 78.9908H174.72V71.6216C174.72 64.3005 174.72 64.2041 173.472 63.0482C172.368 61.9885 171.792 61.8922 167.616 61.7959C165.072 61.7477 162.288 61.8922 161.424 62.1812ZM169.44 72.7294C169.44 75.4266 169.344 75.6193 168 76.3417C166.176 77.305 164.688 77.2569 163.584 76.2454C161.568 74.4633 163.152 71.3807 166.56 70.4174C169.44 69.5986 169.44 69.5986 169.44 72.7294Z" fill="white"/>
<path d="M224.64 62.711C222.96 63.578 222.432 64.1078 222.336 65.1193C222.192 66.1789 222.384 66.4679 223.104 66.4679C223.632 66.4679 224.736 66.6124 225.552 66.7569C226.896 67.0459 227.04 66.9495 227.04 65.8417C227.04 63.578 230.496 62.2294 232.512 63.7225C232.992 64.0596 233.376 65.0229 233.424 65.9862L233.52 67.5757L229.44 68.6353C224.832 69.7913 222.48 70.8509 221.76 72.1995C220.944 73.789 221.232 75.9564 222.432 77.4014C223.44 78.5573 223.968 78.75 226.896 78.8945C229.344 79.039 230.64 78.8945 231.744 78.3165C233.568 77.3532 233.76 77.3532 233.76 78.2684C233.76 78.7982 234.336 78.9908 236.16 78.9908H238.56V71.6216C238.56 64.3005 238.56 64.2041 237.312 63.0482C236.208 62.0367 235.584 61.8922 231.456 61.7477C227.376 61.6032 226.56 61.7477 224.64 62.711ZM233.568 72.5849C233.52 75.0413 233.376 75.3784 232.08 76.1973C228.528 78.3647 225.264 76.0528 227.088 72.633C227.664 71.5734 231.024 69.8876 232.656 69.8395C233.568 69.8395 233.664 70.0803 233.568 72.5849Z" fill="white"/>
<path d="M242.448 62.9037C243.552 64.0596 243.6 64.445 243.744 71.5734L243.888 79.039L246.384 78.8945L248.88 78.75L249.024 72.4885L249.168 66.2271L250.848 65.0711C252.72 63.7706 255.216 63.5298 255.888 64.5895C256.128 64.9748 256.32 68.3463 256.32 72.1514V79.039L258.864 78.8945L261.36 78.75L261.504 71.6216L261.648 64.4931L260.208 63.0963C258.96 61.844 258.48 61.6514 255.984 61.6514C253.92 61.6514 252.672 61.9885 251.184 62.8555L249.12 64.0115V62.8073C249.12 61.6995 249.024 61.6514 245.184 61.6514H241.296L242.448 62.9037Z" fill="white"/>
</svg>
