<svg width="200" height="131" viewBox="0 0 200 131" fill="none" xmlns="http://www.w3.org/2000/svg">
<path fill-rule="evenodd" clip-rule="evenodd" d="M105.682 55.7833L105.62 55.7717C109.513 59.1267 110.18 63.9582 110.772 68.2528C110.789 68.3735 110.805 68.4937 110.822 68.6135C110.34 67.8258 109.987 67.1812 109.657 66.5808C109.231 65.805 108.846 65.1031 108.278 64.2615C110.877 73.5994 102.759 81.0531 100.155 83.4357C103.694 75.6388 103.707 72.924 103.434 69.2671C102.866 72.0038 102.19 73.1885 101.336 73.971C102.009 68.5654 101.005 61.6145 100.199 57.5444C100.094 60.0101 99.3923 62.6549 97.7027 64.561C96.5901 56.0493 95.2808 48.3442 91.2741 41.3911C90.7998 41.3954 90.3364 41.4107 89.8774 41.4457C89.344 42.3725 88.8347 43.3452 88.367 44.3594L88.1943 43.9922C90.8391 63.4528 99.471 94.4698 110.031 113.456L102.448 115.913C98.3038 106.833 94.7977 96.8283 92.0676 86.8915L85.2915 100.571L82.6401 106.387L79.8487 112.573H70.8715L86.7363 79.7307H90.2337C86.8544 65.5599 85.1538 52.0077 85.5625 42.0687V42.0556L85.5778 42.025L84.7844 42.1714C84.959 41.8865 85.1502 41.612 85.3571 41.3495L84.9199 41.2708C81.7854 43.3102 78.7821 46.4578 76.9525 52.8864C75.8137 49.5443 76.5197 46.318 77.2432 43.354C76.0215 45.7727 75.7832 47.0707 75.561 48.2816C75.2933 49.7397 75.0489 51.0716 73.1382 54.0821C72.0562 55.7892 70.1895 59.0133 69.3152 60.7183C68.1829 58.4406 69.0354 53.3432 69.6168 51.1989C67.5315 55.0154 66.7337 61.0636 66.9938 67.2845C66.8915 67.1229 66.7551 66.9526 66.5931 66.7502C65.7691 65.7207 64.2813 63.8618 63.2254 58.104C62.6496 62.9805 63.6757 65.4777 64.7936 68.1982C65.5512 70.042 66.351 71.9884 66.7228 74.8475C59.3871 69.3786 56.646 61.6516 61.8352 54.6569C60.6765 55.3912 60.0769 56.2707 59.256 57.4746C59.075 57.7401 58.8832 58.0214 58.6723 58.3204C58.7707 55.3608 62.1544 48.8645 67.0572 47.448C65.616 47.6224 64.2063 47.9977 62.8691 48.5628C66.6135 44.0053 70.0059 42.1037 75.2235 41.1419C74.3236 41.0362 73.6251 41.2105 72.8632 41.4006C72.2852 41.5447 71.6708 41.698 70.9043 41.7452L71.5185 41.426C67.3916 42.1037 63.232 43.2556 58.8931 44.5496C59.951 42.2282 62.08 40.508 64.279 39.4151C60.2286 40.3353 53.4678 42.2523 48.8164 45.0611C49.1858 43.9594 49.9989 42.8621 52.2613 41.2293C48.8076 42.4709 46.3398 43.5922 40.6566 49.9923L40.6602 49.9818C41.7853 46.6282 45.2832 36.2026 54.8646 34.768C53.8662 34.5948 53.0706 34.5279 52.1927 34.4541C51.5079 34.3965 50.7729 34.3347 49.8525 34.215C49.9793 34.1784 50.1067 34.1416 50.2346 34.1047C54.3902 32.9042 59.0769 31.5503 63.6998 33.7494L63.6626 33.6957C63.0019 32.7412 62.5049 32.0232 60.6746 31.2378C67.0965 31.5067 71.2278 31.6903 75.8793 34.2281C75.4413 33.6984 74.9712 33.1962 74.4716 32.7242C70.7797 31.181 66.9829 30.1471 62.9981 29.17C64.2877 27.2771 66.3927 26.5973 68.4627 26.6213C64.8473 25.4126 58.7423 23.7951 54.281 24.2781C54.7837 23.3076 55.6668 22.5841 57.8745 22.0617C54.7138 21.524 52.4077 21.3819 46.471 25.1219C47.9857 22.1688 52.7334 12.9577 61.1817 16.6211C60.3564 15.8929 59.6864 15.3924 58.9476 14.8404C58.3714 14.4099 57.7533 13.9481 56.987 13.3227C57.0749 13.3452 57.1631 13.3676 57.2515 13.3902C61.0356 14.355 65.2928 15.4404 68.9239 20.2912C68.9128 20.254 68.9018 20.2171 68.8909 20.1804C68.4864 18.8222 68.1815 17.7986 66.7534 15.9894L66.7616 15.9951C71.9768 19.592 75.4155 21.9637 78.817 26.735L79.0728 26.864C78.5463 25.4654 77.9255 24.1041 77.2148 22.7896C78.5779 24.1384 79.8624 25.5644 81.0619 27.0607C80.1635 25.1087 79.0706 22.5841 77.6432 18.8791C79.2083 19.6441 80.5985 20.0988 81.3941 19.4649C80.3427 17.0933 80.0411 14.9315 80.2422 12.9074L83.3024 16.8419L80.6794 10.5576C80.8565 9.93778 81.0704 9.32904 81.3198 8.73462C81.7696 8.95022 82.3323 9.96477 82.8949 10.979C83.4558 11.9905 84.0167 13.0017 84.4652 13.22C84.3734 8.15756 86.5155 2.40442 89.2544 0C90.0391 4.20993 89.9583 8.06138 88.7276 11.4232C89.2366 11.3521 89.7175 11.0727 90.198 10.7936C90.6771 10.5153 91.1557 10.2373 91.661 10.1663C91.6143 11.181 91.4915 12.1908 91.2938 13.1872L87.9495 15.6244L91.1364 14.0025C90.3364 17.8649 88.7582 22.7677 87.1582 24.9317C89.5582 22.2497 91.0031 20.6627 92.4785 20.0245C90.3889 23.1306 89.5757 25.6661 89.2653 27.9263C89.5954 27.1219 89.9583 26.311 90.3583 25.5C90.2782 26.8604 90.3567 28.2256 90.5921 29.5679C91.6698 24.3852 94.2053 21.1174 98.1508 16.0419C97.5628 17.9426 97.7863 18.7809 98.0847 19.9008C98.0914 19.9258 98.0981 19.951 98.1049 19.9764C99.4365 15.0122 103.528 12.3095 107.153 9.91504C107.247 9.85289 107.341 9.79095 107.434 9.72917C106.935 10.4983 106.51 11.0946 106.115 11.6496C105.598 12.3753 105.131 13.0303 104.614 13.9085C111.905 7.52824 122.105 11.6085 125.399 12.9259L125.413 12.9314C116.846 13.1107 114.394 14.2779 111.22 16.1009C113.922 15.4386 115.279 15.5195 116.372 15.9566C111.209 17.6856 105.373 21.6005 102.055 24.0923C104.321 23.1218 107.006 22.6125 109.452 23.312C103.701 27.0585 98.4808 30.6826 94.3015 35.3647C96.7095 34.4635 99.2056 33.818 101.749 33.439C101.103 33.8625 100.514 34.1061 99.9603 34.3352C99.2367 34.6347 98.573 34.9094 97.9191 35.5286C102.686 33.1964 106.542 32.7111 112.267 34.1428C110.856 34.4881 109.5 35.0281 108.238 35.7472C113.021 33.9614 119.611 37.1768 121.445 39.4959C121.078 39.3758 120.739 39.2582 120.42 39.1473C119.073 38.6793 118.074 38.3325 116.726 38.4314C125.063 40.9692 127.454 48.8076 124.814 57.5707C123.413 55.0534 122.897 53.0126 122.408 51.0798C121.687 48.2244 121.025 45.6045 117.655 42.0315C120.228 47.283 120.143 49.6632 120.095 50.9905C120.086 51.2532 120.078 51.4746 120.092 51.6689C116.597 46.5212 112.35 42.1299 108.415 40.3025C110.153 41.6752 113.869 45.2644 114.317 47.7672C112.608 46.9103 109.183 45.4371 107.294 44.707C103.971 43.4287 102.98 42.503 101.897 41.4907C100.996 40.6491 100.031 39.7477 97.6087 38.5342C99.8754 40.4096 102.245 42.4731 103.373 45.6185L103.998 46.3945C102.805 45.7344 101.539 45.2136 100.227 44.8425C104.435 48.0579 106.289 51.7607 109.146 57.5204C107.677 56.1528 106.828 55.9956 105.682 55.7833ZM19.1059 92.4098C21.2728 92.7873 23.5695 93.1875 24.3874 93.3616C28.2017 94.0589 34.6674 95.4535 34.6587 102.667C34.6587 113.224 22.0967 113.596 17.9589 113.596C12.562 113.596 4.23397 112.667 0 104.339L7.49087 102.385C9.35102 106.339 14.0506 107.55 18.5163 107.55C20.5163 107.55 26.7962 107.224 26.7962 103.222C26.7962 100.842 24.5164 100.293 22.7502 99.9672C22.0006 99.8168 19.5885 99.4322 17.3283 99.0718L17.3269 99.0715C15.5146 98.7825 13.8003 98.5092 13.1194 98.3847C10.0964 97.8273 2.46563 96.3737 2.46563 88.9418C2.47021 87.3 2.92374 85.6908 3.77713 84.2882C6.52255 79.8706 12.5708 78.7077 17.7796 78.7077C22.571 78.7077 26.2476 79.405 29.6422 81.2652C31.92 82.4844 33.8068 84.3227 35.0849 86.568L27.2705 88.5222L27.2648 88.5117C26.9819 87.9943 26.3262 86.7953 24.3874 85.8248C22.1994 84.7538 19.3622 84.568 17.7796 84.568C14.1468 84.568 10.4308 85.2653 10.4308 88.3823C10.4308 90.5222 12.3369 91.0818 14.8025 91.6392C15.4303 91.7694 17.2189 92.081 19.1059 92.4098ZM196.107 110.708H195.41V110.311H197.237V110.708H196.54V112.573H196.107V110.708ZM93.954 130.479L96.2141 125.299H97.0513L99.3136 130.479H98.3606L97.8382 129.24H95.4075L94.8786 130.479H93.954ZM96.6119 126.377L95.7376 128.433H97.5016L96.6119 126.377ZM37.2489 128.287H34.6718V129.668H37.6161V130.475H33.769V125.334H37.579V126.143H34.6718V127.478H37.2489V128.287ZM44.6655 125.334L47.4196 128.89V125.334H48.3093V130.475H47.553L44.7179 126.818V130.475H43.8283V125.334H44.6655ZM54.4034 126.173H56.0318V130.475H56.9433V126.173H58.574V125.334H54.4034V126.173ZM68.1501 128.287H65.5708V129.668H68.5173V130.475H64.6681V125.334H68.4802V126.143H65.5708V127.478H68.1501V128.287ZM78.9285 126.967V126.982C78.9285 127.817 78.4236 128.324 77.7022 128.534L79.0902 130.479H78.0257L76.7623 128.689H75.6323V130.479H74.7295V125.343H77.0203C77.5631 125.314 78.0957 125.498 78.5044 125.856C78.7867 126.156 78.9391 126.555 78.9285 126.967ZM75.6323 126.167V127.891H76.9525C77.5973 127.891 78.0083 127.555 78.0083 127.032V127.019C78.0083 126.466 77.6126 126.167 76.9438 126.167H75.6323ZM86.4194 126.173H84.7887V125.334H88.9615V126.173H87.3287V130.475H86.4194V126.173ZM106.289 125.334H105.386V130.475H106.289V125.334ZM116.394 128.89L113.64 125.334H112.802V130.475H113.692V126.818L116.527 130.475H117.283V125.334H116.394V128.89ZM124.707 125.334L126.269 127.767L127.834 125.334H128.796V130.475H127.894V126.79L126.269 129.214H126.241L124.632 126.803V130.475H123.745V125.334H124.707ZM136.16 128.287H138.74V127.478H136.16V126.143H139.07V125.334H135.258V130.475H139.107V129.668H136.16V128.287ZM146.156 125.334L148.91 128.89V125.334H149.798V130.475H149.042L146.206 126.818V130.475H145.319V125.334H146.156ZM155.892 126.173H157.523V130.475H158.432V126.173H160.063V125.334H155.892V126.173ZM199.55 110.311L198.868 111.384L198.186 110.311H197.722V112.573H198.14V110.964L198.839 112.053H198.883L199.58 110.964V112.573H200V110.311H199.55ZM74.0235 90.0107C74.0235 93.1736 73.0005 95.3136 71.7896 96.7562C69.0922 100.013 65.138 100.199 60.8975 100.199H49.4065V112.573H41.3189V79.6826H61.6013C65.0921 79.6826 69.6037 79.8291 72.2092 83.545C73.3677 85.2194 74.0235 87.4992 74.0235 90.0107ZM49.4065 94.4305H59.5488H59.5663C62.2068 94.4305 65.8353 94.3846 65.8288 90.0107C65.8288 88.2424 65.2233 87.1276 64.4342 86.3822C63.3172 85.4051 62.1085 85.4051 58.6658 85.4051H49.4065V94.4305ZM146.606 96.8021C148.932 95.036 149.769 92.0588 149.769 89.5451C149.769 87.6391 149.304 85.1734 147.629 83.2193C144.884 80.0564 141.487 79.722 137.767 79.722H115.159V112.573H123.393V99.3617H132.742L141.535 112.573H151.21L141.256 98.8503C142.558 98.6164 144.838 98.153 146.606 96.8021ZM136.508 93.5387H123.393V85.4991H136.138C139.395 85.4991 140.187 86.2904 140.79 87.0795C141.35 87.8708 141.446 88.9877 141.446 89.6391C141.441 93.3201 138.278 93.5387 136.508 93.5387ZM191.591 79.7307H181.029L164.981 94.1048V79.7307H156.841V112.573H164.981V102.71L169.958 98.4306L182.843 112.573H193.823L175.589 93.5933L191.591 79.7307Z" fill="white"/>
</svg>
