<svg width="300" height="105" viewBox="0 0 300 105" fill="none" xmlns="http://www.w3.org/2000/svg">
<g clip-path="url(#clip0_88_156)">
<path d="M45.978 0.113894C45.6223 0.162981 44.4792 0.334795 43.4377 0.482073C29.873 2.34752 17.1719 10.5948 8.99237 22.7938C4.47079 29.5438 1.24471 38.4047 0.254022 46.7256C0.101609 48.0265 0 55.9056 0 65.7728V82.6109L10.3641 82.7582C23.5224 82.9546 24.5131 83.1019 29.7206 85.8018C32.2862 87.1273 33.8611 88.1337 37.8747 91.0546C45.2159 96.3564 50.2963 98.3445 57.2819 98.5654C61.5495 98.7127 64.674 98.1973 68.7129 96.6509C72.2184 95.35 74.403 93.8773 78.8738 89.8764C80.9822 88.0109 84.5131 84.8937 86.7485 82.9546C88.9839 81.0155 91.2701 79.0273 91.8289 78.5364C92.3878 78.0455 94.5215 76.1801 96.5537 74.3882C100.237 71.1728 100.999 70.2646 101.279 68.6201C101.761 65.6255 98.6113 62.6801 95.3852 63.1465C93.7341 63.3919 93.9627 63.2201 84.3607 71.6146C70.7705 83.4946 67.2904 86.44 66.3505 86.8818C65.5122 87.2746 64.7502 87.4218 63.3023 87.4218C61.2701 87.4218 60.1778 87.0537 58.3234 85.7773C57.0533 84.8937 42.6757 70.0928 42.6757 69.6755C42.6757 69.1355 43.4885 68.4483 44.1236 68.4483C44.4538 68.4483 46.232 70.0437 49.3056 73.161C51.8713 75.7628 54.9449 78.88 56.1642 80.1073C57.3835 81.31 58.6791 82.66 59.0347 83.1019C60.9398 85.3109 65.0042 85.4582 66.9856 83.3964C68.3573 81.9482 68.7129 79.4691 67.8238 77.7755C67.3666 76.9164 52.3285 61.3301 46.613 55.7828C42.2946 51.6101 39.7036 50.481 32.718 49.6465C31.4987 49.5238 31.4987 49.4992 31.4987 48.6156C31.4987 47.2901 32.1592 44.5411 32.9212 42.602C34.5216 38.5765 38.2303 34.6493 42.2692 32.7347C43.5394 32.1211 45.3175 31.4584 46.232 31.2129C48.2388 30.722 52.6587 30.6729 54.5893 31.1393C60.7874 32.5874 65.9949 37.0547 68.3065 42.9701C69.1194 45.0074 69.856 48.3947 69.856 50.0638C69.856 51.8556 71.685 52.6656 72.9043 51.3892C73.4631 50.8247 73.4885 50.6529 73.3361 48.7383C72.193 34.4774 58.7553 24.5611 45.1397 27.9484C38.7891 29.4947 33.4547 33.7656 30.381 39.6811C29.2379 41.8902 28.2472 45.1547 27.9932 47.5847L27.8154 49.4256L25.9864 49.4992C23.8273 49.5729 23.9289 49.7692 24.4115 46.4556C25.6816 37.6438 31.2447 30.0347 39.2718 26.132C51.7443 20.0938 66.7824 24.9784 73.6409 37.2756C75.7239 41.0556 77.0448 46.3329 76.9686 50.6529C76.9432 51.8556 76.9432 53.0583 76.9432 53.2792C76.994 54.0156 77.9085 54.7028 78.8484 54.7028C80.906 54.7028 81.287 53.991 81.287 50.2601C81.287 35.7783 71.8374 23.7266 57.6884 20.1675C54.6655 19.4066 49.5851 19.1611 46.486 19.5784C37.8493 20.8057 30.127 25.5429 25.2752 32.612C22.3031 36.9074 20.2963 42.4056 19.9153 47.3147L19.7375 49.5483H17.9593H16.1812L16.359 47.6338C17.8069 32.2193 29.873 19.0629 44.9619 16.5348C48.0355 16.0193 53.243 16.0193 56.2658 16.5348C67.519 18.4739 77.4005 26.3529 82.0237 37.1038C84.1829 42.1601 84.9703 46.2592 84.8941 52.2974C84.8433 55.7583 84.9957 56.4456 86.0118 57.0592C87.4089 57.9428 89.3395 57.4519 90.0508 56.0528C90.5842 54.9483 90.5842 48.4438 90.0254 44.9338C87.7138 29.7893 76.8924 17.0502 62.4894 12.5339C58.044 11.1348 56.2658 10.8893 50.5504 10.8893C44.7333 10.8893 43.0313 11.1348 38.3827 12.632C23.1922 17.5166 12.2439 31.3602 10.7959 47.5356L10.5927 49.5483H9.11939C7.36663 49.5483 7.41744 49.7692 8.02709 45.9156C10.3641 30.6484 19.6359 17.762 32.8958 11.3802C38.9162 8.48387 43.9204 7.33024 50.5504 7.33024C61.7527 7.33024 71.7866 11.5521 79.9153 19.6275C84.8687 24.5857 88.4758 30.2311 90.7874 36.7602C92.8196 42.4301 93.5055 46.382 93.6579 53.3283C93.7849 58.9983 93.8865 59.4892 95.3344 60.3728C95.9695 60.7655 96.4775 60.8392 97.6206 60.7655C98.9161 60.6919 99.1955 60.5692 100.008 59.8083C100.821 58.9983 100.923 58.7774 101.177 56.7647C101.482 54.2365 101.126 47.4374 100.466 43.7801C98.3827 32.0474 92.8958 21.6893 84.5385 13.712C76.6384 6.15206 66.8078 1.53753 55.8848 0.212069C53.878 -0.00884005 47.4259 -0.0824714 45.978 0.113894Z" fill="white"/>
<path d="M49.3832 34.7966C47.605 35.8521 47.7829 38.3803 49.688 39.1412C50.8819 39.6321 51.898 39.4112 52.7109 38.4539C54.5652 36.343 51.8218 33.3239 49.3832 34.7966Z" fill="white"/>
<path d="M42.3422 37.5206C41.8341 37.9134 41.6562 38.257 41.6562 38.9197C41.6562 39.7052 41.8595 39.9752 43.3836 41.3006C48.2101 45.5224 48.4387 45.9397 48.6673 51.4624C48.7943 54.1133 48.9467 55.1933 49.2008 55.4879C49.785 56.1261 50.9027 56.2733 51.7918 55.8315C52.7063 55.3652 52.7825 55.0215 52.8841 50.6279C52.9603 47.5597 53.011 47.3388 53.7985 45.8415C54.4589 44.5897 55.1449 43.8288 57.1516 42.1106C58.5488 40.9325 59.7427 39.7052 59.8189 39.4106C60.1745 38.1097 58.8535 36.8088 57.5326 37.1279C57.2531 37.2016 55.7799 38.3061 54.2812 39.607C50.6487 42.6997 50.7503 42.6997 47.1686 39.607C44.1711 37.0052 43.4345 36.6861 42.3422 37.5206Z" fill="white"/>
<path d="M122.49 51.1927L122.567 59.489L123.354 61.0844C124.345 63.1217 125.361 64.2508 126.961 65.0853C129.578 66.4599 132.956 66.8281 136.157 66.0917C139.103 65.429 141.161 63.809 142.482 61.109L143.142 59.7345L143.219 51.3154L143.295 42.9209H140.628H137.935V50.3336C137.935 57.059 137.884 57.869 137.452 58.7526C135.954 61.8944 131.915 62.6554 129.425 60.2499C127.876 58.7526 127.774 58.0654 127.774 49.9408V42.9209H125.081H122.414L122.49 51.1927Z" fill="white"/>
<path d="M165.367 44.8846V46.8482H167.908H170.448V44.8846V42.9209H167.908H165.367V44.8846Z" fill="white"/>
<path d="M174.969 46.1608L174.893 49.4254L170.143 49.499L165.367 49.5481V57.7708V65.9935H167.907H170.448V59.7344V53.4754H172.709H174.995L175.071 58.4826C175.147 64.1771 175.198 64.349 177.332 65.5026C178.322 66.0426 178.729 66.1162 181.117 66.1162C182.59 66.1162 183.987 66.0426 184.241 65.9444C184.597 65.7971 184.673 65.429 184.673 63.8335V61.919L183.073 62.0172C181.777 62.0908 181.371 62.0417 180.863 61.6244C180.253 61.1335 180.228 61.0353 180.151 57.3044L180.075 53.4754H182.361H184.673V51.5117V49.5481H182.387H180.101V46.2345V42.9209H177.56H175.046L174.969 46.1608Z" fill="white"/>
<path d="M217.949 46.9954V51.0454L217.06 50.3826C215.815 49.4745 214.52 49.0817 212.691 49.0572C209.49 49.0572 207.026 50.6036 205.578 53.5981C204.943 54.9235 204.867 55.3163 204.867 57.7708C204.867 61.109 205.4 62.459 207.407 64.2262C210.354 66.8281 214.647 66.9508 217.517 64.5208L218.457 63.7353V64.8644V65.9935H220.743H223.029V54.4572V42.9209H220.489H217.949V46.9954ZM216.603 54.1381C218.305 55.3408 218.889 57.7708 217.898 59.6117C217.085 61.1581 215.942 61.8208 214.139 61.8208C213.046 61.8208 212.487 61.6735 211.852 61.2563C210.354 60.2744 209.947 59.5135 209.947 57.6481C209.947 55.7581 210.328 55.0217 211.878 54.0154C212.614 53.5245 212.996 53.4508 214.316 53.5245C215.409 53.5981 216.12 53.7699 216.603 54.1381Z" fill="white"/>
<path d="M231.951 44.5656C232.206 45.4983 233.806 50.6528 235.457 56.0528L238.48 65.871H240.842H243.179L245.796 58.3355C247.218 54.1874 248.463 50.6774 248.59 50.5056C248.692 50.3337 249.555 52.4201 250.648 55.5865C251.689 58.5319 252.959 62.091 253.442 63.4655L254.331 65.9937H256.693H259.056L259.564 64.3246C260.758 60.5446 265.965 43.191 265.965 43.0683C265.965 42.9947 264.771 42.921 263.298 42.921H260.656L260.427 43.7065C260.3 44.1483 259.437 47.4865 258.471 51.0946C257.506 54.7028 256.642 57.5746 256.566 57.4765C256.465 57.3783 255.271 54.0401 253.899 50.0883L251.435 42.8965L248.869 42.9701L246.278 43.0438L245.211 45.9892C244.627 47.6092 243.484 50.7756 242.671 53.0337C241.858 55.3165 241.147 57.1574 241.071 57.1574C240.995 57.1574 240.207 54.3101 239.318 50.8246C238.429 47.3637 237.591 44.1483 237.464 43.7065L237.235 42.921H234.339H231.469L231.951 44.5656Z" fill="white"/>
<path d="M153.809 49.4497C153.251 49.6461 152.362 50.2106 151.854 50.7015L150.889 51.6097V50.5788V49.5479H148.475H146.062V57.7706V65.9933H148.602H151.143V61.2561C151.143 58.6788 151.269 56.1261 151.396 55.6352C152.209 52.8615 156.197 52.6897 156.985 55.3897C157.112 55.8806 157.24 58.4824 157.24 61.1333V65.9933H159.779H162.32V60.1515C162.32 53.6961 162.091 52.297 160.846 50.7997C159.55 49.2534 156.197 48.6152 153.809 49.4497Z" fill="white"/>
<path d="M192.268 49.3762C187.772 50.6035 185.079 54.8007 185.918 59.2434C186.477 62.0907 188.179 64.2016 190.947 65.4289C192.98 66.3371 196.18 66.4843 198.212 65.7971C199.762 65.2571 202.201 63.6862 202.201 63.2198C202.201 63.048 201.439 62.3853 200.524 61.7471L198.822 60.5689L198.162 61.1825C197.374 61.9189 195.875 62.5571 194.91 62.5571C193.97 62.5571 192.167 61.6734 191.684 60.9862C191.481 60.6671 191.227 60.1025 191.125 59.7589L190.973 59.1207H197.12H203.293L203.166 57.0835C202.81 52.0026 200.219 49.3026 195.494 49.1307C194.326 49.1062 192.929 49.2044 192.268 49.3762ZM196.536 53.1316C197.273 53.5735 197.806 54.408 197.933 55.1935L198.009 55.8071L194.529 55.8807C190.592 55.9544 190.49 55.9053 191.532 54.2607C192.522 52.6898 194.961 52.1498 196.536 53.1316Z" fill="white"/>
<path d="M269.515 49.4502C268.042 49.8429 266.264 50.7266 265.705 51.3893C265.4 51.7329 265.527 51.9538 266.645 53.0338L267.94 54.2857L269.16 53.4511C270.303 52.6902 270.557 52.6166 272.233 52.6166C273.935 52.6166 274.139 52.6657 274.824 53.3529C275.231 53.7457 275.663 54.3838 275.739 54.7275L275.891 55.3657L273.148 55.5375C267.255 55.8811 264.664 57.3538 264.257 60.5693C264.054 62.2384 264.664 63.7602 265.984 64.8647C267.28 65.9202 268.804 66.3374 270.989 66.1902C272.919 66.0429 273.885 65.6502 275.053 64.4965L275.866 63.6865V64.8402V65.9938H278.152H280.438V60.2747C280.438 53.5247 280.261 52.592 278.584 50.9229C277.822 50.1375 277.136 49.7448 276.145 49.4502C274.443 48.9593 271.395 48.9593 269.515 49.4502ZM275.866 59.4156C275.866 61.3793 274.189 62.8274 271.929 62.852C269.846 62.9011 268.652 61.4038 269.617 59.9802C270.15 59.1947 271.979 58.6793 274.164 58.6547L275.866 58.6302V59.4156Z" fill="white"/>
<path d="M281.428 50.5788C281.682 51.1679 283.333 54.8497 285.111 58.7524C286.864 62.6797 288.312 66.0179 288.312 66.1897C288.312 66.3369 288.007 67.0733 287.626 67.8342C286.788 69.4788 285.772 70.0433 284.019 69.8469C283.384 69.7733 282.673 69.6506 282.444 69.5524C282.088 69.4297 281.961 69.6751 281.733 70.976C281.301 73.4306 281.326 73.5533 282.419 73.7742C282.927 73.8724 284.4 73.9706 285.645 73.946C289.252 73.9215 290.649 72.9642 292.021 69.6506C294.053 64.6679 299.997 49.8179 299.997 49.6952C299.997 49.6215 298.828 49.5479 297.381 49.5479H294.789L292.91 54.997C291.462 59.2433 290.979 60.3479 290.801 59.9797C290.674 59.7097 289.709 57.2797 288.617 54.5797L286.635 49.6706L283.79 49.597L280.945 49.5234L281.428 50.5788Z" fill="white"/>
<path d="M65.2095 52.6658C62.593 54.7767 55.6328 60.9376 55.6328 61.1339C55.6328 61.2812 56.2933 62.0421 57.1315 62.8767L58.6049 64.3494L63.6599 59.9558C66.4542 57.5503 68.842 55.3903 69.0198 55.194C69.5787 54.5312 69.4263 53.034 68.715 52.3712C67.7751 51.4385 66.632 51.5367 65.2095 52.6658Z" fill="white"/>
<path d="M73.2858 55.1201C72.8794 55.341 71.9649 56.0283 71.2536 56.6665C70.5677 57.3046 67.9767 59.5628 65.5381 61.6983C63.0995 63.8092 60.9403 65.6992 60.737 65.871C60.4576 66.141 60.7624 66.5828 62.7692 68.5464L65.157 70.8783L71.3806 65.3801C76.2579 61.1092 77.6804 59.7101 77.9344 58.9983C78.8743 56.2983 75.8514 53.7701 73.2858 55.1201Z" fill="white"/>
<path d="M82.9154 59.0468C82.4836 59.2923 78.6987 62.4587 74.4819 66.1159L66.8359 72.7186L68.0552 73.9705C69.4777 75.4432 70.4684 77.0141 70.8748 78.4868L71.1542 79.5668L71.9671 78.8305C72.4243 78.4132 76.1585 75.1977 80.2736 71.6386C84.3888 68.1041 87.9705 64.8886 88.2499 64.4959C88.8341 63.5877 88.8595 61.6977 88.3007 60.6668C87.3862 58.9241 84.6428 58.1141 82.9154 59.0468Z" fill="white"/>
<path d="M161.305 87.1024V95.4723L162.651 95.3987L163.972 95.3251L164.099 91.7414C164.226 87.8387 164.353 87.4951 165.725 87.1515C166.766 86.8815 167.757 87.2251 168.138 87.986C168.291 88.3542 168.418 89.9742 168.418 92.0114V95.4478H169.84H171.263L171.161 91.3242C171.085 86.6851 170.831 85.8996 169.18 85.0651C167.986 84.476 165.979 84.5987 164.912 85.3596L164.125 85.8996L164.048 82.3896L163.972 78.8797L162.651 78.806L161.305 78.7324V87.1024Z" fill="white"/>
<path d="M253.059 80.1321C252.678 80.3775 252.5 80.7457 252.5 81.3348C252.5 82.7584 254.253 83.4457 255.294 82.4393C256.336 81.433 255.624 79.7393 254.151 79.7393C253.871 79.7393 253.363 79.9111 253.059 80.1321Z" fill="white"/>
<path d="M123.203 87.7407V95.4971L127.216 95.3743C131.712 95.2516 132.754 95.0061 134.761 93.5334C135.624 92.8952 136.259 92.1589 136.793 91.1525C137.479 89.8516 137.555 89.4834 137.53 87.4953C137.53 84.7707 136.971 83.4453 135.142 81.8744C133.313 80.2789 132.068 79.9844 127.242 79.9844H123.203V87.7407ZM131.154 82.7089C132.347 83.028 133.846 84.2553 134.278 85.3107C134.812 86.5135 134.735 88.9189 134.126 90.048C133.135 91.9134 131.331 92.748 128.105 92.8216L126.124 92.8707L126.048 87.6425L125.997 82.4389H128.08C129.248 82.4389 130.62 82.5617 131.154 82.7089Z" fill="white"/>
<path d="M212.109 87.7162V95.448H213.507H214.904V92.1344V88.8207H215.996H217.088L218.943 92.1344L220.797 95.448H222.448C224.429 95.448 224.455 95.7425 221.915 91.668L220.06 88.6734L221.33 88.0844C222.245 87.6425 222.753 87.2007 223.109 86.538C223.718 85.3844 223.769 83.3471 223.21 82.3162C222.219 80.4262 220.822 79.9844 215.894 79.9844H212.109V87.7162ZM219.019 82.4389C221.051 83.0035 221.381 85.1389 219.552 86.0716C219.247 86.2435 218.079 86.3662 216.961 86.3662H214.904V84.4516C214.904 83.3962 214.98 82.4389 215.081 82.3653C215.335 82.0953 217.977 82.1689 219.019 82.4389Z" fill="white"/>
<path d="M156.805 85.1148C156.373 85.3848 155.89 85.802 155.738 86.0475C155.509 86.4157 155.484 86.3666 155.458 85.6793V84.8938H154.061H152.664V90.1711V95.4484H154.061H155.458V92.1102V88.772L156.348 87.9129C157.135 87.152 157.364 87.0539 158.38 87.152L159.523 87.2257V85.9493V84.6484H158.583C158.05 84.6484 157.262 84.8693 156.805 85.1148Z" fill="white"/>
<path d="M176.492 84.8692C176.111 84.992 175.374 85.3356 174.866 85.6301L173.951 86.1947L174.688 86.882L175.425 87.5938L176.415 87.1029C177.99 86.3174 179.692 86.5138 180.531 87.5692C181.293 88.5265 180.962 88.7474 178.676 88.8947C175.882 89.091 174.332 89.7538 173.646 91.1037C171.995 94.3928 177 97.191 179.997 94.6628L180.861 93.9265V94.6874C180.861 95.4237 180.886 95.4483 182.029 95.4483H183.172L183.096 91.1774C183.02 87.2747 182.969 86.8329 182.487 86.1947C182.207 85.8265 181.623 85.3356 181.216 85.1392C180.353 84.722 177.482 84.5747 176.492 84.8692ZM180.607 91.4965C180.607 93.0428 178.651 94.1228 177.025 93.4601C175.729 92.9446 175.806 91.5456 177.177 91.0301C177.457 90.9074 178.346 90.8092 179.159 90.8092C180.581 90.7847 180.607 90.7847 180.607 91.4965Z" fill="white"/>
<path d="M189.832 85.1148C189.4 85.3848 188.917 85.802 188.765 86.0475C188.536 86.4157 188.511 86.3666 188.485 85.6793C188.485 84.8939 188.485 84.8939 187.215 84.8939H185.945V90.1711V95.4484H187.215H188.485V92.3802C188.485 89.2139 188.739 88.0602 189.578 87.3975C190.187 86.882 191.686 86.9311 192.27 87.4466C192.753 87.8639 192.804 88.2566 192.855 91.6193L192.931 95.3257L194.277 95.3993L195.598 95.4729V92.2575C195.598 87.8639 196.03 86.9802 198.265 87.0539C199.713 87.1029 199.916 87.692 199.916 91.7911V95.4484H201.339H202.761L202.66 91.3248C202.584 87.962 202.507 87.0784 202.126 86.4157C201.491 85.2866 200.297 84.6484 198.824 84.6484C197.478 84.6484 196.817 84.8939 195.827 85.802C195.141 86.4157 195.141 86.4157 194.785 85.9002C193.871 84.6484 191.33 84.2557 189.832 85.1148Z" fill="white"/>
<path d="M229.005 85.0406C227.481 85.5806 226.134 86.9796 225.652 88.5505C224.356 92.8951 228.395 96.6505 232.993 95.3496C234.187 95.006 235.736 93.9996 235.736 93.5332C235.736 93.4351 235.355 93.116 234.873 92.7969L234.009 92.2323L233.069 92.8705C231.621 93.8032 230.097 93.7296 228.979 92.6496C227.379 91.1033 227.557 91.0296 232.332 91.0296H236.549L236.397 89.8514C235.99 87.1515 235.279 85.9242 233.628 85.1633C232.332 84.5497 230.504 84.5006 229.005 85.0406ZM232.409 86.9551C233.044 87.2742 233.704 88.2315 233.704 88.8205C233.704 88.9678 232.51 89.066 230.91 89.066C227.709 89.066 227.481 88.8942 228.979 87.446C229.945 86.5133 231.139 86.3415 232.409 86.9551Z" fill="white"/>
<path d="M241.194 85.1149C239.213 85.9985 238.273 87.6185 238.273 90.0976C238.298 92.6748 239.517 94.5158 241.727 95.203C243.048 95.6203 245.233 95.3994 246.147 94.7612C247.113 94.0739 247.163 94.0739 247.163 94.9576C247.163 95.9885 246.579 97.2648 245.868 97.7557C244.903 98.3939 242.464 98.2712 241.067 97.5103L239.949 96.8967L239.238 97.7067C238.857 98.1485 238.552 98.6639 238.603 98.8603C238.628 99.0566 239.213 99.4985 239.924 99.8421C241.016 100.406 241.499 100.48 243.607 100.48C245.792 100.48 246.122 100.406 247.265 99.7685C248.23 99.2285 248.611 98.7866 249.17 97.6821C249.805 96.3321 249.831 96.1848 249.907 90.5885L250.008 84.894H248.713C247.417 84.894 247.417 84.894 247.417 85.6794V86.4649L246.732 85.8267C246.325 85.4585 245.69 85.0412 245.309 84.9185C244.217 84.5012 242.337 84.5994 241.194 85.1149ZM245.97 87.4712C246.605 87.7167 247.189 88.9439 247.214 90.0239C247.24 91.3985 246.605 92.3803 245.36 92.8467C242.032 94.1476 239.314 90.2939 241.854 87.864C242.845 86.9067 244.217 86.784 245.97 87.4712Z" fill="white"/>
<path d="M261.849 84.8934C258.826 85.777 257.175 88.968 258.191 91.938C259.41 95.4479 264.186 96.7488 267.437 94.4661C270.13 92.6007 270.308 88.3543 267.818 86.0716C266.497 84.8444 263.805 84.3288 261.849 84.8934ZM265.634 87.5688C266.218 87.8633 266.98 89.2624 266.98 90.0233C266.98 91.6924 265.481 93.2388 263.881 93.2388C261.925 93.2388 260.63 92.0115 260.63 90.1706C260.63 87.5443 263.119 86.2434 265.634 87.5688Z" fill="white"/>
<path d="M275.941 85.1146C275.509 85.3846 275.027 85.8019 274.874 86.0473C274.646 86.4155 274.62 86.3664 274.595 85.6791C274.595 84.8937 274.595 84.8937 273.325 84.8937H272.055V90.1709V95.4482H273.325H274.595V92.38C274.595 88.1828 275.077 87.1273 276.983 87.0537C277.643 87.0291 278.1 87.1764 278.481 87.5691C278.989 88.06 279.04 88.3791 279.116 91.7909L279.193 95.4727L280.514 95.3991L281.834 95.3255L281.911 91.9137C282.012 86.3664 281.25 84.8937 278.177 84.6973C277.084 84.6482 276.576 84.7464 275.941 85.1146Z" fill="white"/>
<path d="M140.014 88.9926C140.116 93.8281 140.268 94.2944 142.072 95.1781C143.646 95.9144 145.171 95.7426 146.441 94.6626L147.329 93.9262V94.6872C147.329 95.4481 147.355 95.4481 148.6 95.4481H149.87V90.1708V84.8936H148.473H147.076V88.3544V91.8153L146.339 92.5272C145.348 93.4844 144.027 93.509 143.291 92.6008C142.808 92.0117 142.757 91.619 142.757 88.4281V84.8936H141.335H139.938L140.014 88.9926Z" fill="white"/>
<path d="M252.75 90.1708V95.4481H254.147H255.544V90.1708V84.8936H254.147H252.75V90.1708Z" fill="white"/>
<path d="M87.9675 85.6302C86.9006 86.2439 86.3672 87.2993 86.3672 88.7966C86.3672 89.8275 86.4942 90.1711 87.1547 90.9075C88.9328 92.8711 91.9303 92.4784 93.2004 90.122C93.6068 89.3611 93.556 87.692 93.0988 86.8575C92.2351 85.2621 89.6441 84.6239 87.9675 85.6302ZM91.0412 85.7284C92.7685 86.4157 93.556 88.232 92.8447 89.8766C91.4984 92.9938 86.6212 91.9138 86.6212 88.502C86.6212 87.6429 87.6373 86.3175 88.6534 85.8266C89.7203 85.2866 89.9489 85.2866 91.0412 85.7284Z" fill="white"/>
<path d="M88.3984 88.575C88.3984 90.1459 88.4746 90.5386 88.7795 90.5386C89.0335 90.5386 89.1605 90.2932 89.1605 89.8023C89.1605 89.1395 89.2367 89.0659 89.9225 89.0659C90.583 89.0659 90.71 89.1886 90.8624 89.8023C90.9386 90.195 91.091 90.5386 91.2181 90.5386C91.5483 90.5386 91.4975 89.4586 91.1419 89.115C90.9132 88.8941 90.9132 88.7468 91.1419 88.5259C91.3197 88.3541 91.4467 87.9859 91.4467 87.6668C91.4467 87.0041 90.6338 86.6113 89.2621 86.6113H88.3984V88.575ZM90.8878 87.6913C91.0148 88.2313 90.5576 88.575 89.7447 88.575C89.2621 88.575 89.1605 88.4523 89.1605 87.8141C89.1605 87.1268 89.2113 87.0777 89.9734 87.1513C90.5576 87.2004 90.837 87.3723 90.8878 87.6913Z" fill="white"/>
</g>
<defs>
<clipPath id="clip0_88_156">
<rect width="300" height="105" fill="white"/>
</clipPath>
</defs>
</svg>
