<svg width="300" height="144" viewBox="0 0 300 144" fill="none" xmlns="http://www.w3.org/2000/svg">
<path d="M45.978 0.113907C45.6223 0.162994 44.4792 0.334808 43.4377 0.482086C29.873 2.34753 17.1719 10.5948 8.99237 22.7938C4.47079 29.5438 1.24471 38.4047 0.254022 46.7256C0.101609 48.0265 0 55.9056 0 65.7728V82.6109L10.3641 82.7582C23.5224 82.9546 24.5131 83.1019 29.7206 85.8018C32.2862 87.1273 33.8611 88.1337 37.8747 91.0546C45.2159 96.3564 50.2963 98.3445 57.2819 98.5654C61.5495 98.7127 64.674 98.1973 68.7129 96.6509C72.2184 95.35 74.403 93.8773 78.8738 89.8764C80.9822 88.0109 84.5131 84.8937 86.7485 82.9546C88.9839 81.0155 91.2701 79.0273 91.8289 78.5364C92.3878 78.0455 94.5215 76.1801 96.5537 74.3882C100.237 71.1728 100.999 70.2646 101.279 68.6201C101.761 65.6255 98.6113 62.6801 95.3852 63.1465C93.7341 63.3919 93.9627 63.2201 84.3607 71.6146C70.7705 83.4946 67.2904 86.44 66.3505 86.8818C65.5122 87.2746 64.7502 87.4218 63.3023 87.4218C61.2701 87.4218 60.1778 87.0537 58.3234 85.7773C57.0533 84.8937 42.6757 70.0928 42.6757 69.6755C42.6757 69.1355 43.4885 68.4483 44.1236 68.4483C44.4538 68.4483 46.232 70.0437 49.3056 73.161C51.8713 75.7628 54.9449 78.88 56.1642 80.1073C57.3835 81.31 58.6791 82.66 59.0347 83.1019C60.9398 85.3109 65.0042 85.4582 66.9856 83.3964C68.3573 81.9482 68.7129 79.4691 67.8238 77.7755C67.3666 76.9164 52.3285 61.3301 46.613 55.7828C42.2946 51.6101 39.7036 50.481 32.718 49.6465C31.4987 49.5238 31.4987 49.4992 31.4987 48.6156C31.4987 47.2901 32.1592 44.5411 32.9212 42.602C34.5216 38.5765 38.2303 34.6493 42.2692 32.7347C43.5394 32.1211 45.3175 31.4584 46.232 31.2129C48.2388 30.722 52.6587 30.6729 54.5893 31.1393C60.7874 32.5874 65.9949 37.0547 68.3065 42.9701C69.1194 45.0074 69.856 48.3947 69.856 50.0638C69.856 51.8556 71.685 52.6656 72.9043 51.3892C73.4631 50.8247 73.4885 50.6529 73.3361 48.7383C72.193 34.4774 58.7553 24.5611 45.1397 27.9484C38.7891 29.4947 33.4547 33.7656 30.381 39.6811C29.2379 41.8902 28.2472 45.1547 27.9932 47.5847L27.8154 49.4256L25.9864 49.4992C23.8273 49.5729 23.9289 49.7692 24.4115 46.4556C25.6816 37.6438 31.2447 30.0347 39.2718 26.132C51.7443 20.0938 66.7824 24.9784 73.6409 37.2756C75.7239 41.0556 77.0448 46.3329 76.9686 50.6529C76.9432 51.8556 76.9432 53.0583 76.9432 53.2792C76.994 54.0156 77.9085 54.7028 78.8484 54.7028C80.906 54.7028 81.287 53.991 81.287 50.2601C81.287 35.7783 71.8374 23.7266 57.6884 20.1675C54.6655 19.4066 49.5851 19.1611 46.486 19.5784C37.8493 20.8057 30.127 25.5429 25.2752 32.612C22.3031 36.9074 20.2963 42.4056 19.9153 47.3147L19.7375 49.5483H17.9593H16.1812L16.359 47.6338C17.8069 32.2193 29.873 19.0629 44.9619 16.5348C48.0355 16.0193 53.243 16.0193 56.2658 16.5348C67.519 18.4739 77.4005 26.3529 82.0237 37.1038C84.1829 42.1601 84.9703 46.2592 84.8941 52.2974C84.8433 55.7583 84.9957 56.4456 86.0118 57.0592C87.4089 57.9428 89.3395 57.4519 90.0508 56.0528C90.5842 54.9483 90.5842 48.4438 90.0254 44.9338C87.7138 29.7893 76.8924 17.0502 62.4894 12.5339C58.044 11.1348 56.2658 10.8893 50.5504 10.8893C44.7333 10.8893 43.0313 11.1348 38.3827 12.632C23.1922 17.5166 12.2439 31.3602 10.7959 47.5356L10.5927 49.5483H9.11939C7.36663 49.5483 7.41744 49.7692 8.02709 45.9156C10.3641 30.6484 19.6359 17.762 32.8958 11.3802C38.9162 8.48388 43.9204 7.33025 50.5504 7.33025C61.7527 7.33025 71.7866 11.5521 79.9153 19.6275C84.8687 24.5857 88.4758 30.2311 90.7874 36.7602C92.8196 42.4301 93.5055 46.382 93.6579 53.3283C93.7849 58.9983 93.8865 59.4892 95.3344 60.3728C95.9695 60.7655 96.4775 60.8392 97.6206 60.7655C98.9161 60.6919 99.1955 60.5692 100.008 59.8083C100.821 58.9983 100.923 58.7774 101.177 56.7647C101.482 54.2365 101.126 47.4374 100.466 43.7801C98.3827 32.0474 92.8958 21.6893 84.5385 13.712C76.6384 6.15207 66.8078 1.53754 55.8848 0.212082C53.878 -0.00882721 47.4259 -0.0824585 45.978 0.113907Z" fill="white"/>
<path d="M49.3819 34.7965C47.6037 35.852 47.7816 38.3802 49.6867 39.1411C50.8806 39.632 51.8967 39.4111 52.7096 38.4538C54.5639 36.3429 51.8205 33.3238 49.3819 34.7965Z" fill="white"/>
<path d="M42.3455 37.521C41.8374 37.9138 41.6596 38.2574 41.6596 38.9201C41.6596 39.7056 41.8628 39.9756 43.3869 41.301C48.2134 45.5228 48.442 45.9401 48.6706 51.4628C48.7976 54.1137 48.95 55.1937 49.2041 55.4883C49.7883 56.1265 50.906 56.2737 51.7951 55.8319C52.7096 55.3656 52.7858 55.0219 52.8874 50.6283C52.9636 47.5601 53.0144 47.3392 53.8019 45.8419C54.4623 44.5901 55.1482 43.8292 57.1549 42.111C58.5521 40.9329 59.746 39.7056 59.8222 39.411C60.1778 38.1101 58.8569 36.8092 57.536 37.1283C57.2565 37.202 55.7832 38.3065 54.2845 39.6074C50.652 42.7001 50.7536 42.7001 47.1719 39.6074C44.1744 37.0056 43.4378 36.6865 42.3455 37.521Z" fill="white"/>
<path d="M122.489 51.1929L122.566 59.4892L123.353 61.0846C124.344 63.1219 125.36 64.251 126.96 65.0855C129.577 66.4601 132.955 66.8283 136.156 66.0919C139.102 65.4292 141.16 63.8092 142.481 61.1092L143.141 59.7347L143.218 51.3156L143.294 42.9211H140.627H137.934V50.3338C137.934 57.0592 137.883 57.8692 137.451 58.7528C135.953 61.8946 131.914 62.6556 129.424 60.2501C127.875 58.7528 127.773 58.0656 127.773 49.941V42.9211H125.08H122.413L122.489 51.1929Z" fill="white"/>
<path d="M165.368 44.8847V46.8483H167.909H170.449V44.8847V42.921H167.909H165.368V44.8847Z" fill="white"/>
<path d="M174.97 46.161L174.894 49.4256L170.144 49.4992L165.368 49.5483V57.771V65.9937H167.908H170.449V59.7346V53.4756H172.71H174.996L175.072 58.4828C175.148 64.1773 175.199 64.3492 177.333 65.5028C178.323 66.0428 178.73 66.1164 181.118 66.1164C182.591 66.1164 183.988 66.0428 184.242 65.9446C184.598 65.7973 184.674 65.4292 184.674 63.8337V61.9192L183.074 62.0174C181.778 62.091 181.372 62.0419 180.864 61.6246C180.254 61.1337 180.229 61.0355 180.152 57.3046L180.076 53.4756H182.362H184.674V51.5119V49.5483H182.388H180.102V46.2347V42.9211H177.561H175.047L174.97 46.161Z" fill="white"/>
<path d="M217.951 46.9956V51.0456L217.062 50.3828C215.817 49.4747 214.522 49.0819 212.693 49.0574C209.492 49.0574 207.028 50.6038 205.58 53.5983C204.945 54.9237 204.869 55.3165 204.869 57.771C204.869 61.1092 205.402 62.4592 207.409 64.2264C210.356 66.8283 214.649 66.951 217.519 64.521L218.459 63.7355V64.8646V65.9937H220.745H223.031V54.4574V42.9211H220.491H217.951V46.9956ZM216.605 54.1383C218.307 55.341 218.891 57.771 217.9 59.6119C217.087 61.1583 215.944 61.821 214.141 61.821C213.048 61.821 212.489 61.6737 211.854 61.2565C210.356 60.2746 209.949 59.5137 209.949 57.6483C209.949 55.7583 210.33 55.0219 211.88 54.0156C212.616 53.5247 212.998 53.451 214.318 53.5247C215.411 53.5983 216.122 53.7701 216.605 54.1383Z" fill="white"/>
<path d="M231.947 44.5656C232.202 45.4983 233.802 50.6528 235.453 56.0528L238.476 65.871H240.838H243.175L245.792 58.3355C247.214 54.1874 248.459 50.6774 248.586 50.5056C248.688 50.3337 249.551 52.4201 250.644 55.5865C251.685 58.5319 252.955 62.091 253.438 63.4655L254.327 65.9937H256.689H259.052L259.56 64.3246C260.754 60.5446 265.961 43.191 265.961 43.0683C265.961 42.9947 264.767 42.921 263.294 42.921H260.652L260.423 43.7065C260.296 44.1483 259.433 47.4865 258.467 51.0946C257.502 54.7028 256.638 57.5746 256.562 57.4765C256.461 57.3783 255.267 54.0401 253.895 50.0883L251.431 42.8965L248.865 42.9701L246.274 43.0438L245.207 45.9892C244.623 47.6092 243.48 50.7756 242.667 53.0337C241.854 55.3165 241.143 57.1574 241.067 57.1574C240.991 57.1574 240.203 54.3101 239.314 50.8246C238.425 47.3637 237.587 44.1483 237.46 43.7065L237.231 42.921H234.335H231.465L231.947 44.5656Z" fill="white"/>
<path d="M153.81 49.4501C153.252 49.6465 152.362 50.211 151.854 50.7019L150.889 51.6101V50.5792V49.5483H148.476H146.063V57.771V65.9937H148.603H151.143V61.2565C151.143 58.6792 151.27 56.1265 151.397 55.6356C152.21 52.8619 156.198 52.6901 156.986 55.3901C157.113 55.881 157.24 58.4828 157.24 61.1337V65.9937H159.78H162.32V60.1519C162.32 53.6965 162.092 52.2974 160.847 50.8001C159.551 49.2538 156.198 48.6156 153.81 49.4501Z" fill="white"/>
<path d="M192.269 49.3765C187.773 50.6038 185.08 54.801 185.919 59.2437C186.478 62.091 188.18 64.2019 190.948 65.4292C192.981 66.3374 196.181 66.4846 198.213 65.7974C199.763 65.2574 202.202 63.6865 202.202 63.2201C202.202 63.0483 201.44 62.3856 200.525 61.7474L198.823 60.5692L198.163 61.1828C197.375 61.9192 195.876 62.5574 194.911 62.5574C193.971 62.5574 192.168 61.6737 191.685 60.9865C191.482 60.6674 191.228 60.1028 191.126 59.7592L190.974 59.121H197.121H203.294L203.167 57.0838C202.811 52.0029 200.22 49.3029 195.495 49.131C194.327 49.1065 192.93 49.2047 192.269 49.3765ZM196.537 53.1319C197.274 53.5738 197.807 54.4083 197.934 55.1938L198.01 55.8074L194.53 55.881C190.593 55.9547 190.491 55.9056 191.533 54.261C192.523 52.6901 194.962 52.1501 196.537 53.1319Z" fill="white"/>
<path d="M269.517 49.4501C268.044 49.8428 266.266 50.7265 265.707 51.3892C265.402 51.7328 265.529 51.9537 266.647 53.0337L267.942 54.2856L269.162 53.451C270.305 52.6901 270.559 52.6165 272.235 52.6165C273.937 52.6165 274.141 52.6656 274.826 53.3528C275.233 53.7456 275.665 54.3837 275.741 54.7274L275.893 55.3656L273.15 55.5374C267.257 55.881 264.666 57.3537 264.259 60.5692C264.056 62.2383 264.666 63.7601 265.986 64.8646C267.282 65.9201 268.806 66.3373 270.991 66.1901C272.921 66.0428 273.887 65.6501 275.055 64.4964L275.868 63.6864V64.8401V65.9937H278.154H280.44V60.2746C280.44 53.5246 280.263 52.5919 278.586 50.9228C277.824 50.1374 277.138 49.7447 276.147 49.4501C274.445 48.9592 271.397 48.9592 269.517 49.4501ZM275.868 59.4155C275.868 61.3792 274.191 62.8273 271.931 62.8519C269.848 62.901 268.654 61.4037 269.619 59.9801C270.152 59.1946 271.981 58.6792 274.166 58.6546L275.868 58.6301V59.4155Z" fill="white"/>
<path d="M281.431 50.5792C281.685 51.1683 283.336 54.8501 285.114 58.7528C286.867 62.6801 288.315 66.0183 288.315 66.1901C288.315 66.3373 288.01 67.0737 287.629 67.8346C286.791 69.4792 285.775 70.0437 284.022 69.8473C283.387 69.7737 282.676 69.651 282.447 69.5528C282.091 69.4301 281.964 69.6755 281.736 70.9764C281.304 73.431 281.329 73.5537 282.422 73.7746C282.93 73.8728 284.403 73.971 285.648 73.9464C289.255 73.9219 290.652 72.9646 292.024 69.651C294.056 64.6683 300 49.8183 300 49.6956C300 49.6219 298.831 49.5483 297.384 49.5483H294.792L292.913 54.9974C291.465 59.2437 290.982 60.3483 290.804 59.9801C290.677 59.7101 289.712 57.2801 288.62 54.5801L286.638 49.671L283.793 49.5974L280.948 49.5238L281.431 50.5792Z" fill="white"/>
<path d="M65.2075 52.6656C62.591 54.7765 55.6308 60.9374 55.6308 61.1337C55.6308 61.281 56.2913 62.0419 57.1295 62.8765L58.6029 64.3492L63.6579 59.9556C66.4522 57.5501 68.84 55.3901 69.0178 55.1938C69.5767 54.531 69.4243 53.0338 68.713 52.371C67.7731 51.4383 66.63 51.5365 65.2075 52.6656Z" fill="white"/>
<path d="M73.2854 55.1201C72.879 55.341 71.9645 56.0283 71.2532 56.6665C70.5673 57.3046 67.9763 59.5628 65.5377 61.6983C63.0991 63.8092 60.9399 65.6992 60.7366 65.871C60.4572 66.141 60.762 66.5828 62.7688 68.5464L65.1566 70.8783L71.3802 65.3801C76.2575 61.1092 77.68 59.7101 77.934 58.9983C78.8739 56.2983 75.851 53.7701 73.2854 55.1201Z" fill="white"/>
<path d="M82.9127 59.0473C82.4809 59.2928 78.696 62.4592 74.4792 66.1164L66.8332 72.7191L68.0525 73.971C69.475 75.4437 70.4657 77.0146 70.8721 78.4873L71.1515 79.5673L71.9644 78.831C72.4216 78.4137 76.1558 75.1982 80.2709 71.6391C84.3861 68.1046 87.9678 64.8891 88.2472 64.4964C88.8314 63.5882 88.8568 61.6982 88.298 60.6673C87.3835 58.9246 84.6401 58.1146 82.9127 59.0473Z" fill="white"/>
<path d="M161.304 87.1028V95.4727L162.65 95.3991L163.971 95.3255L164.098 91.7418C164.225 87.8391 164.352 87.4955 165.724 87.1519C166.765 86.8819 167.756 87.2255 168.137 87.9864C168.29 88.3546 168.417 89.9746 168.417 92.0118V95.4482H169.839H171.262L171.16 91.3246C171.084 86.6855 170.83 85.9 169.179 85.0655C167.985 84.4764 165.978 84.5991 164.911 85.36L164.124 85.9L164.047 82.39L163.971 78.8801L162.65 78.8064L161.304 78.7328V87.1028Z" fill="white"/>
<path d="M253.057 80.1319C252.676 80.3773 252.498 80.7455 252.498 81.3346C252.498 82.7582 254.251 83.4455 255.292 82.4391C256.334 81.4328 255.622 79.7391 254.149 79.7391C253.869 79.7391 253.361 79.9109 253.057 80.1319Z" fill="white"/>
<path d="M123.201 87.7409V95.4973L127.214 95.3745C131.71 95.2518 132.752 95.0063 134.759 93.5336C135.622 92.8954 136.257 92.1591 136.791 91.1527C137.477 89.8518 137.553 89.4836 137.528 87.4955C137.528 84.7709 136.969 83.4455 135.14 81.8746C133.311 80.2791 132.066 79.9846 127.24 79.9846H123.201V87.7409ZM131.152 82.7091C132.345 83.0282 133.844 84.2555 134.276 85.3109C134.81 86.5137 134.733 88.9191 134.124 90.0482C133.133 91.9136 131.329 92.7482 128.103 92.8218L126.122 92.8709L126.046 87.6427L125.995 82.4391H128.078C129.246 82.4391 130.618 82.5619 131.152 82.7091Z" fill="white"/>
<path d="M212.108 87.7164V95.4482H213.506H214.903V92.1346V88.8209H215.995H217.087L218.942 92.1346L220.796 95.4482H222.447C224.428 95.4482 224.454 95.7427 221.914 91.6682L220.059 88.6736L221.329 88.0846C222.244 87.6427 222.752 87.2009 223.108 86.5382C223.717 85.3846 223.768 83.3473 223.209 82.3164C222.218 80.4264 220.821 79.9846 215.893 79.9846H212.108V87.7164ZM219.018 82.4391C221.05 83.0037 221.38 85.1391 219.551 86.0718C219.246 86.2437 218.078 86.3664 216.96 86.3664H214.903V84.4518C214.903 83.3964 214.979 82.4391 215.08 82.3655C215.334 82.0955 217.976 82.1691 219.018 82.4391Z" fill="white"/>
<path d="M156.808 85.1146C156.376 85.3846 155.893 85.8018 155.741 86.0473C155.512 86.4155 155.487 86.3664 155.461 85.6791V84.8936H154.064H152.667V90.1709V95.4482H154.064H155.461V92.11V88.7718L156.351 87.9127C157.138 87.1518 157.367 87.0537 158.383 87.1518L159.526 87.2255V85.9491V84.6482H158.586C158.053 84.6482 157.265 84.8691 156.808 85.1146Z" fill="white"/>
<path d="M176.495 84.8691C176.114 84.9919 175.377 85.3355 174.869 85.63L173.954 86.1946L174.691 86.8819L175.428 87.5937L176.418 87.1028C177.993 86.3173 179.695 86.5137 180.534 87.5691C181.296 88.5264 180.965 88.7473 178.679 88.8946C175.885 89.0909 174.335 89.7537 173.649 91.1036C171.998 94.3927 177.003 97.1909 180 94.6627L180.864 93.9264V94.6873C180.864 95.4236 180.889 95.4482 182.032 95.4482H183.175L183.099 91.1773C183.023 87.2746 182.972 86.8328 182.49 86.1946C182.21 85.8264 181.626 85.3355 181.219 85.1391C180.356 84.7219 177.485 84.5746 176.495 84.8691ZM180.61 91.4964C180.61 93.0427 178.654 94.1227 177.028 93.46C175.732 92.9445 175.809 91.5455 177.18 91.03C177.46 90.9073 178.349 90.8091 179.162 90.8091C180.584 90.7846 180.61 90.7846 180.61 91.4964Z" fill="white"/>
<path d="M189.831 85.1146C189.399 85.3846 188.916 85.8018 188.764 86.0473C188.535 86.4155 188.51 86.3664 188.484 85.6791C188.484 84.8937 188.484 84.8937 187.214 84.8937H185.944V90.1709V95.4482H187.214H188.484V92.38C188.484 89.2137 188.738 88.06 189.577 87.3973C190.186 86.8818 191.685 86.9309 192.269 87.4464C192.752 87.8637 192.803 88.2564 192.854 91.6191L192.93 95.3255L194.276 95.3991L195.597 95.4727V92.2573C195.597 87.8637 196.029 86.98 198.264 87.0537C199.712 87.1027 199.915 87.6918 199.915 91.7909V95.4482H201.338H202.76L202.659 91.3246C202.583 87.9618 202.506 87.0782 202.125 86.4155C201.49 85.2864 200.296 84.6482 198.823 84.6482C197.477 84.6482 196.816 84.8937 195.826 85.8018C195.14 86.4155 195.14 86.4155 194.784 85.9C193.87 84.6482 191.329 84.2555 189.831 85.1146Z" fill="white"/>
<path d="M229.001 85.041C227.477 85.581 226.13 86.98 225.648 88.5509C224.352 92.8955 228.391 96.6509 232.989 95.35C234.183 95.0064 235.732 94 235.732 93.5336C235.732 93.4355 235.351 93.1164 234.869 92.7973L234.005 92.2327L233.065 92.8709C231.617 93.8036 230.093 93.73 228.975 92.65C227.375 91.1037 227.553 91.03 232.328 91.03H236.545L236.393 89.8518C235.986 87.1519 235.275 85.9246 233.624 85.1637C232.328 84.5501 230.5 84.501 229.001 85.041ZM232.405 86.9555C233.04 87.2746 233.7 88.2319 233.7 88.8209C233.7 88.9682 232.506 89.0664 230.906 89.0664C227.705 89.0664 227.477 88.8946 228.975 87.4464C229.941 86.5137 231.135 86.3419 232.405 86.9555Z" fill="white"/>
<path d="M241.194 85.1146C239.213 85.9982 238.273 87.6182 238.273 90.0973C238.298 92.6745 239.517 94.5155 241.727 95.2027C243.048 95.62 245.233 95.3991 246.147 94.7609C247.113 94.0736 247.163 94.0736 247.163 94.9573C247.163 95.9882 246.579 97.2645 245.868 97.7554C244.903 98.3936 242.464 98.2709 241.067 97.51L239.949 96.8964L239.238 97.7064C238.857 98.1482 238.552 98.6636 238.603 98.86C238.628 99.0563 239.213 99.4982 239.924 99.8418C241.016 100.406 241.499 100.48 243.607 100.48C245.792 100.48 246.122 100.406 247.265 99.7682C248.23 99.2282 248.611 98.7863 249.17 97.6818C249.805 96.3318 249.831 96.1845 249.907 90.5882L250.008 84.8937H248.713C247.417 84.8937 247.417 84.8937 247.417 85.6791V86.4646L246.732 85.8264C246.325 85.4582 245.69 85.0409 245.309 84.9182C244.217 84.5009 242.337 84.5991 241.194 85.1146ZM245.97 87.4709C246.605 87.7164 247.189 88.9436 247.214 90.0236C247.24 91.3982 246.605 92.38 245.36 92.8464C242.032 94.1473 239.314 90.2936 241.854 87.8637C242.845 86.9064 244.217 86.7837 245.97 87.4709Z" fill="white"/>
<path d="M261.846 84.8937C258.823 85.7773 257.172 88.9682 258.188 91.9382C259.407 95.4481 264.183 96.749 267.434 94.4663C270.127 92.6009 270.305 88.3545 267.815 86.0718C266.494 84.8446 263.802 84.3291 261.846 84.8937ZM265.631 87.5691C266.215 87.8636 266.977 89.2627 266.977 90.0236C266.977 91.6927 265.478 93.2391 263.878 93.2391C261.922 93.2391 260.627 92.0118 260.627 90.1709C260.627 87.5446 263.116 86.2437 265.631 87.5691Z" fill="white"/>
<path d="M275.944 85.1146C275.512 85.3846 275.03 85.8019 274.877 86.0473C274.649 86.4155 274.623 86.3664 274.598 85.6791C274.598 84.8937 274.598 84.8937 273.328 84.8937H272.058V90.1709V95.4482H273.328H274.598V92.38C274.598 88.1828 275.08 87.1273 276.986 87.0537C277.646 87.0291 278.103 87.1764 278.484 87.5691C278.992 88.06 279.043 88.3791 279.119 91.7909L279.196 95.4727L280.517 95.3991L281.837 95.3255L281.914 91.9137C282.015 86.3664 281.253 84.8937 278.18 84.6973C277.087 84.6482 276.579 84.7464 275.944 85.1146Z" fill="white"/>
<path d="M140.017 88.9927C140.119 93.8282 140.271 94.2945 142.075 95.1782C143.649 95.9145 145.174 95.7427 146.444 94.6627L147.333 93.9263V94.6873C147.333 95.4482 147.358 95.4482 148.603 95.4482H149.873V90.1709V84.8937H148.476H147.079V88.3545V91.8154L146.342 92.5273C145.351 93.4845 144.03 93.5091 143.294 92.6009C142.811 92.0118 142.76 91.6191 142.76 88.4282V84.8937H141.338H139.941L140.017 88.9927Z" fill="white"/>
<path d="M252.752 90.1709V95.4482H254.149H255.546V90.1709V84.8937H254.149H252.752V90.1709Z" fill="white"/>
<path d="M87.9678 85.63C86.9009 86.2437 86.3675 87.2991 86.3675 88.7964C86.3675 89.8273 86.4945 90.1709 87.155 90.9073C88.9331 92.8709 91.9306 92.4782 93.2007 90.1218C93.6071 89.3609 93.5563 87.6918 93.0991 86.8573C92.2354 85.2619 89.6444 84.6237 87.9678 85.63ZM91.0415 85.7282C92.7688 86.4155 93.5563 88.2318 92.845 89.8764C91.4987 92.9936 86.6215 91.9136 86.6215 88.5018C86.6215 87.6427 87.6376 86.3173 88.6537 85.8264C89.7206 85.2864 89.9492 85.2864 91.0415 85.7282Z" fill="white"/>
<path d="M88.3996 88.5755C88.3996 90.1464 88.4758 90.5391 88.7807 90.5391C89.0347 90.5391 89.1617 90.2937 89.1617 89.8028C89.1617 89.14 89.2379 89.0664 89.9237 89.0664C90.5842 89.0664 90.7112 89.1891 90.8636 89.8028C90.9398 90.1955 91.0922 90.5391 91.2193 90.5391C91.5495 90.5391 91.4987 89.4591 91.1431 89.1155C90.9144 88.8946 90.9144 88.7473 91.1431 88.5264C91.3209 88.3546 91.4479 87.9864 91.4479 87.6673C91.4479 87.0046 90.635 86.6118 89.2633 86.6118H88.3996V88.5755ZM90.889 87.6918C91.016 88.2318 90.5588 88.5755 89.7459 88.5755C89.2633 88.5755 89.1617 88.4528 89.1617 87.8146C89.1617 87.1273 89.2125 87.0782 89.9746 87.1518C90.5588 87.2009 90.8382 87.3728 90.889 87.6918Z" fill="white"/>
</svg>
