<svg width="261" height="39" viewBox="0 0 261 39" fill="none" xmlns="http://www.w3.org/2000/svg">
<path fill-rule="evenodd" clip-rule="evenodd" d="M36.3463 0L27.6913 12.4571L24.4138 7.57922H17L24.3503 18.4785L27.3589 23L30.3642 18.4785L43 0H36.3463Z" fill="#727272"/>
<path fill-rule="evenodd" clip-rule="evenodd" d="M45.6713 0L27.0146 26.9973L12.186 5.45327H22.1939L18.3229 0H0L23.2159 33.4304L27.0129 39L54 0H45.6713Z" fill="white"/>
<path fill-rule="evenodd" clip-rule="evenodd" d="M67 0V38H94V31.2727H74.2562V22.3636H89.6125V15.8182H74.2562V6.54545H92.8188V0H67Z" fill="white"/>
<path fill-rule="evenodd" clip-rule="evenodd" d="M131.643 12.4256C131.643 17.2546 126.861 17.9762 124.008 17.9762H117.561V6.87491H124.517C127.179 6.87491 131.643 7.59649 131.643 12.4256ZM139.109 12.4256C139.109 4.80147 134.037 0.428986 125.196 0.428986H110.435V37.6721H117.731V24.4221H122.912L132.583 37.6721H141.353L130.912 23.5304C136.211 21.9279 139.109 18.0281 139.109 12.4256Z" fill="white"/>
<path fill-rule="evenodd" clip-rule="evenodd" d="M156.075 37.4932H163.371V0.250122H156.075V37.4932Z" fill="white"/>
<path fill-rule="evenodd" clip-rule="evenodd" d="M181.524 37.6723H188.82V22.8108H205.617V16.3649H188.82V6.69604H208.501V0.250122H181.524V37.6723Z" fill="white"/>
<path fill-rule="evenodd" clip-rule="evenodd" d="M245.72 0.250305L236.653 14.2594L227.264 0.250305H218.904L232.932 21.1261V37.6725H240.229V21.1261L254.256 0.250305H245.72Z" fill="white"/>
<path fill-rule="evenodd" clip-rule="evenodd" d="M259.956 33.7886L258.768 36.7734L257.579 33.7886H256.564V37.717H257.202V34.4189H257.222L258.536 37.717H258.97L260.283 34.4189H260.303V37.717H260.941V33.7886H259.956Z" fill="white"/>
<path fill-rule="evenodd" clip-rule="evenodd" d="M252.614 34.4181H253.87V37.7181H254.508V34.4181H255.761V33.7879H252.614V34.4181Z" fill="white"/>
</svg>
