<svg width="297" height="45" viewBox="0 0 297 45" fill="none" xmlns="http://www.w3.org/2000/svg">
<g clip-path="url(#clip0_88_145)">
<path fill-rule="evenodd" clip-rule="evenodd" d="M41.3585 0L31.5097 14.3736L27.7801 8.74525H19.3438L27.7079 21.3213L31.1315 26.5385L34.5513 21.3213L48.93 0H41.3585Z" fill="#727272"/>
<path fill-rule="evenodd" clip-rule="evenodd" d="M51.9708 0L30.7408 31.1507L13.8668 6.29223H25.2551L20.8502 0H0L26.4181 38.5735L30.7388 45L61.4483 0H51.9708Z" fill="white"/>
<path fill-rule="evenodd" clip-rule="evenodd" d="M76.2422 0V43.8462H106.966V36.0839H84.4992V25.8042H101.974V18.2518H84.4992V7.55244H105.622V0H76.2422Z" fill="white"/>
<path fill-rule="evenodd" clip-rule="evenodd" d="M149.797 14.3374C149.797 19.9093 144.356 20.7419 141.109 20.7419H133.773V7.93272H141.688C144.718 7.93272 149.797 8.76531 149.797 14.3374ZM158.293 14.3374C158.293 5.54029 152.522 0.495117 142.461 0.495117H125.664V43.4679H133.966V28.1795H139.862L150.867 43.4679H160.847L148.965 27.1506C154.995 25.3016 158.293 20.8018 158.293 14.3374Z" fill="white"/>
<path fill-rule="evenodd" clip-rule="evenodd" d="M177.602 43.2618H185.904V0.289062H177.602V43.2618Z" fill="white"/>
<path fill-rule="evenodd" clip-rule="evenodd" d="M206.562 43.4685H214.865V26.3206H233.979V18.883H214.865V7.72666H237.26V0.289062H206.562V43.4685Z" fill="white"/>
<path fill-rule="evenodd" clip-rule="evenodd" d="M279.616 0.289062L269.299 16.4534L258.615 0.289062H249.102L265.064 24.3765V43.4685H273.368V24.3765L289.33 0.289062H279.616Z" fill="white"/>
<path fill-rule="evenodd" clip-rule="evenodd" d="M295.813 38.9873L294.461 42.4313L293.108 38.9873H291.953V43.5201H292.679V39.7146H292.702L294.197 43.5201H294.691L296.185 39.7146H296.208V43.5201H296.934V38.9873H295.813Z" fill="white"/>
<path fill-rule="evenodd" clip-rule="evenodd" d="M287.461 39.7135H288.89V43.5212H289.616V39.7135H291.042V38.9863H287.461V39.7135Z" fill="white"/>
</g>
<defs>
<clipPath id="clip0_88_145">
<rect width="297" height="45" fill="white"/>
</clipPath>
</defs>
</svg>
